<?xml version="1.0" encoding="UTF-8" standalone="no"?>
<svg
   xmlns:dc="http://purl.org/dc/elements/1.1/"
   xmlns:cc="http://creativecommons.org/ns#"
   xmlns:rdf="http://www.w3.org/1999/02/22-rdf-syntax-ns#"
   xmlns:svg="http://www.w3.org/2000/svg"
   xmlns="http://www.w3.org/2000/svg"
   version="1.0"
   width="48.394138mm"
   height="33.999962mm"
   viewBox="0 0 137.18024 96.377848"
   id="svg2029">
  <metadata
     id="metadata2035">
    <rdf:RDF>
      <cc:Work
         rdf:about="">
        <dc:format>image/svg+xml</dc:format>
        <dc:type
           rdf:resource="http://purl.org/dc/dcmitype/StillImage" />
        <dc:title></dc:title>
      </cc:Work>
    </rdf:RDF>
  </metadata>
  <defs
     id="defs2033" />
  <path
     id="path2025"
     d="m 65.497982,10.329914 c 0,0 0,2.389629 0,2.389629 0.47583,0.03681 0.96696,0.291541 1.23522,0.766479 0.2958,0.573979 0.43401,0.990624 0.409275,1.258807 -0.0357,0.384081 -0.40596,0.463514 -1.128375,0.264231 -0.20706,-0.04607 -0.34731,-0.10381 -0.51612,-0.156391 0,0 0,0.836604 0,1.673182 0,0.836604 0,1.673183 0,1.673183 0.291465,-0.068 0.58905,-0.133977 0.83334,-0.216138 0.49011,-0.16496 0.89403,-0.361055 1.246695,-0.598587 0.384285,-0.258723 0.70788,-0.566585 1.01643,-0.936896 0.314925,-0.370668 0.55896,-0.737256 0.73287,-1.098463 0.20859,-0.432914 0.3162,-0.858101 0.324615,-1.273241 0.0087,-0.437095 -0.09257,-0.862996 -0.30192,-1.275076 -0.183345,-0.360773 -0.449565,-0.710964 -0.797895,-1.048814 -0.345015,-0.32538 -0.6936,-0.597643 -1.05672,-0.816102 -0.388365,-0.233452 -0.793305,-0.40545 -1.229355,-0.515176 -0.23919,-0.06018 -0.50796,-0.06811 -0.76806,-0.09063 0,0 0,0 0,0"
     style="stroke-width:0.423055" />
  <path
     id="path2100"
     d="m 64.128377,42.179463 c 0.34731,0.471495 0.74562,0.94401 1.179885,1.376745 0.391425,0.389895 0.796875,0.74409 1.17759,1.027395 0.555135,0.41259 1.057995,0.67371 1.389495,0.67371 0.07166,0 0.390405,-0.08543 0.537795,-0.110415 0,0 0,-0.741795 0,-1.48359 0,-0.74205 0,-1.483845 0,-1.483845 0,0 -1.071255,0 -2.142255,0 -1.071255,0 -2.14251,0 -2.14251,0"
     style="stroke-width:0.423055" />
  <path
     id="path2116"
     d="m 63.440642,53.940828 c 0,0 0,-2.072895 0,-2.072895 -0.255255,-0.375105 -0.563805,-1.268115 -0.798915,-2.193765 -0.27132,-1.06794 -0.441915,-2.141235 -0.308295,-2.38578 0.16932,-0.27489 0.444465,-0.370005 0.75123,-0.301155 0.115005,0.02575 0.235875,0.09716 0.35598,0.1683 0,0 0,-0.86547 0,-1.730685 0,-0.86547 0,-1.730685 0,-1.730685 -0.255765,-0.294525 -0.53907,-0.63036 -0.76908,-0.890205 -0.39831,-0.435795 -0.741795,-0.83487 -1.016175,-1.176825 -0.658155,-0.82008 -0.919275,-1.311465 -0.590835,-1.19238 0.7191,0.25398 0.761175,0.21165 0.16881,-0.42279 -0.27897,-0.28713 -0.645405,-0.552075 -1.09242,-0.79254 -0.36261,-0.195075 -0.77826,-0.374085 -1.24338,-0.535755 -0.39831,-0.138465 -0.83283,-0.26418 -1.301265,-0.376635 -0.416415,-0.100215 -0.85986,-0.189465 -1.32855,-0.26775 -0.426615,-0.0714 -0.874395,-0.13362 -1.34181,-0.186405 -0.43299,-0.0487 -0.883065,-0.08925 -1.349205,-0.12138 -0.437325,-0.03009 -0.888675,-0.05279 -1.353285,-0.06757 -0.44013,-0.01403 -0.89199,-0.02117 -1.35507,-0.02117 -1.00725,0 -1.82019,0.0042 -2.50053,0.02244 -1.08273,0.02958 -1.82835,0.09588 -2.48523,0.23868 -0.767805,0.16728 -1.413975,0.439365 -2.332995,0.881535 -0.359805,0.17952 -0.741795,0.39729 -1.136025,0.643875 -0.354195,0.221595 -0.71808,0.466395 -1.08477,0.728025 -0.34782,0.248625 -0.697935,0.51255 -1.044225,0.786165 -0.341445,0.26979 -0.67932,0.54927 -1.00725,0.833085 -0.33507,0.289935 -0.65994,0.584205 -0.968235,0.877455 -0.32844,0.312375 -0.638265,0.62373 -0.921315,0.926925 -0.3213,0.344505 -0.60843,0.678555 -0.84966,0.99246 -0.3162,0.41157 -0.554115,0.788205 -0.687735,1.107465 -0.18156,0.44574 -0.286365,1.33569 -0.31824,2.37099 -0.02371,0.76092 -0.0076,1.600635 0.04488,2.400315 0.05916,0.90015 0.164985,1.7493 0.31518,2.37813 0.06452,0.214455 -0.26316,0.461805 -1.131945,0.786165 -0.36312,0.13566 -0.8211,0.28458 -1.38465,0.45033 -0.410295,0.120615 -0.87669,0.250155 -1.40301,0.38964 -0.42942,0.113985 -0.89862,0.2346 -1.410405,0.36261 -0.521475,0.130305 -1.03785,0.26214 -1.549635,0.39576 -0.5202,0.135915 -1.0353,0.273615 -1.5453,0.412845 -0.51867,0.14178 -1.031985,0.28509 -1.5402,0.430185 -0.517038,0.1479 -1.028644,0.29733 -1.534768,0.448545 -0.515406,0.154275 -1.025126,0.310335 -1.529108,0.46818 -0.513646,0.160905 -1.021326,0.32385 -1.522936,0.48858 -0.511479,0.168045 -1.016711,0.33813 -1.515618,0.51 -0.509261,0.175695 -1.011942,0.353175 -1.508019,0.53295 -0.506685,0.1836 -1.00646,0.36924 -1.499273,0.55692 -0.503778,0.192015 -1.000314,0.386325 -1.489506,0.58242 -0.500488,0.20094 -0.993378,0.40392 -1.478541,0.60945 -0.496944,0.210375 -0.985779,0.423045 -1.466428,0.638265 -0.492737,0.220575 -0.976905,0.443445 -1.452455,0.66912 -0.487993,0.231285 -0.9669339,0.465375 -1.4366949,0.702015 -0.419985,0.20655 -0.83663,0.41514 -1.247486,0.62424 -0.42001,0.21369 -0.833952,0.42789 -1.239274,0.640815 -0.420317,0.22083 -0.831377,0.440385 -1.230273,0.65688 -0.42177,0.22899 -0.829949,0.454665 -1.221119,0.67473 -0.424702,0.23919 -0.829362,0.47175 -1.209669,0.69513 -0.431434,0.25347 -0.831504,0.494955 -1.193893,0.720885 -0.451775,0.28152 -0.844925,0.538815 -1.16716004,0.763725 -0.705696,0.49266 -1.071255,0.8313 -0.96747,0.935085 0.04581,0.0306 0.577303,-0.137445 1.45480004,-0.45033 0.408,-0.145605 0.8908,-0.322575 1.434358,-0.5253 0.439008,-0.16371 0.917694,-0.34425 1.428612,-0.538815 0.451733,-0.172125 0.928659,-0.355215 1.425705,-0.547485 0.458669,-0.177225 0.934397,-0.3621 1.423232,-0.553095 0.463029,-0.180795 0.937839,-0.3672 1.421115,-0.55794 0.515202,-0.204765 1.023238,-0.40545 1.5243129,-0.602055 0.516222,-0.202725 1.025075,-0.401115 1.526711,-0.59517 0.517318,-0.20043 1.027038,-0.396525 1.52949,-0.58803 0.51867,-0.19788 1.029562,-0.390915 1.533009,-0.579615 0.51997,-0.194565 1.031985,-0.38454 1.5364,-0.569925 0.52145,-0.191505 1.034816,-0.378165 1.540532,-0.55947 0.523081,-0.18768 1.037901,-0.370005 1.544943,-0.54723 0.524637,-0.183345 1.040961,-0.36108 1.549431,-0.53346 0.526473,-0.178755 1.044556,-0.35139 1.55476,-0.518415 0.528437,-0.173145 1.048433,-0.34017 1.560524,-0.50133 0.530374,-0.166515 1.052257,-0.32691 1.566286,-0.481185 0.532695,-0.15963 1.05672,-0.312885 1.57335,-0.45951 0.53448,-0.151725 1.061055,-0.296565 1.580235,-0.434775 0.53652,-0.143055 1.06539,-0.278715 1.587375,-0.40749 0.53856,-0.132855 1.06998,-0.25857 1.59477,-0.377145 0.540345,-0.12189 1.07406,-0.236385 1.602165,-0.343995 0.54213,-0.11016 1.078395,-0.212415 1.60956,-0.307785 0.543405,-0.09741 1.08171,-0.18717 1.616445,-0.26979 0.54417,-0.08415 1.084515,-0.16065 1.622565,-0.23001 0.54468,-0.07013 1.08681,-0.132855 1.627665,-0.188445 0.544935,-0.05635 1.088595,-0.105315 1.63251,-0.14739 0.544425,-0.04233 1.08936,-0.07778 1.63557,-0.1071 0.51612,-0.02346 0.979965,-0.0459 1.3974,-0.06834 0.53958,-0.02882 1.00113,-0.05763 1.396125,-0.08848 0.60435,-0.04718 1.053405,-0.09894 1.388475,-0.1632 0.805545,-0.15402 0.954465,-0.379185 1.02102,-0.7803 0.15198,-0.93126 0.27897,-1.46064 0.483225,-1.62792 0.250665,-0.204765 0.618375,0.135915 1.29387,0.95115 0.533715,0.622965 0.938655,0.999855 1.461405,1.242105 0.47124,0.21879 1.038105,0.327675 1.881135,0.408 0.856035,0.0765 1.55703,0.04769 2.083605,-0.0737 0.931005,-0.214965 1.317075,-0.72012 1.04703,-1.44942 -0.102765,-0.23052 -0.453135,-0.84813 -0.91035,-1.59018 -0.298605,-0.4845 -0.642855,-1.022805 -0.993735,-1.540455 -0.467415,-0.70125 -0.82518,-1.26684 -1.07916,-1.71819 -0.66606,-1.18269 -0.62118,-1.58151 0.02193,-1.58151 0.58089,0 1.3158,0.49878 2.003025,1.228845 0.523005,0.5559 1.01847,1.245675 1.396635,1.95075 0.42636,0.795855 0.703545,1.611855 0.703545,2.27766 0,0.46512 0.296055,1.10007 0.592365,1.4382 0.311865,0.292485 0.695385,0.432225 1.43208,0.390405 0.390915,-0.02219 0.88128,-0.09562 1.51317,-0.2244 0.526065,-0.107355 1.308405,-0.307275 2.054025,-0.49368 0,0 0,0 0,0"
     style="stroke-width:0.423055" />
  <path
     id="path2114"
     d="m 68.413142,53.410938 c 0,0 0,-0.968745 0,-1.93749 0,-0.96849 0,-1.937235 0,-1.937235 -0.40239,-0.36618 -0.97104,-0.988125 -1.63761,-1.866855 -0.268515,-0.341445 -0.614295,-0.76755 -1.001895,-1.236495 -0.318495,-0.38556 -0.66555,-0.799935 -1.02102,-1.220175 -0.449055,-0.5304 -0.875415,-1.016175 -1.311975,-1.518525 0,0 0,0.865215 0,1.730685 0,0.865215 0,1.730685 0,1.730685 0.19992,0.11832 0.400095,0.27591 0.585225,0.513825 0.314415,0.41973 0.504135,1.265565 0.54825,2.115225 0.04539,0.863685 -0.05993,1.73094 -0.33711,2.157555 -0.25398,0.46512 -0.42279,0.46512 -0.76143,0 -0.01071,-0.01402 -0.02397,-0.05788 -0.03494,-0.0742 0,0 0,2.072895 0,2.072895 0.335325,-0.08389 0.53652,-0.121635 0.923355,-0.222105 0.335325,-0.08976 0.90933,-0.16116 1.66719,-0.214965 0.488835,-0.03468 1.05417,-0.06222 1.681215,-0.08288 0.20553,-0.0068 0.48246,-0.0042 0.70074,-0.0099 0,0 0,0 0,0"
     style="stroke-width:0.423055" />
  <path
     id="path2112"
     d="m 69.577982,0.00340097 c -0.51408,-0.010633 -1.008525,0.00357 -1.47441,0.043971 -0.526065,0.045645 -1.01541,0.1247537 -1.45503,0.2394195 -1.02357,0.2559563 -0.976905,0.607586 -0.180795,0.82344103 0.38811,0.1052436 0.954465,0.1782093 1.66158,0.1920762 0,0 2.199885,0.042338 2.199885,0.042338 0,0 -0.68748,0.1480428 -1.37496,0.2960883 -0.68748,0.148045 -1.374705,0.296088 -1.374705,0.296088 -0.492405,0.10674 -0.98787,0.235069 -1.48614,0.38478 -0.482205,0.144817 -0.96696,0.309636 -1.45401,0.494281 -0.470475,0.178373 -0.94299,0.375207 -1.41729,0.590325 -0.458235,0.207876 -0.918255,0.432837 -1.37955,0.674705 -0.445995,0.233809 -0.89301,0.48348 -1.341045,0.748782 -0.4335,0.256632 -0.86751,0.527875 -1.302285,0.813603 -0.421005,0.276751 -0.84252,0.567171 -1.26429,0.871055 -0.40902,0.294831 -0.81855,0.602361 -1.227825,0.922412 -0.44064,0.350956 -0.863175,0.70102 -1.269135,1.052232 -0.42483,0.367378 -0.8313,0.736006 -1.221195,1.10828 -0.40392,0.38579 -0.790245,0.775455 -1.16025,1.171521 -0.37893,0.40545 -0.74103,0.817556 -1.08783,1.23902 -0.34986,0.424957 -0.68442,0.859505 -1.00572,1.306418 -0.31875,0.443419 -0.62424,0.899053 -0.918255,1.369605 -0.28713,0.459586 -0.56355,0.933351 -0.83079,1.423945 -0.25755,0.473153 -0.50694,0.961937 -0.748935,1.468698 -0.23154,0.484169 -0.456705,0.984657 -0.677025,1.503506 -0.2091,0.492889 -0.413865,1.002354 -0.61506,1.530102 -0.190485,0.499723 -0.37791,1.01592 -0.563295,1.549941 -0.17544,0.505129 -0.34884,1.026196 -0.521475,1.564348 -0.13158,0.407516 -0.272085,0.863405 -0.4182,1.354688 -0.127755,0.429777 -0.259845,0.886482 -0.393975,1.361547 -0.124695,0.44217 -0.25143,0.899895 -0.378165,1.3668 -0.122145,0.450585 -0.244545,0.90933 -0.365415,1.370115 -0.120105,0.457725 -0.23868,0.917235 -0.35445,1.372665 -0.118065,0.46512 -0.23307,0.925905 -0.343485,1.37547 -0.116025,0.474555 -0.227205,0.93687 -0.33099,1.37904 -0.11475,0.488835 -0.220575,0.95319 -0.314925,1.3821 -0.114495,0.52071 -0.211905,0.989655 -0.287895,1.38822 -0.15657,0.82008 -0.221595,1.341045 -0.154785,1.39842 0.04259,0.08466 1.057485,-0.169065 2.199885,-0.54978 0.42687,-0.124185 0.97971,-0.23919 1.62741,-0.339405 0.49878,-0.07726 1.053915,-0.145605 1.651125,-0.20247 0.52377,-0.04998 1.07967,-0.09104 1.658775,-0.121635 0.536775,-0.02805 1.09344,-0.04717 1.662345,-0.05559 0.506685,-0.0051 0.956505,-0.0092 1.360935,-0.01046 0.52173,-0.0017 0.967215,0.0017 1.360935,0.0153 0.525045,0.01811 0.957525,0.05406 1.35405,0.12087 0.454665,0.0765 0.862155,0.193035 1.307385,0.36873 0.369495,0.146115 0.765,0.33252 1.235475,0.570435 0.35343,0.178755 0.74919,0.386325 1.207935,0.6273 0.430695,0.22236 0.81447,0.426105 1.1577,0.616845 0.436305,0.24276 0.80733,0.463845 1.125315,0.67422 0.42738,0.28254 0.759135,0.545445 1.02612,0.81396 0.32997,0.3315 0.561255,0.67167 0.751995,1.067685 0.16116,0.348075 0.414885,0.729555 0.69513,1.110015 0,0 1.071255,0 2.14251,0 1.071,0 2.142255,0 2.142255,0 0,0 0,0.741795 0,1.48359 0,0.74205 0,1.483845 0,1.483845 0.33201,-0.05636 0.630105,-0.09894 1.21125,-0.249645 0.532185,-0.1377 1.129395,-0.30498 1.72023,-0.48552 0.375615,-0.107355 0.83487,-0.22644 1.35099,-0.3519 0.420495,-0.102255 0.87873,-0.20859 1.359915,-0.315945 0.43962,-0.09818 0.898365,-0.197625 1.365015,-0.2958 0.452115,-0.09486 0.911625,-0.1887 1.36833,-0.27948 0.463335,-0.09206 0.923865,-0.180795 1.37088,-0.26418 0.47787,-0.08899 0.940185,-0.172125 1.374195,-0.24633 0.5049,-0.08619 0.97155,-0.160905 1.37904,-0.219555 0.626535,-0.09002 1.114095,-0.142545 1.38873,-0.142545 0.799935,0 0.68595,0.185385 -0.295545,0.53601 -0.36261,0.12954 -0.84354,0.28152 -1.44075,0.455175 -0.426105,0.12393 -0.911625,0.25908 -1.45554,0.404685 -0.44778,0.120105 -0.93534,0.247095 -1.461915,0.381225 -0.726495,0.18768 -1.479,0.39423 -2.20779,0.604605 -0.77724,0.224145 -1.527705,0.452115 -2.19147,0.66402 -0.96186,0.307275 -1.741905,0.581145 -2.158065,0.76245 -0.70737,0.308295 -1.1424,0.52326 -1.408875,0.77469 -0.35496,0.335325 -0.41004,0.73593 -0.41004,1.509345 0,0.845835 -0.169575,1.52286 -0.4233,1.52286 -0.06018,0 -0.27591,-0.229755 -0.435285,-0.37485 0,0 0,0.968745 0,1.937235 0,0.968745 0,1.93749 0,1.93749 0.432735,-0.01046 0.8721,-0.0204 1.332375,-0.02728 0.423045,-0.0059 0.863685,-0.01046 1.33263,-0.01046 0.54417,0 1.106955,0.0034 1.683255,0.0089 0.550035,0.0059 1.11231,0.01402 1.682745,0.02473 0.55437,0.01071 1.116645,0.02371 1.682745,0.03876 0.558195,0.01479 1.12047,0.03213 1.68249,0.05151 0.561765,0.01964 1.12353,0.04131 1.68147,0.06502 0.56559,0.02397 1.127355,0.05024 1.681215,0.07829 0.569925,0.02907 1.13169,0.06018 1.680705,0.09333 0.57528,0.03468 1.13679,0.0714 1.679685,0.110415 0.58293,0.04208 1.144185,0.08645 1.678155,0.13311 0.595425,0.05228 1.15668,0.107355 1.675095,0.16473 0.503624,0.05967 1.014134,0.12291 1.530254,0.18972 0.50439,0.06554 1.01414,0.13413 1.52847,0.206295 0.50439,0.07063 1.01337,0.144585 1.52567,0.22134 0.5049,0.07574 1.01311,0.154275 1.52388,0.235365 0.5049,0.08032 1.01235,0.162945 1.52133,0.248115 0.50515,0.08466 1.01184,0.171615 1.51954,0.260865 0.50541,0.08874 1.01133,0.179775 1.51751,0.27285 0.50541,0.09282 1.01056,0.18768 1.515209,0.28458 0.50541,0.09664 1.0098,0.195585 1.51291,0.2958 0.50541,0.10098 1.00929,0.20349 1.51062,0.307785 0.50567,0.104805 1.00878,0.211395 1.50858,0.319515 0.50567,0.10914 1.00802,0.21981 1.50629,0.3315 0.50541,0.11322 1.00674,0.22797 1.50271,0.34374 0.50567,0.11781 1.00598,0.236895 1.49991,0.357 0.50592,0.12291 1.00521,0.246585 1.4966,0.37128 0.50592,0.128265 1.00368,0.25755 1.49226,0.38709 0.50617,0.134385 1.0024,0.26928 1.48741,0.404685 0.50694,0.14127 1.00139,0.28305 1.48181,0.424575 0.50796,0.149685 1.00011,0.299115 1.47543,0.44829 0.50872,0.15963 0.99781,0.319005 1.46548,0.477615 0.37179,0.1275 0.91647,0.32691 1.58304,0.577575 0.47022,0.17697 1.00113,0.379185 1.57463,0.59976 0.49597,0.19074 1.02382,0.394995 1.57182,0.608175 0.50898,0.198135 1.03504,0.40392 1.56952,0.61353 0.51791,0.20349 1.04372,0.410805 1.56825,0.61812 0.52632,0.20808 1.05162,0.41616 1.56672,0.62118 0.42713,0.17289 0.8364,0.338385 1.22834,0.496995 0.42993,0.173655 0.8392,0.338895 1.22859,0.495975 0.43375,0.17493 0.84303,0.33966 1.2291,0.4947 0.43962,0.176715 0.84915,0.34068 1.23037,0.492405 0.4488,0.17901 0.85859,0.34119 1.23191,0.48807 0.46614,0.18309 0.87592,0.34221 1.23547,0.479145 0.51051,0.194565 0.91953,0.34476 1.24364,0.456195 1.06054,0.364905 1.21482,0.31671 1.06029,0.06579 -0.10787,-0.17646 -0.48119,-0.489345 -1.03403,-0.885615 -0.32181,-0.230775 -0.70456,-0.489855 -1.13118,-0.766785 -0.35751,-0.23256 -0.74638,-0.477615 -1.15591,-0.7293 -0.37562,-0.230775 -0.76857,-0.46716 -1.17122,-0.704055 -0.38811,-0.228225 -0.78489,-0.457215 -1.18396,-0.68289 -0.39882,-0.22542 -0.79994,-0.44727 -1.1957,-0.66147 -0.4108,-0.222105 -0.81625,-0.435795 -1.20895,-0.636225 -0.42738,-0.218535 -0.83946,-0.421515 -1.22604,-0.60282 -0.46793,-0.21828 -0.91851,-0.42636 -1.3589,-0.626025 -0.4641,-0.21063 -0.91698,-0.412335 -1.36705,-0.607665 -0.459,-0.19941 -0.9152,-0.3927 -1.37751,-0.58293 -0.45441,-0.18666 -0.91469,-0.370515 -1.3895,-0.554115 -0.45135,-0.174675 -0.9157,-0.349095 -1.40071,-0.52581 -0.45008,-0.163965 -0.918,-0.330225 -1.40939,-0.50082 -0.45084,-0.156315 -0.92157,-0.3162 -1.41652,-0.48093 -0.45263,-0.150705 -0.9254,-0.305745 -1.42188,-0.465885 -0.45416,-0.14637 -0.92846,-0.297585 -1.42545,-0.454155 -0.45645,-0.143565 -0.93177,-0.291975 -1.42826,-0.44574 -0.45823,-0.141525 -0.93406,-0.287895 -1.42978,-0.43911 -0.45977,-0.14025 -0.93636,-0.28509 -1.43106,-0.43452 -0.46155,-0.13923 -0.93866,-0.28254 -1.43285,-0.43044 -0.46282,-0.13872 -0.94018,-0.281265 -1.43335,-0.428145 -0.46385,-0.137955 -0.94172,-0.27999 -1.43412,-0.42585 -0.46512,-0.1377 -0.94325,-0.27897 -1.43463,-0.42432 0,0 -0.68748,-0.20094 -1.37496,-0.40188 -0.68748,-0.20094 -1.37471,-0.40188 -1.37471,-0.40188 0,0 -0.21624,-0.59925 -0.5077,-1.40658 -0.15504,-0.429675 -0.3315,-0.918255 -0.50796,-1.406835 0,0 -0.25373,-0.703545 -0.50771,-1.406835 -0.25398,-0.70329 -0.5077,-1.406835 -0.5077,-1.406835 -0.17825,-0.4998 -0.34298,-0.965175 -0.494699,-1.399185 -0.17799,-0.509745 -0.33788,-0.976395 -0.48042,-1.404795 -0.17544,-0.52581 -0.32487,-0.9945 -0.44957,-1.41474 -0.16549,-0.556665 -0.28789,-1.028925 -0.37128,-1.437435 -0.12367,-0.60792 -0.16039,-1.075845 -0.12138,-1.4739 0.0513,-0.524535 0.23384,-0.928455 0.52122,-1.37292 0.0793,-0.119085 0.15734,-0.418965 0.23817,-0.629595 0,0 -0.88153,0 -2.29933,0 -0.66147,0 -1.43948,0 -2.29934,0 -0.71655,0 -1.48971,0 -2.29933,0 -0.74103,0 -1.51266,0 -2.29934,0 -0.75709,0 -1.52796,0 -2.299079,0 -0.770865,0 -1.541985,0 -2.298825,0 -0.786675,0 -1.55856,0 -2.29959,0 -0.809625,0 -1.582785,0 -2.29908,0 -0.85986,0 -1.637865,0 -2.299335,0 -1.4178,0 -2.29908,0 -2.29908,0 0,0 0,-2.36181 0,-2.36181 -0.464355,-0.03545 -0.929475,-0.07675 -1.39434,-0.12954 -0.462315,-0.05228 -0.924885,-0.11577 -1.386435,-0.196095 -0.53448,-0.09307 -1.06794,-0.20094 -1.598595,-0.323595 -0.52938,-0.1224 -1.055955,-0.259335 -1.578705,-0.41106 -0.52224,-0.151215 -1.040655,-0.31671 -1.554225,-0.496995 -0.51306,-0.18003 -1.021275,-0.37434 -1.52337,-0.583185 -0.50235,-0.208845 -0.998325,-0.432225 -1.48716,-0.66963 -0.4896,-0.237915 -0.971805,-0.49011 -1.44534,-0.75633 -0.474555,-0.26673 -0.94044,-0.54774 -1.39638,-0.842775 -0.457215,-0.2958 -0.904485,-0.605625 -1.34028,-0.92973 -0.43707,-0.32487 -0.862665,-0.663765 -1.27551,-1.016685 -0.41361,-0.35343 -0.814725,-0.72114 -1.201815,-1.10262 -0.34731,-0.340935 -0.69462,-0.716805 -1.03428,-1.11486 -0.324615,-0.380715 -0.64209,-0.78132 -0.94605,-1.191105 -0.30498,-0.411315 -0.595935,-0.831555 -0.866235,-1.249704 -0.285855,-0.442221 -0.548505,-0.881918 -0.77979,-1.305702 -0.26418,-0.484449 -0.48756,-0.94809 -0.6579,-1.370855 -0.23562,-0.585174 -0.369495,-1.092063 -0.369495,-1.467499 0,-0.579921 0.589305,-1.072428 1.705695,-1.461278 0.61557,-0.214225 1.391025,-0.396958 2.31642,-0.545368 0.703545,-0.112787 1.49379,-0.205964 2.3664,-0.277899 0.493935,-0.03383 0.9537,-0.06877 1.38261,-0.105927 0.500565,-0.04335 0.9588,-0.08971 1.38006,-0.140607 0.745365,-0.09004 1.34232,-0.202598 1.88241,-0.328721 0,0 0,-0.836578 0,-1.673182 0,-0.836604 0,-1.673183 0,-1.673183 -1.072275,-0.334126 -1.43208,-0.798609 -1.176315,-1.493152 0.190485,-0.46535 0.656115,-0.6769 1.142655,-0.650456 0.01148,6.37e-4 0.02219,0.0096 0.03366,0.01048 0,0 0,-2.389632 0,-2.389632 -0.57069,-0.04944 -1.177335,-0.04144 -1.88547,0.09213 -0.40494,0.07637 -0.836145,0.182835 -1.298715,0.319719 -0.399075,0.118065 -0.8211,0.258799 -1.269135,0.422382 -0.394485,0.143998 -0.80937,0.305643 -1.24644,0.485061 -0.391935,0.160828 -0.801465,0.335937 -1.230375,0.525453 -0.467415,0.211114 -0.92412,0.389997 -1.326,0.525121 -0.725475,0.24396 -1.27245,0.345323 -1.381335,0.236412 -0.146625,-0.130305 0.208845,-0.668178 0.80478,-1.345713 0.320025,-0.363426 0.7089,-0.767014 1.1271,-1.16943 0.38811,-0.373753 0.801465,-0.746538 1.20768,-1.085152 0.458745,-0.382475 0.90831,-0.721344 1.302285,-0.968796 0.361845,-0.226032 0.73338,-0.435412 1.11486,-0.628269 0.37893,-0.191632 0.767805,-0.366996 1.16637,-0.526192 0.3927,-0.156902 0.79509,-0.298019 1.20717,-0.423479 0.40341,-0.122808 0.816,-0.230622 1.23828,-0.323595 0.41055,-0.09052 0.83028,-0.167 1.258935,-0.22945 0.415395,-0.06054 0.839205,-0.10789 1.27143,-0.142111 0.4182,-0.03307 0.844305,-0.05383 1.278315,-0.0624 0.41922,-0.0082 0.84558,-0.0052 1.279845,0.0091 0.98379,0.02428 1.712835,0.05171 2.318715,0.119034 0.864705,0.09603 1.478235,0.272698 2.221305,0.634492 0.44778,0.217974 1.017195,0.560975 1.64271,0.936335 0,0 0,-0.959208 0,-2.135295 0,-0.687072 0,-1.448196 0,-2.135268 0,-1.176088 0,-2.1353162 0,-2.1353162 -0.30396,-0.1130797 -0.60435,-0.2305659 -0.91953,-0.33020463 -0.465885,-0.147362 -0.94197,-0.2796534 -1.42188,-0.3960074 -0.47991,-0.1162953 -0.963645,-0.2166735 -1.44534,-0.3002625 -0.49164,-0.085317 -0.98124,-0.1530739 -1.46217,-0.2023017 -0.50286,-0.051467 -0.99654,-0.082679 -1.47339,-0.092541 0,0 0,0 0,0"
     style="stroke-width:0.423055" />
  <path
     id="path2092"
     d="m 87.273707,24.914714 c 0,0 0,-1.071791 0,-2.143607 0,-1.07179 0,-2.143581 0,-2.143581 -0.90168,-0.21318 -1.637355,-0.914608 -1.20666,-1.345227 0.137445,-0.137496 0.359295,-0.2091 0.6171,-0.227613 0.183855,-0.01318 0.386835,0.0042 0.58956,0.03986 0,0 0,-0.753066 0,-1.506106 0,-0.753041 0,-1.506081 0,-1.506081 -0.01632,-6.12e-4 -0.04922,-0.01547 -0.06477,-0.01547 -0.477615,0 -0.92718,0.07956 -1.335435,0.226006 -0.44115,0.158202 -0.83385,0.394485 -1.16178,0.692886 -0.3366,0.306408 -0.605115,0.678224 -0.78693,1.098285 -0.17442,0.402365 -0.26928,0.848997 -0.26928,1.324725 0,0.79815 0.1989,1.584468 0.58497,2.340314 0.34323,0.671797 0.834615,1.31965 1.465995,1.930936 0.447525,0.433296 0.98175,0.842673 1.56723,1.234659 0,0 0,0 0,0"
     style="stroke-width:0.423055" />
  <path
     id="path2106"
     d="m 76.300292,1.3247184 c 0,0 0,0.9592186 0,2.1352906 0,0.687098 0,1.448196 0,2.135294 0,1.176061 0,2.135294 0,2.135294 0.1428,0.08568 0.217515,0.118295 0.375105,0.213665 0.52122,0.324895 0.951915,0.591701 1.32396,0.80942 0.56202,0.328874 0.989655,0.545675 1.39179,0.681233 0.48399,0.163123 0.93126,0.208615 1.531275,0.189924 0.41973,-0.01308 0.914175,-0.05758 1.548105,-0.115209 1.180395,-0.131172 1.888275,-0.187782 2.46024,-0.1071 0.72063,0.10149 1.227315,0.420342 2.19351,1.080282 0.388875,0.27262 0.773924,0.562657 1.153114,0.867484 0.37204,0.29909 0.73848,0.612408 1.09701,0.937431 0.35572,0.322193 0.70354,0.655833 1.04167,0.998477 0.3389,0.343153 0.6681,0.695308 0.98583,1.053966 0.32156,0.362916 0.63138,0.732462 0.92744,1.106113 0.30268,0.382322 0.59109,0.768902 0.86266,1.157012 0.28178,0.402288 0.54545,0.806233 0.78872,1.2087 0.25627,0.423861 0.49011,0.846115 0.69844,1.263117 0.22389,0.447754 0.4182,0.889414 0.58013,1.320619 0.17824,0.475448 0.31696,0.938196 0.41106,1.382279 0.21598,0.895432 0.25194,1.137351 -0.38607,0.479017 -0.23613,-0.243678 -0.56432,-0.610674 -1.01006,-1.113534 -0.33736,-0.383188 -0.65229,-0.755259 -0.91876,-1.084056 -0.46946,-0.578697 -0.78872,-1.023264 -0.816,-1.158159 0,-0.226491 -0.44982,-0.618732 -1.09778,-1.040476 -0.39244,-0.255408 -0.85731,-0.521654 -1.339,-0.768417 -0.46181,-0.236538 -0.9356,-0.452498 -1.37496,-0.623501 -0.58064,-0.225981 -1.101094,-0.373524 -1.454014,-0.386529 0,0 0,0.753041 0,1.506081 0,0.753041 0,1.506107 0,1.506107 0.648974,0.114928 1.301014,0.453543 1.373684,0.864603 0.12674,0.549958 -0.12648,0.761506 -0.888164,0.761506 -0.16677,0 -0.324105,-0.05499 -0.48552,-0.09313 0,0 0,1.071791 0,2.143581 0,1.071816 0,2.143607 0,2.143607 0.122145,0.08177 0.23052,0.168274 0.35853,0.248013 0.499034,0.311482 0.961354,0.604681 1.388224,0.881356 0.50413,0.326655 0.9588,0.630615 1.36654,0.915195 0.51153,0.356745 0.94886,0.683145 1.31631,0.985065 0.52326,0.42993 0.90474,0.8109 1.15745,1.162035 0.40698,0.56508 0.47914,1.052385 0.26928,1.539945 -0.17213,0.399585 -0.53372,0.799425 -1.05621,1.243125 -0.41387,0.350625 -0.8466,0.67983 -1.29693,0.988125 -0.44651,0.305745 -0.90984,0.59058 -1.38848,0.855015 -0.47302,0.261375 -0.96084,0.50235 -1.46166,0.723435 -0.493934,0.21828 -1.000619,0.416925 -1.518269,0.596445 -0.51,0.17697 -1.03071,0.33507 -1.5606,0.474555 -0.521985,0.1377 -1.052895,0.25704 -1.590945,0.358785 -0.53091,0.100215 -1.068705,0.18309 -1.612365,0.248625 -0.536775,0.06502 -1.078905,0.112965 -1.62486,0.14433 -0.540345,0.03085 -1.08426,0.04539 -1.63098,0.04386 -0.54111,-0.0017 -1.085025,-0.01887 -1.630215,-0.05202 -0.15249,-0.0092 -0.30549,-0.04207 -0.458235,-0.0538 0,0 0,2.36181 0,2.36181 0,0 0.881535,0 2.29908,0 0.66147,0 1.43973,0 2.29959,0 0.716295,0 1.48971,0 2.299335,0 0.74103,0 1.51266,0 2.29908,0 0.757095,0 1.528215,0 2.29908,0 0.771124,0 1.541984,0 2.299084,0 0.78667,0 1.5583,0 2.29959,0 0.80937,0 1.58253,0 2.29908,0 0.8596,0 1.63786,0 2.29933,0 1.41755,0 2.29908,0 2.29908,0 0.14025,-0.366435 0.27897,-0.81243 0.39729,-1.29591 0.10404,-0.424575 0.19253,-0.877965 0.25322,-1.332375 0.0441,-0.370515 0.0688,-0.89556 0.0768,-1.536885 0.006,-0.45849 0.003,-0.976395 -0.008,-1.539435 -0.009,-0.48246 -0.0237,-0.998325 -0.0434,-1.53816 -0.0181,-0.494445 -0.0405,-1.00929 -0.0668,-1.53765 -0.0245,-0.502095 -0.0525,-1.01643 -0.0836,-1.537395 -0.0303,-0.507705 -0.0635,-1.02153 -0.0989,-1.53612 -0.0357,-0.512805 -0.0734,-1.026375 -0.11347,-1.535431 -0.0408,-0.517982 -0.0836,-1.03122 -0.12827,-1.53408 -0.0464,-0.524229 -0.0946,-1.037111 -0.14433,-1.532321 -0.0538,-0.533358 -0.10888,-1.046239 -0.16524,-1.530663 -0.0643,-0.549295 -0.12979,-1.062024 -0.19609,-1.526557 -0.0847,-0.592518 -0.17034,-1.106573 -0.25526,-1.518015 -0.0849,-0.411647 -0.19533,-0.837497 -0.32538,-1.267172 -0.12469,-0.412003 -0.268,-0.827551 -0.42457,-1.237515 -0.15708,-0.410448 -0.32742,-0.815311 -0.5072,-1.205538 -0.18793,-0.408969 -0.38607,-0.801822 -0.58854,-1.168153 -0.22618,-0.408791 -0.45798,-0.784508 -0.68773,-1.112565 -0.29198,-0.416798 -0.58089,-0.756662 -0.85119,-0.989681 -0.7191,-0.592288 -0.9305,-1.480402 -0.25373,-1.057357 0.76169,0.465375 0.46512,-0.169422 -0.50796,-1.057842 -0.24964,-0.229041 -0.71731,-0.542614 -1.32472,-0.900379 -0.41157,-0.242556 -0.8874,-0.505436 -1.40301,-0.776042 -0.45237,-0.237354 -0.93509,-0.480599 -1.43183,-0.721319 -0.47634,-0.230699 -0.96543,-0.459077 -1.45324,-0.677714 -0.49827,-0.223176 -0.99501,-0.436152 -1.474669,-0.630997 -0.52734,-0.2142 -1.03428,-0.406496 -1.500165,-0.566304 0,0 -1.692435,-0.592161 -1.692435,-0.592161 0,0 1.39587,-0.127016 1.39587,-0.127016 0.7191,-0.08461 1.354305,-0.338308 1.354305,-0.549831 0,-0.175516 -0.607155,-0.2703 -1.72278,-0.242071 -0.49776,0.01262 -1.09701,0.04978 -1.78908,0.115056 -0.528615,0.04287 -0.98481,0.07612 -1.38618,0.09769 -0.551565,0.02963 -0.9996,0.03721 -1.38924,0.01737 -0.523005,-0.02662 -0.941205,-0.102485 -1.36476,-0.240363 -0.39168,-0.127477 -0.787695,-0.307974 -1.275,-0.551535 -0.561255,-0.291011 -1.177845,-0.545228 -1.812795,-0.7814368 0,0 0,-1.28e-5 0,-1.28e-5"
     style="stroke-width:0.423055" />
  <path
     id="path2027"
     d="m 65.232527,82.214463 c -0.56151,8.5e-4 -1.11741,0.0042 -1.664895,0.0085 -0.56457,0.0042 -1.12047,0.0094 -1.665405,0.01632 -0.56763,0.0068 -1.12353,0.0153 -1.664895,0.0255 -0.571965,0.01071 -1.12812,0.02295 -1.66515,0.03723 -0.57783,0.01504 -1.13373,0.03238 -1.66413,0.05151 -0.587775,0.02116 -1.14393,0.04514 -1.66362,0.0714 -0.606645,0.03111 -1.163565,0.06553 -1.66209,0.10353 -0.65943,0.05024 -1.217625,0.106845 -1.65597,0.170085 -0.520965,0.0742 -1.040655,0.15147 -1.559325,0.231795 -0.519945,0.08033 -1.03887,0.163455 -1.55601,0.249645 -0.519435,0.08644 -1.03734,0.17595 -1.55346,0.268005 -0.51867,0.09257 -1.0353,0.187935 -1.54989,0.285855 -0.51765,0.09843 -1.03326,0.199665 -1.54632,0.303705 -0.516885,0.10455 -1.03122,0.211905 -1.543005,0.32181 -0.515865,0.11118 -1.028925,0.224655 -1.53867,0.34068 -0.514845,0.117045 -1.02663,0.236895 -1.534845,0.359042 -0.51357,0.12393 -1.02357,0.25041 -1.529745,0.379185 -0.512295,0.13056 -1.020765,0.263415 -1.524645,0.39882 -0.51102,0.137445 -1.017705,0.277185 -1.519545,0.41922 -0.509745,0.14433 -1.01439,0.29121 -1.51368,0.440385 -0.507705,0.15198 -1.010055,0.306255 -1.506795,0.46308 -0.50592,0.159885 -1.005975,0.322065 -1.4994,0.486795 -0.503625,0.16779 -1.000875,0.338385 -1.49073,0.51102 -0.50133,0.17697 -0.99552,0.356235 -1.48155,0.537795 -0.49878,0.186405 -0.989145,0.37536 -1.471095,0.56661 -0.495465,0.196605 -0.981852,0.39576 -1.458472,0.597465 -0.491972,0.20808 -0.973514,0.418455 -1.444116,0.63138 -0.487662,0.22032 -0.963594,0.443445 -1.427133,0.668865 -0.386631,0.19023 -0.769412,0.382758 -1.145919,0.575788 -0.386198,0.19839 -0.765791,0.39729 -1.136127,0.59517 -0.386096,0.20655 -0.76217,0.41183 -1.125392,0.61404 -0.387013,0.21573 -0.759441,0.42789 -1.11384,0.6347 -0.39015,0.22746 -0.758395,0.44829 -1.100019,0.65892 -0.398718,0.24607 -0.7612,0.47838 -1.079925,0.69207 -0.431715,0.28968 -0.783232,0.54519 -1.036014,0.75454 -0.590401,0.48858 -0.642345,0.72471 0.07973,0.55131 0.258035,-0.0482 0.817377,-0.23205 1.560753,-0.50413 0.45209,-0.1655 0.972239,-0.36363 1.534106,-0.58395 0.482664,-0.18921 0.996081,-0.39474 1.523599,-0.60971 0.497454,-0.20298 1.007454,-0.41437 1.516001,-0.62908 0.520608,-0.21828 1.040859,-0.43299 1.560906,-0.64413 0.523081,-0.21191 1.045984,-0.42024 1.568811,-0.62475 0.525657,-0.20553 1.051288,-0.40724 1.576843,-0.60512 0.528131,-0.1989 1.056159,-0.39372 1.584264,-0.584713 0.5304,-0.192015 1.0608,-0.380205 1.591455,-0.564315 0.532695,-0.184875 1.0659,-0.365925 1.599105,-0.542895 0.53499,-0.177735 1.07049,-0.351645 1.606245,-0.521475 0.53754,-0.170595 1.075335,-0.33711 1.61364,-0.499545 0.53958,-0.162945 1.079415,-0.32181 1.620015,-0.47685 0.54162,-0.15555 1.08375,-0.306765 1.626645,-0.45441 0.54366,-0.147645 1.08783,-0.291465 1.632765,-0.431205 0.5457,-0.139995 1.09191,-0.27591 1.638885,-0.408 0.547485,-0.13209 1.095735,-0.260355 1.645005,-0.38454 0.549015,-0.124185 1.098795,-0.24429 1.649595,-0.36057 0.5508,-0.11628 1.102365,-0.22848 1.655205,-0.33711 0.552075,-0.108375 1.10517,-0.21267 1.659285,-0.313395 0.55386,-0.100215 1.108485,-0.196605 1.66413,-0.288915 0.55488,-0.09231 1.110525,-0.180795 1.667955,-0.265455 0.555645,-0.08441 1.11282,-0.164985 1.671525,-0.24174 0.55692,-0.07676 1.115115,-0.14943 1.67484,-0.21828 0.557685,-0.06885 1.1169,-0.13362 1.677645,-0.194822 0.55845,-0.06069 1.11843,-0.11781 1.680195,-0.17136 0.559215,-0.0533 1.11996,-0.102765 1.68249,-0.148665 0.559725,-0.04539 1.121235,-0.08746 1.684275,-0.125715 0.560235,-0.03825 1.122,-0.07293 1.68555,-0.103785 0.56049,-0.03085 1.12302,-0.05814 1.68708,-0.08211 0.560745,-0.02371 1.12353,-0.0436 1.687845,-0.06018 0.561,-0.01658 1.123785,-0.02958 1.688355,-0.03927 0.561255,-0.0097 1.12404,-0.01606 1.68861,-0.01887 0.561,-0.0025 1.123785,-0.0025 1.688865,8.5e-4 0.561,0.0034 1.123785,0.01096 1.688865,0.02117 0.560745,0.0102 1.123275,0.02371 1.688355,0.04029 0.56049,0.01657 1.12302,0.03621 1.687845,0.0589 0.560235,0.02244 1.122765,0.04819 1.687335,0.07701 0.559725,0.02856 1.121745,0.05992 1.68606,0.09461 0.55947,0.03417 1.121235,0.0714 1.685295,0.111435 0.540855,0.03978 1.073805,0.08134 1.59987,0.12444 0.54009,0.04437 1.072785,0.09078 1.598595,0.13923 0.539325,0.04973 1.07151,0.101745 1.59732,0.156062 0.538305,0.05585 1.06998,0.11424 1.595535,0.17493 0.536775,0.06222 1.06743,0.127245 1.592985,0.195585 0.535248,0.06936 1.064878,0.14178 1.590178,0.218025 0.53321,0.07727 1.06182,0.157845 1.58687,0.242505 0.53091,0.08543 1.05825,0.17493 1.58253,0.26826 0.52836,0.09435 1.05391,0.19278 1.57768,0.295545 0.5253,0.10302 1.04907,0.210885 1.57208,0.323085 0.52224,0.1122 1.04397,0.22899 1.56595,0.35088 0.51944,0.121125 1.03887,0.24735 1.55984,0.37893 0.51612,0.13005 1.03326,0.2652 1.552949,0.405705 0.5128,0.138975 1.02765,0.28305 1.54581,0.43248 0.50949,0.146625 1.02204,0.29886 1.53867,0.45645 0.50643,0.15453 1.01694,0.314415 1.53178,0.47991 0.50363,0.161415 1.01159,0.32844 1.5249,0.50082 0.50108,0.1683 1.007,0.3417 1.51878,0.520455 0.49827,0.17442 1.00215,0.35343 1.5119,0.53805 0.49597,0.17952 0.99807,0.363885 1.50628,0.55386 0.49419,0.184358 0.99425,0.373318 1.50119,0.567628 0.4924,0.18844 0.99093,0.38199 1.49634,0.58038 0.49087,0.19252 0.98812,0.38964 1.492,0.59135 0.4896,0.1961 0.98558,0.39652 1.48844,0.60129 0.74358,0.29962 1.47976,0.5939 2.17642,0.87057 0.79458,0.31518 1.53765,0.60792 2.18204,0.85731 1.10364,0.42764 1.91581,0.72981 2.19886,0.81065 0.93254,0.29223 1.00853,0.11271 0.52122,-0.34834 -0.23868,-0.22593 -0.61276,-0.51918 -1.08757,-0.85782 -0.33609,-0.23945 -0.72267,-0.50159 -1.14725,-0.77852 -0.3649,-0.23766 -0.75811,-0.48654 -1.17172,-0.74103 -0.38072,-0.23434 -0.77877,-0.47352 -1.1883,-0.71374 -0.39219,-0.23 -0.79458,-0.46129 -1.20233,-0.68978 -0.40239,-0.22566 -0.80937,-0.4488 -1.21635,-0.666053 -0.41208,-0.220065 -0.8239,-0.43401 -1.23037,-0.638775 -0.42381,-0.213435 -0.8415,-0.41667 -1.24695,-0.605625 -0.43962,-0.204765 -0.86471,-0.39321 -1.26837,-0.559725 -0.48578,-0.20145 -0.98073,-0.40035 -1.4841,-0.59619 -0.49062,-0.190995 -0.98966,-0.37944 -1.49609,-0.564825 -0.49521,-0.181305 -0.99781,-0.36006 -1.50705,-0.53601 -0.49903,-0.172635 -1.0047,-0.342465 -1.51623,-0.50949 -0.50235,-0.163965 -1.01056,-0.325125 -1.52413,-0.48348 -0.50567,-0.15606 -1.01643,-0.309315 -1.53179,-0.459765 -0.50821,-0.14841 -1.02127,-0.29427 -1.53816,-0.43707 -0.51076,-0.14127 -1.02561,-0.27948 -1.54428,-0.41514 -0.51306,-0.13413 -1.02994,-0.26571 -1.549889,-0.39423 -0.51535,-0.1275 -1.03402,-0.251942 -1.5555,-0.373577 -0.51714,-0.12087 -1.03708,-0.23868 -1.55932,-0.353685 -0.51893,-0.11424 -1.0404,-0.22542 -1.56392,-0.333795 -0.52096,-0.107865 -1.04371,-0.21267 -1.56799,-0.31467 -0.52275,-0.10149 -1.04678,-0.19992 -1.57208,-0.29529 -0.52402,-0.09512 -1.04907,-0.18717 -1.57513,-0.276165 -0.5253,-0.08874 -1.05137,-0.17442 -1.57794,-0.256785 -0.44906,-0.06681 -1.005723,-0.13005 -1.654188,-0.18921 -0.50133,-0.04615 -1.05723,-0.08976 -1.660305,-0.13107 -0.52071,-0.0357 -1.0761,-0.06987 -1.66209,-0.102 -0.530655,-0.02933 -1.086045,-0.05712 -1.662855,-0.08339 -0.537285,-0.02423 -1.09293,-0.04717 -1.66413,-0.06885 -0.54162,-0.0204 -1.097265,-0.03978 -1.664385,-0.05814 -0.54519,-0.01734 -1.100835,-0.03366 -1.66464,-0.0487 -0.54774,-0.01479 -1.103385,-0.02831 -1.664895,-0.0408 -0.550035,-0.01224 -1.10568,-0.02346 -1.664895,-0.03366 -0.552075,-0.0099 -1.10772,-0.01887 -1.664895,-0.02678 -0.554115,-0.0076 -1.109505,-0.01403 -1.664895,-0.01964 -0.555645,-0.0051 -1.11129,-0.0097 -1.66515,-0.013 -0.557685,-0.0034 -1.113585,-0.0059 -1.66566,-0.0068 -0.55947,-8.5e-4 -1.11537,-8.5e-4 -1.665405,2.55e-4 0,0 0,0 0,0"
     style="stroke-width:0.423055" />
  <path
     id="path2236"
     d="m 11.9476,67.679463 c -0.34884,0 -0.843846,0.08976 -1.340153,0.22338 -0.466675,0.12546 -0.9345239,0.289425 -1.2830579,0.45339 -0.415063,0.204 -0.794962,0.461805 -1.135311,0.762195 -0.343332,0.302685 -0.646425,0.64872 -0.904689,1.025865 -0.257856,0.37689 -0.471036,0.784635 -0.634924,1.21176 -0.163557,0.42636 -0.278001,0.8721 -0.338768,1.325745 -0.06052,0.45237 -0.06775,0.912135 -0.01726,1.36833 0.04998,0.450585 0.156366,0.897345 0.323519,1.32906 0.25398,0.67116 0.726061,1.33518 1.432386,2.00736 0.523795,0.49878 1.176264,1.001385 1.9647999,1.516995 0.627734,0.41004 1.34181,0.82773 2.145086,1.25613 0.477844,0.245565 0.920346,0.49368 1.324215,0.74052 0.472107,0.288405 0.891403,0.57528 1.252687,0.855015 0.468231,0.362865 0.838797,0.713745 1.099892,1.04142 0.433117,0.54315 0.565003,1.021785 0.341955,1.3821 -0.275298,0.42534 -0.698598,0.510255 -1.147347,0.28101 -0.309825,-0.158355 -0.631788,-0.46665 -0.925523,-0.91596 -0.380766,-0.592365 -0.972978,-1.05723 -1.353693,-1.05723 -0.482919,0 -1.118787,0.29631 -1.653037,0.69411 -0.589076,0.438345 -1.054859,0.999345 -1.054859,1.42086 0,0.36108 0.184748,0.804527 0.488274,1.262252 0.23307,0.35139 0.536138,0.71145 0.879368,1.048815 0.324487,0.31875 0.684853,0.61761 1.05598,0.870315 0.402875,0.27438 0.818448,0.49419 1.214616,0.62628 0.418736,0.139485 0.849737,0.212925 1.28316,0.227715 0.433628,0.01479 0.869652,-0.02907 1.298205,-0.124695 0.421796,-0.09384 0.836375,-0.237405 1.234277,-0.42381 0.392521,-0.18411 0.768876,-0.40953 1.120011,-0.670395 0.350217,-0.25959 0.675469,-0.55437 0.966654,-0.876945 0.29376,-0.32538 0.552865,-0.679575 0.768034,-1.055445 0.217821,-0.38046 0.390686,-0.783107 0.509082,-1.200797 0.118295,-0.417435 0.182198,-0.849915 0.182198,-1.2903 0,-0.51255 -0.09797,-1.022805 -0.294347,-1.53255 -0.175588,-0.455685 -0.429823,-0.910605 -0.76298,-1.366035 -0.286569,-0.391935 -0.631508,-0.784125 -1.035071,-1.177335 -0.350727,-0.3417 -0.745722,-0.684165 -1.18524,-1.02765 -0.389512,-0.30447 -0.814087,-0.60996 -1.273623,-0.916725 -0.414732,-0.276675 -0.857947,-0.554625 -1.329672,-0.83334 -0.46999,-0.2703 -0.899104,-0.52683 -1.28775,-0.769845 -0.476059,-0.29784 -0.891403,-0.575535 -1.246797,-0.83436 -0.495286,-0.360825 -0.873936,-0.684675 -1.137631,-0.974865 -0.505053,-0.55539 -0.588413,-0.986595 -0.261885,-1.31325 0.38074,-0.380715 0.676744,-0.2958 1.269033,0.21165 0.576835,0.53091 1.103283,0.74664 1.682388,0.647955 0.482715,-0.08211 1.002226,-0.382755 1.617669,-0.901935 0.973003,-0.846345 1.057561,-1.09956 0.634516,-1.945905 -0.193825,-0.341955 -0.498295,-0.68697 -0.869499,-1.00878 -0.323059,-0.27999 -0.69666,-0.54213 -1.091833,-0.76908 -0.392904,-0.22593 -0.807152,-0.416925 -1.214336,-0.5559 -0.45877,-0.15657 -0.908565,-0.247095 -1.308762,-0.247095 0,0 0,0 0,0"
     style="stroke-width:0.423055" />
  <path
     id="path2234"
     d="m 122.30025,66.872133 c -0.43528,0.1224 -0.91239,0.5253 -1.41576,1.23012 -0.20068,0.27999 -0.46461,0.715275 -0.77341,1.266075 -0.21497,0.383775 -0.45161,0.82365 -0.7038,1.305855 -0.21548,0.41208 -0.44217,0.85527 -0.67626,1.321155 -0.2142,0.426615 -0.43478,0.8721 -0.65867,1.33008 -0.21292,0.435795 -0.42891,0.883065 -0.64515,1.3362 -0.21165,0.443445 -0.42355,0.8925 -0.63316,1.34181 -0.21063,0.45033 -0.41897,0.90117 -0.62271,1.34691 -0.2091,0.45798 -0.41361,0.910605 -0.61047,1.35252 -0.20834,0.467415 -0.40851,0.92259 -0.59696,1.358895 -0.20833,0.481695 -0.40264,0.94044 -0.57859,1.36629 -0.21114,0.511785 -0.39627,0.97665 -0.54749,1.37904 -0.25092,0.667845 -0.40927,1.16331 -0.44166,1.413975 -0.16932,1.269392 -0.0849,1.692182 0.46538,1.904087 0.46078,0.1785 0.93228,0.1581 1.41805,-0.06069 0.37766,-0.17034 0.76373,-0.460785 1.16025,-0.87108 0.29912,-0.309827 0.6041,-0.687992 0.91571,-1.134497 0.255,-0.365415 0.51433,-0.77673 0.77851,-1.23369 0.2958,-0.517395 0.58625,-1.00878 0.84278,-1.4331 0.47736,-0.78999 0.83691,-1.3464 0.89199,-1.40148 0.0576,-0.05737 0.0564,0.763215 -0.003,2.02419 -0.0283,0.595935 -0.0694,1.290045 -0.12368,2.03694 -0.0298,0.505155 -0.0564,0.950642 -0.0778,1.344362 -0.0293,0.537285 -0.0495,0.978945 -0.0566,1.345635 -0.013,0.633675 0.0122,1.04397 0.0938,1.339005 0.12928,0.467925 0.4006,0.64515 0.88689,0.96288 0.63444,0.38097 1.39587,0.635205 1.734,0.508215 0.0943,-0.03621 0.42381,-0.552075 0.90525,-1.38618 0.23766,-0.411825 0.51229,-0.90117 0.81396,-1.44891 0.24837,-0.45033 0.51484,-0.94044 0.79407,-1.45911 0.25194,-0.467927 0.51408,-0.959312 0.78234,-1.465742 0.25347,-0.47838 0.51255,-0.97053 0.77367,-1.46982 0.25449,-0.48654 0.51102,-0.97971 0.76627,-1.473645 0.25526,-0.493935 0.50949,-0.988635 0.75914,-1.47798 0.25627,-0.50184 0.50796,-0.997815 0.75148,-1.48155 0.25781,-0.511785 0.50694,-1.009545 0.74282,-1.48563 0.26137,-0.52734 0.50668,-1.02816 0.73032,-1.49175 0.27157,-0.56202 0.51127,-1.069215 0.70915,-1.50246 0.38276,-0.83691 0.60971,-1.39689 0.60971,-1.541475 0,-0.211395 -0.59211,-0.676515 -1.31121,-1.05723 -0.58523,-0.29274 -0.99654,-0.45084 -1.38516,-0.358275 -0.34629,0.08262 -0.67448,0.36414 -1.09115,0.926925 -0.23281,0.314415 -0.49291,0.71655 -0.79942,1.22094 -0.22134,0.363885 -0.46665,0.78081 -0.74307,1.256385 0,0 -0.3491,0.623985 -0.69794,1.24797 -0.34909,0.62424 -0.69819,1.248225 -0.69819,1.248225 0,0 -0.0107,-0.68748 -0.0214,-1.375215 -0.0107,-0.68748 -0.0214,-1.37496 -0.0214,-1.37496 -0.004,-0.573495 -0.0219,-1.11384 -0.0536,-1.620015 -0.0362,-0.583695 -0.0903,-1.122 -0.16065,-1.612365 -0.0862,-0.6018 -0.19686,-1.13169 -0.3292,-1.5861 -0.18666,-0.64056 -0.41667,-1.13067 -0.68213,-1.459365 -0.3366,-0.41667 -0.73006,-0.57477 -1.1656,-0.45237 0,0 0,0 0,0"
     style="stroke-width:0.423055" />
  <path
     id="path2232"
     d="m 21.614191,64.363953 c -0.274992,-0.02626 -0.613479,0.10047 -1.205768,0.354195 -0.668406,0.26724 -1.112539,0.508725 -1.358053,0.90168 -0.226593,0.36261 -0.283994,0.854505 -0.192372,1.614915 0.0533,0.442425 0.157207,0.97563 0.307581,1.627665 0.10863,0.470985 0.241536,1.003935 0.397162,1.60905 0.116663,0.45849 0.256224,0.989145 0.411978,1.567485 0.132422,0.49164 0.276522,1.017705 0.428222,1.562895 0.141117,0.507195 0.288736,1.03122 0.439492,1.55958 0.147875,0.518415 0.298758,1.04091 0.449514,1.55652 0.154811,0.529635 0.309519,1.05162 0.460658,1.55397 0.164092,0.54519 0.323952,1.06692 0.475192,1.54938 0.155295,0.51918 0.29603,0.99093 0.426207,1.419075 0.1632,0.536775 0.309851,1.00521 0.447857,1.412445 0.193902,0.57222 0.37077,1.023315 0.552712,1.373175 0.299447,0.576045 0.612612,0.87771 1.038054,0.992972 0.377579,0.102255 0.843795,0.05788 1.467015,-0.07165 0.40698,-0.08466 0.881025,-0.20553 1.441005,-0.34578 0.508725,-0.13668 0.97614,-0.273615 1.40301,-0.410805 0.516885,-0.16626 0.9741,-0.332775 1.373175,-0.500565 0.534225,-0.2244 0.963645,-0.45084 1.29081,-0.68034 0.53601,-0.375615 0.797895,-0.759645 0.797895,-1.157955 0,-0.73338 -0.34017,-1.15872 -1.091655,-1.29591 -0.46206,-0.08415 -1.08018,-0.05967 -1.86966,0.06936 0,0 -1.607775,0.25398 -1.607775,0.25398 0,0 -0.338385,-1.089615 -0.67677,-2.178975 0,0 -0.67677,-2.178975 -0.67677,-2.178975 -0.154785,-0.51255 -0.30396,-1.003935 -0.44778,-1.475175 -0.156825,-0.5151 -0.30753,-1.005975 -0.45186,-1.473645 -0.159936,-0.51867 -0.3124,-1.00878 -0.457725,-1.471605 -0.164398,-0.52377 -0.319668,-1.01235 -0.466522,-1.468545 -0.171233,-0.531675 -0.331016,-1.019235 -0.480395,-1.46523 -0.182809,-0.5457 -0.350064,-1.029435 -0.503752,-1.456815 -0.207443,-0.577065 -0.390176,-1.05162 -0.553095,-1.4382 -0.306714,-0.727515 -0.543201,-1.143165 -0.742331,-1.34232 -0.338436,-0.35955 -0.550264,-0.539325 -0.825256,-0.565845 0,0 0,0 0,0"
     style="stroke-width:0.423055" />
  <path
     id="path2230"
     d="m 103.43025,60.514983 c -0.51918,0.064 -0.93228,0.44013 -1.20258,1.11537 -0.13362,0.349095 -0.28407,0.82824 -0.44523,1.405305 -0.11908,0.426105 -0.24403,0.906015 -0.37204,1.42647 -0.11144,0.450585 -0.22517,0.93177 -0.33992,1.43514 -0.10557,0.46308 -0.21216,0.945285 -0.31824,1.439475 -0.10098,0.472005 -0.2017,0.95523 -0.30115,1.444065 -0.0972,0.47838 -0.19304,0.962115 -0.28637,1.446105 -0.0936,0.484755 -0.184869,0.969765 -0.272849,1.449675 -0.09,0.49113 -0.17646,0.97716 -0.25806,1.45197 -0.0862,0.499545 -0.16702,0.986595 -0.24148,1.45503 -0.0814,0.51102 -0.15479,0.999855 -0.2193,1.45809 -0.075,0.534225 -0.13745,1.026375 -0.18488,1.46319 -0.0663,0.610725 -0.10302,1.11333 -0.10302,1.47033 0,0.85476 0.0102,1.30866 0.21803,1.600125 0.21394,0.300135 0.63724,0.427635 1.474409,0.64209 0.93049,0.25398 1.86124,0.380715 2.07289,0.25398 0.13515,-0.08134 0.49445,-0.766275 0.92438,-1.714365 0.24276,-0.535755 0.50821,-1.155405 0.76806,-1.79724 0.31135,-0.744345 0.63724,-1.51011 0.93661,-2.19555 0.43223,-0.989655 0.80912,-1.81203 1.00904,-2.16189 0,0 0.6352,-1.057485 0.6352,-1.057485 0,0 -0.21165,1.269135 -0.21165,1.269135 -0.0495,0.39219 -0.16957,1.211505 -0.31977,2.16036 -0.10863,0.68748 -0.23281,1.4433 -0.35725,2.15475 -0.0836,0.54009 -0.14867,1.024845 -0.1938,1.46013 -0.0589,0.569925 -0.0834,1.05519 -0.0701,1.47033 0.0196,0.612765 0.12164,1.072275 0.31671,1.42494 0.23537,0.425595 0.60614,0.69513 1.13169,0.89046 0.50082,0.19278 0.95166,0.247095 1.39638,0.09741 0.37281,-0.125715 0.74154,-0.39474 1.1322,-0.8466 0.26189,-0.30294 0.53372,-0.688245 0.8234,-1.16739 0.21904,-0.3621 0.44803,-0.77775 0.69054,-1.25205 0.1989,-0.38811 0.40672,-0.815745 0.62577,-1.285455 0.18768,-0.4029 0.38352,-0.836655 0.58854,-1.303305 0.18105,-0.411825 0.36924,-0.84915 0.56559,-1.31325 0.17671,-0.417945 0.36006,-0.85782 0.55054,-1.31988 0.17391,-0.422535 0.35369,-0.86343 0.53984,-1.32396 0.17212,-0.425595 0.3496,-0.867765 0.53295,-1.327275 0.18768,-0.47379 0.36235,-0.91545 0.52453,-1.327275 0.18998,-0.48297 0.36287,-0.92514 0.51893,-1.330335 0.19201,-0.498525 0.35904,-0.94146 0.50235,-1.3362 0.19354,-0.532695 0.34374,-0.97767 0.45441,-1.353285 0.18742,-0.63801 0.2601,-1.07508 0.23358,-1.400715 -0.0431,-0.526065 -0.34476,-0.76041 -0.83768,-1.078395 -0.59236,-0.423045 -1.39612,-0.63495 -1.73425,-0.46563 -0.23945,0.07981 -0.74639,0.778005 -1.31096,1.75848 -0.33303,0.57936 -0.6862,1.257405 -1.01592,1.964265 0,0 -0.42355,0.87822 -0.84685,1.756185 -0.42279,0.877455 -0.84558,1.755165 -0.84558,1.755165 0,0 0.21165,-2.538015 0.21165,-2.538015 0.0745,-0.61506 0.14892,-1.29591 0.21955,-1.926525 0.0903,-0.800955 0.17468,-1.52133 0.24557,-1.923465 0.11628,-0.678555 -0.025,-1.33059 -0.32615,-1.817385 -0.35598,-0.575535 -0.93559,-0.92055 -1.57717,-0.8058 -0.24276,0.05406 -0.77699,0.742815 -1.39511,1.749555 -0.35266,0.57426 -0.73236,1.25154 -1.10134,1.9737 -0.23996,0.47022 -0.45059,0.8874 -0.63368,1.24644 -0.28254,0.554115 -0.4998,0.970275 -0.65968,1.231905 -0.34196,0.55947 -0.42228,0.41259 -0.31901,-0.606135 0.0362,-0.35445 0.0944,-0.81447 0.17162,-1.386945 0.0546,-0.404685 0.11857,-0.86547 0.19099,-1.384905 0.0587,-0.422535 0.12317,-0.883575 0.19253,-1.384905 0.0752,-0.61608 0.11296,-1.06692 0.10174,-1.4127 -0.0199,-0.62781 -0.20043,-0.91035 -0.6097,-1.210485 -0.59415,-0.43554 -1.13246,-0.620925 -1.58942,-0.564825 0,0 0,0 0,0"
     style="stroke-width:0.423055" />
  <path
     id="path2228"
     d="m 84.222632,71.670723 c -0.0042,0.06732 -0.013,0.129285 -0.01734,0.19686 -0.02933,0.51714 -0.05355,0.97053 -0.0714,1.37088 -0.02448,0.54774 -0.03698,0.99603 -0.03366,1.37241 0.0051,0.598485 0.04947,1.0149 0.14994,1.360425 0.126225,0.43401 0.340425,0.75582 0.67422,1.184985 0.33048,0.410295 0.7191,0.77112 1.157955,1.079925 0.422535,0.297075 0.89148,0.5457 1.39944,0.74307 0.477614,0.18513 0.989654,0.32487 1.530004,0.416415 0.50413,0.08568 1.033,0.129285 1.58151,0.129285 0.5434,0 1.02561,-0.02295 1.45707,-0.07446 0.54621,-0.06503 1.01082,-0.175695 1.41397,-0.34221 0.46844,-0.194055 0.85425,-0.46359 1.18958,-0.825435 0.3009,-0.325125 0.56151,-0.724965 0.80478,-1.21125 0.1887,-0.3774 0.37612,-0.858585 0.55743,-1.41678 0.14407,-0.44421 0.28407,-0.93738 0.41769,-1.46574 0.1,-0.39576 0.19329,-0.818295 0.28177,-1.2546 0.0836,-0.41208 0.1632,-0.83691 0.24021,-1.26378 0,0 -0.8239,0 -1.83421,0 -0.59007,0 -1.24389,0 -1.83422,0 -1.01005,0 -1.83396,0 -1.83396,0 -0.13489,0.702525 -0.27081,1.41372 -0.41539,2.00124 -0.12368,0.50133 -0.24888,0.948345 -0.37205,1.31937 -0.2374,0.715275 -0.46741,1.14954 -0.66453,1.14954 -0.44395,0 -0.70584,-0.745875 -0.76194,-1.950495 -0.0298,-0.63291 -0.003,-1.39281 0.0852,-2.238135 0.009,-0.07523 0.0314,-0.20196 0.0418,-0.281265 0,0 -0.77035,0 -1.714619,0 -0.55182,0 -1.1628,0 -1.71462,0 -0.944265,0 -1.71462,-2.55e-4 -1.71462,-2.55e-4"
     style="stroke-width:0.423055" />
  <path
     id="path2226"
     d="m 84.222632,71.670723 c 0,0 0.770355,0 1.71462,0 0.55182,0 1.1628,0 1.71462,0 0.944269,0 1.714619,0 1.714619,0 0.0602,-0.45645 0.13184,-0.96492 0.21369,-1.51266 0.0714,-0.476595 0.15045,-0.98277 0.23664,-1.509855 0.089,-0.54519 0.18258,-1.10109 0.27719,-1.647555 0.0979,-0.5661 0.19711,-1.122 0.2935,-1.644495 0.11093,-0.60282 0.21828,-1.161525 0.31544,-1.64067 0.17977,-0.885105 0.32538,-1.499145 0.39831,-1.620525 0.42279,-0.67677 0.93049,-0.33813 1.14189,0.71961 0.0637,0.344505 0.0915,0.81192 0.0895,1.366035 -0.002,0.4131 -0.0199,0.874905 -0.052,1.36986 -0.0281,0.43299 -0.0671,0.891735 -0.115,1.366035 -0.0449,0.44319 -0.0977,0.899895 -0.15708,1.3617 -0.0579,0.450075 -0.12189,0.90474 -0.191,1.35711 -0.0696,0.456195 -0.14433,0.909585 -0.22287,1.352775 -0.0439,0.247605 -0.0954,0.44319 -0.14127,0.682635 0,0 0.82391,0 1.83396,0 0.59033,0 1.24415,0 1.83422,0 1.01031,0 1.83421,0 1.83421,0 0.0293,-0.162435 0.0688,-0.3009 0.0966,-0.46563 0.0834,-0.49623 0.15963,-1.00113 0.22695,-1.50705 0.0673,-0.505665 0.12622,-1.01286 0.17493,-1.513935 0.05,-0.515355 0.0898,-1.024335 0.11704,-1.5198 0.0293,-0.526575 0.0449,-1.03734 0.0449,-1.52337 0,-0.982515 -0.053,-1.8054 -0.17646,-2.5041 -0.17161,-0.9741 -0.48016,-1.70493 -0.97104,-2.286075 -0.49113,-0.5814 -1.16484,-1.01235 -2.06805,-1.38618 -0.42534,-0.17442 -0.9996,-0.30957 -1.63659,-0.403155 -0.53371,-0.07854 -1.11129,-0.127755 -1.68223,-0.146625 -0.58829,-0.01938 -1.16969,-0.0059 -1.68836,0.04029 -0.70839,0.0635 -1.30024,0.19023 -1.634294,0.38301 -0.31314,0.18462 -0.62016,0.52887 -0.91494,1.011075 -0.21012,0.34374 -0.41412,0.75735 -0.60945,1.23318 -0.160905,0.391425 -0.315945,0.824925 -0.464355,1.296165 -0.130305,0.413865 -0.255255,0.856545 -0.37383,1.32498 -0.10812,0.426615 -0.21114,0.87465 -0.30855,1.342065 -0.09052,0.434775 -0.176205,0.88638 -0.256275,1.35303 -0.07573,0.44064 -0.146625,0.894795 -0.212415,1.360425 -0.06273,0.44523 -0.12036,0.90117 -0.173145,1.36629 -0.04692,0.415905 -0.08874,0.84048 -0.126225,1.271685 -0.03647,0.41922 -0.0686,0.84456 -0.09741,1.273725 0,0 0,0 0,0"
     style="stroke-width:0.423055" />
  <path
     id="path2224"
     d="m 69.340067,71.670723 c -0.01555,0.48246 -0.03187,0.98889 -0.04845,1.49481 -0.01632,0.506685 -0.03264,1.013115 -0.0482,1.494555 -0.01785,0.554115 -0.03494,1.07457 -0.04947,1.52286 -0.02958,0.90933 -0.04972,1.52286 -0.04972,1.52286 0,0 1.015665,0.25398 1.015665,0.25398 0.375105,0.09996 0.85578,0.17034 1.39995,0.21369 0.438345,0.03468 0.917745,0.05177 1.417035,0.05228 0.461295,5.1e-4 0.93942,-0.01326 1.41729,-0.04004 0.477105,-0.02678 0.9537,-0.06681 1.412955,-0.11883 0.4947,-0.0561 0.969255,-0.126225 1.4025,-0.20961 0.53142,-0.102 1.000875,-0.223635 1.369095,-0.362865 0.49572,-0.188445 0.924375,-0.38709 1.29489,-0.620925 0.421515,-0.265965 0.76755,-0.57681 1.05111,-0.969255 0.25602,-0.35445 0.46104,-0.775455 0.62373,-1.289535 0.12852,-0.405195 0.230775,-0.86853 0.31161,-1.40301 0.06375,-0.423045 0.08466,-1.02204 0.12393,-1.540965 0,0 -0.783105,0 -1.742925,0 -0.561,0 -1.18218,0 -1.74318,0 -0.95982,0 -1.742925,0 -1.742925,0 -0.10149,0.8007 -0.211905,1.486905 -0.333795,1.805145 -0.380715,0.97257 -1.39638,1.31121 -1.81917,0.59211 -0.07803,-0.122655 -0.06987,-1.12557 -0.02856,-2.397255 0,0 -0.783615,0 -1.744455,0 -0.561255,0 -1.1832,0 -1.744455,0 -0.96084,0 -1.744455,0 -1.744455,0"
     style="stroke-width:0.423055" />
  <path
     id="path2222"
     d="m 69.340067,71.670723 c 0,0 0.783615,0 1.744455,0 0.561255,0 1.1832,0 1.744455,0 0.96084,0 1.744455,0 1.744455,0 0.0094,-0.28458 0.0085,-0.48552 0.02193,-0.80274 0.02168,-0.50439 0.04845,-1.044225 0.07905,-1.601145 0.02856,-0.52326 0.06069,-1.06182 0.09537,-1.60038 0.03442,-0.538305 0.0714,-1.076865 0.109905,-1.59987 0.0408,-0.556155 0.08313,-1.095225 0.126225,-1.598595 0.04998,-0.59109 0.10098,-1.132965 0.150195,-1.5963 0.09257,-0.867 0.18003,-1.458345 0.249645,-1.580235 0.32232,-0.483225 0.730065,-0.40392 1.071255,0.09741 0.196095,0.28815 0.370515,0.71604 0.49419,1.256385 0.0737,0.287385 0.121635,0.759645 0.1479,1.351245 0.01811,0.40494 0.02576,0.86547 0.02423,1.36119 -8.5e-4,0.431715 -0.0092,0.890205 -0.02321,1.361445 -0.01351,0.445995 -0.03213,0.903465 -0.05584,1.360425 -0.02346,0.457215 -0.05177,0.914175 -0.08415,1.35864 -0.03417,0.47073 -0.07318,0.92769 -0.115515,1.3566 -0.03289,0.330735 -0.07267,0.58497 -0.10965,0.875925 0,0 0.783105,0 1.742925,0 0.561,0 1.18218,0 1.742925,0 0.960075,0 1.74318,0 1.74318,0 0.03366,-0.44625 0.08874,-0.799425 0.1071,-1.325745 0.01555,-0.448035 0.02626,-0.92667 0.03289,-1.4382 0.0059,-0.45288 0.0085,-0.93177 0.0085,-1.438455 0.01046,-0.80682 0.0076,-1.610835 -0.0042,-2.373795 -0.01351,-0.8619 -0.04004,-1.67127 -0.07421,-2.37252 -0.05763,-1.18473 -0.1377,-2.06142 -0.217515,-2.3613 -0.119085,-0.454665 -0.396015,-0.86496 -0.819315,-1.22859 -0.33558,-0.288405 -0.76296,-0.547485 -1.27704,-0.776475 -0.41616,-0.185385 -0.88842,-0.35088 -1.414485,-0.49623 -0.44931,-0.12393 -0.93789,-0.23307 -1.4637,-0.327165 -0.465885,-0.08313 -0.96135,-0.15453 -1.48461,-0.213435 -0.47532,-0.0538 -0.973845,-0.09741 -1.4943,-0.13056 0,0 -0.90933,-0.05355 -1.818915,-0.10608 -0.90933,-0.05304 -1.81917,-0.105825 -1.81917,-0.105825 0,0 -0.25398,1.226805 -0.25398,1.226805 -0.04462,0.17748 -0.0918,0.629085 -0.14025,1.28928 -0.02729,0.370005 -0.05508,0.805545 -0.08288,1.295145 -0.02295,0.39831 -0.04565,0.83232 -0.06834,1.29591 -0.02014,0.410295 -0.04003,0.843795 -0.06018,1.29642 -0.01836,0.41718 -0.03672,0.850425 -0.05508,1.296675 -0.01709,0.42177 -0.03417,0.85527 -0.051,1.297185 -0.01606,0.425085 -0.03187,0.85833 -0.04743,1.29693 -0.01505,0.42789 -0.03009,0.861135 -0.04488,1.29744 0,0 -0.01964,0.61353 -0.04922,1.522605 -0.01453,0.448545 -0.03136,0.969 -0.04922,1.52337 -5.1e-4,0.01836 -0.0017,0.03851 -0.0017,0.05661 0,0 0,0 0,0"
     style="stroke-width:0.423055" />
  <path
     id="path2220"
     d="m 54.297107,71.670723 c 0.100725,0.427125 0.1377,0.715275 0.27489,1.209975 0.12087,0.435795 0.252705,0.886635 0.388875,1.33263 0.138465,0.452625 0.28152,0.90015 0.42279,1.32192 0.160905,0.47889 0.319515,0.92463 0.466905,1.306875 0.247605,0.642345 0.46308,1.10517 0.602565,1.244655 0.33864,0.296055 1.18422,0.59211 1.861245,0.59211 0.55947,0 0.97665,-0.10608 1.28775,-0.48807 0.22389,-0.27489 0.392955,-0.692835 0.520455,-1.31733 0.07931,-0.3876 0.142545,-0.854505 0.19329,-1.416015 0.03774,-0.42024 0.0686,-0.893775 0.09359,-1.42647 0.03162,-0.66759 0.04972,-1.493535 0.06579,-2.360025 0,0 -0.92514,0 -2.05938,0 -0.662745,0 -1.396635,0 -2.05938,0 -1.13424,0 -2.05938,-2.55e-4 -2.05938,-2.55e-4"
     style="stroke-width:0.423055" />
  <path
     id="path2218"
     d="m 46.955402,71.670723 c 0.04488,0.200175 0.08976,0.41361 0.134385,0.609705 0.11628,0.511785 0.23103,1.009035 0.34272,1.4841 0.12342,0.52428 0.243015,1.021275 0.35649,1.480785 0.136425,0.55182 0.26418,1.04958 0.379695,1.475175 0.194055,0.716805 0.35292,1.2291 0.45747,1.45095 0.36261,0.767295 1.068705,1.21227 1.826055,1.302795 0.74613,0.08951 1.54173,-0.16524 2.108595,-0.795345 0.238935,-0.27285 0.42279,-0.621435 0.570945,-1.14852 0.09537,-0.339405 0.176205,-0.753015 0.24735,-1.268115 0.05126,-0.372045 0.09767,-0.79713 0.14076,-1.285455 0.03442,-0.38811 0.06681,-0.81651 0.09843,-1.28979 0.05049,-0.66963 0.10149,-1.282395 0.14739,-1.80387 0.01326,-0.152235 0.01122,-0.0765 0.02371,-0.212415 0,0 -1.023315,0 -2.277915,0 -0.733125,0 -1.545045,0 -2.27817,0 -1.2546,0 -2.277915,0 -2.277915,0"
     style="stroke-width:0.423055" />
  <path
     id="path2216"
     d="m 46.955402,71.670723 c 0,0 1.023315,0 2.277915,0 0.733125,0 1.545045,0 2.27817,0 1.2546,0 2.277915,0 2.277915,0 0.08849,-0.956505 0.167535,-1.70289 0.167535,-1.495065 0.03876,0.326145 0.215475,0.967215 0.34017,1.495065 0,0 0.92514,0 2.05938,0 0.662745,0 1.396635,0 2.05938,0 1.13424,0 2.05938,0 2.05938,0 0.0034,-0.18258 0.01096,-0.305235 0.01403,-0.497505 0.0068,-0.449565 0.01173,-0.92565 0.01606,-1.429785 0.0034,-0.45339 0.0068,-0.929475 0.0089,-1.42953 0.0025,-0.50133 0.0034,-0.978945 0.0042,-1.433865 0,-0.505665 -0.0017,-0.98328 -0.0051,-1.434375 -0.0042,-0.511275 -0.0099,-0.98838 -0.01862,-1.43361 -0.01045,-0.520455 -0.02473,-0.99705 -0.04335,-1.43361 -0.02269,-0.53499 -0.05228,-1.0098 -0.08976,-1.43106 -0.05024,-0.564315 -0.11475,-1.03224 -0.197115,-1.419585 -0.132345,-0.625005 -0.309825,-1.040145 -0.5457,-1.3107 -0.31824,-0.36516 -0.74256,-0.467415 -1.304325,-0.467415 -0.761685,0 -1.31121,0.253725 -1.522605,0.7191 -0.104295,0.2601 -0.22491,1.079925 -0.331245,2.12568 -0.06655,0.654585 -0.127755,1.397655 -0.176715,2.1471 0,0 -0.0635,0.87771 -0.12699,1.755675 -0.06375,0.877965 -0.12699,1.755675 -0.12699,1.755675 0,0 -0.232815,-0.90984 -0.465375,-1.819425 -0.23256,-0.909585 -0.46563,-1.818915 -0.46563,-1.818915 -0.1326,-0.49929 -0.254235,-0.94605 -0.3672,-1.34487 -0.14841,-0.522495 -0.28254,-0.96288 -0.409785,-1.33212 -0.20145,-0.585735 -0.384795,-0.99246 -0.578085,-1.26327 -0.332265,-0.46614 -0.693345,-0.531165 -1.225275,-0.41718 -0.572985,0.10608 -1.02918,0.74409 -1.346655,1.877565 -0.179265,0.64005 -0.313905,1.43769 -0.40086,2.3868 -0.0663,0.720375 -0.10506,1.527705 -0.11424,2.41944 0,0 -0.02091,1.798005 -0.02091,1.798005 -0.01045,0.899385 -0.02091,1.798515 -0.02091,1.798515 0,0 -0.40188,-1.904085 -0.40188,-1.904085 -0.20094,-0.95166 -0.40188,-1.903575 -0.40188,-1.903575 -0.197115,-0.94248 -0.3672,-1.732725 -0.522495,-2.393685 -0.258825,-1.09854 -0.47838,-1.840845 -0.72216,-2.33631 -0.459255,-0.931515 -1.004445,-0.98838 -2.0553,-0.896835 -1.22706,0.08466 -1.607775,0.338895 -1.692435,1.01541 -0.02703,0.182835 0.03341,0.72471 0.157335,1.51266 0.06783,0.43248 0.154785,0.93942 0.25704,1.50144 0.08441,0.46461 0.179265,0.96696 0.28203,1.49685 0.09282,0.47838 0.192015,0.978945 0.296055,1.494045 0.09843,0.486795 0.20094,0.98634 0.30651,1.49226 0.102765,0.49266 0.20808,0.99144 0.31518,1.489965 0.172125,0.801975 0.34833,1.588905 0.522495,2.365125 0,0 0,0 0,0"
     style="stroke-width:0.423055" />
  <path
     id="path2214"
     d="m 31.228022,71.670723 c 0.013,0.06043 0.01785,0.09588 0.03137,0.15759 0.08644,0.39627 0.18054,0.818295 0.282285,1.268625 0.09027,0.39933 0.186915,0.8211 0.289425,1.26684 0.109395,0.46002 0.211395,0.88434 0.30753,1.27602 0.11526,0.468435 0.222105,0.89046 0.324105,1.27194 0.12801,0.480165 0.24786,0.896325 0.365415,1.260465 0.158865,0.49215 0.313395,0.88944 0.477615,1.22094 0.22338,0.450075 0.464865,0.77877 0.761175,1.060545 0.290445,0.27642 0.633675,0.507705 1.06386,0.763725 0.425085,0.264945 0.89148,0.45594 1.382865,0.579105 0.478125,0.11985 0.979965,0.175695 1.49124,0.1734 0.49368,-0.0017 0.996285,-0.05839 1.494045,-0.1632 0.48756,-0.102765 0.970785,-0.252195 1.436925,-0.442935 0.46614,-0.19074 0.915195,-0.42279 1.33518,-0.691305 0.428145,-0.273615 0.825945,-0.585225 1.180395,-0.92922 0.3672,-0.356235 0.68748,-0.746895 0.94656,-1.16637 0.26673,-0.43146 0.46869,-0.893265 0.59007,-1.378785 0.06452,-0.25755 0.06094,-0.763215 0.0042,-1.434885 -0.0357,-0.418455 -0.0918,-0.90168 -0.164985,-1.429275 -0.05814,-0.4182 -0.12852,-0.867255 -0.207825,-1.33416 -0.07318,-0.431205 -0.153765,-0.877455 -0.239445,-1.32906 0,0 -0.818805,0 -1.822485,0 -0.5865,0 -1.235985,0 -1.822485,0 -1.003935,0 -1.822485,0 -1.822485,0 0.15096,0.756075 0.301665,1.5198 0.415905,2.210085 0.0844,0.51153 0.15606,0.991695 0.210885,1.421115 0.07522,0.590835 0.11832,1.085025 0.11832,1.43106 0,0.895305 -0.2448,1.418565 -0.569415,1.53255 -0.350115,0.12291 -0.79305,-0.23103 -1.12251,-1.10925 -0.11934,-0.308295 -0.26979,-0.83487 -0.436815,-1.501695 -0.11322,-0.451605 -0.23409,-0.96747 -0.35802,-1.52337 -0.169575,-0.759135 -0.342975,-1.613895 -0.51255,-2.460495 0,0 -0.813195,0 -1.80999,0 -0.582675,0 -1.227825,0 -1.810245,0 -0.996795,0 -1.80999,0 -1.80999,0"
     style="stroke-width:0.423055" />
  <path
     id="path2212"
     d="m 31.228022,71.670723 c 0,0 0.813195,0 1.80999,0 0.58242,0 1.22757,0 1.80999,0 0.99705,0 1.810245,0 1.810245,0 -0.04156,-0.20757 -0.08492,-0.39525 -0.12546,-0.603585 -0.101235,-0.51816 -0.19941,-1.0353 -0.29172,-1.53765 -0.09843,-0.536265 -0.190485,-1.0557 -0.272595,-1.54122 -0.09665,-0.57171 -0.179775,-1.096245 -0.24378,-1.54581 -0.120615,-0.84456 -0.17493,-1.42443 -0.128265,-1.55499 0.33864,-0.931005 1.0149,-0.67677 1.691925,0.63444 0.13974,0.26418 0.308295,0.73797 0.49011,1.348695 0.12138,0.408255 0.24888,0.877455 0.37791,1.38618 0.11169,0.44064 0.224145,0.911115 0.334815,1.397145 0.104295,0.45798 0.20706,0.929985 0.305745,1.403775 0.0436,0.21012 0.07344,0.40341 0.115515,0.61302 0,0 0.81855,0 1.822485,0 0.5865,0 1.235985,0 1.822485,0 1.00368,0 1.822485,0 1.822485,0 -0.01173,-0.06145 -0.01734,-0.112455 -0.02933,-0.174165 -0.08976,-0.46614 -0.185895,-0.939165 -0.286875,-1.410405 -0.101235,-0.472515 -0.207315,-0.9435 -0.31671,-1.40403 -0.113985,-0.4794 -0.231285,-0.947835 -0.35088,-1.39587 -0.13056,-0.489855 -0.263415,-0.95523 -0.39627,-1.383375 -0.252195,-0.77826 -0.54978,-1.488435 -0.879495,-2.113695 -0.39984,-0.75735 -0.846855,-1.390005 -1.31733,-1.86711 -0.64005,-0.648975 -1.323195,-1.011585 -1.991295,-1.011585 -0.4233,0 -1.01592,-0.08415 -1.35405,-0.16881 -0.29631,-0.08466 -1.22655,-0.04284 -2.030565,0.12648 -0.50898,0.10761 -0.959055,0.23562 -1.36221,0.393975 -0.46818,0.18411 -0.873375,0.40902 -1.2342,0.690285 -0.36108,0.281265 -0.67779,0.619395 -0.969,1.02969 -0.250665,0.35292 -0.48246,0.759135 -0.70737,1.22859 -0.20706,0.42279 -0.368475,0.805035 -0.480675,1.205385 -0.109905,0.39219 -0.17238,0.80172 -0.183855,1.28265 -0.0089,0.37893 0.01351,0.80223 0.06911,1.296675 0.0431,0.38199 0.105825,0.806565 0.188955,1.28571 0.11628,0.66963 0.28152,1.472115 0.480165,2.389605 0,0 0,0 0,0"
     style="stroke-width:0.423055" />
  <path
     id="path2210"
     d="m 74.391107,13.686248 c -0.500565,0.05151 -0.949875,0.16524 -1.31223,0.350115 -0.447015,0.235314 -0.76959,0.542563 -0.969,0.906346 -0.207825,0.379389 -0.281265,0.820233 -0.22185,1.304988 0.04896,0.398132 0.18768,0.825792 0.41565,1.273368 0.185385,0.363962 0.429675,0.741081 0.73287,1.126233 0.6426,0.792081 1.05315,1.410201 1.2291,1.863183 0.32283,0.829235 -0.13974,1.10591 -1.39842,0.887018 -0.80376,-0.169218 -1.480785,-0.211599 -1.480785,-0.08466 0,0.23409 0.51255,0.571863 1.26582,0.913435 0.43554,0.197574 0.95166,0.396423 1.49532,0.577218 0.50388,0.167433 1.031475,0.319388 1.54122,0.440487 0.56763,0.13487 1.113075,0.231489 1.578705,0.268719 0,0 2.369205,0.211676 2.369205,0.211676 0,0 -1.565445,-0.719177 -1.565445,-0.719177 -0.88842,-0.38074 -1.607775,-0.931081 -1.607775,-1.269517 0,-0.186431 0.352155,-0.540524 0.89811,-0.914507 0.321045,-0.220116 0.70941,-0.447091 1.132455,-0.650862 0.427635,-0.209839 0.81651,-0.438217 1.16229,-0.678351 0.40137,-0.278893 0.744345,-0.573648 1.021785,-0.873553 0.3468,-0.375105 0.590835,-0.758217 0.717315,-1.128503 0.159375,-0.466242 0.1326,-0.91216 -0.10914,-1.295986 -0.235365,-0.373473 -0.60639,-0.722007 -1.066665,-1.033949 -0.38607,-0.2614 -0.834615,-0.497122 -1.319115,-0.700255 -0.4488,-0.188216 -0.928455,-0.348509 -1.41729,-0.475397 -0.487815,-0.126658 -0.98481,-0.220014 -1.46931,-0.27466 -0.56967,-0.06426 -1.122,-0.07489 -1.62282,-0.02338 0,0 0,0 0,0"
     style="stroke-width:0.423055" />
</svg>
