<?xml version="1.0" standalone="no"?>
<!DOCTYPE svg PUBLIC "-//W3C//DTD SVG 20010904//EN"
 "http://www.w3.org/TR/2001/REC-SVG-20010904/DTD/svg10.dtd">
<svg version="1.0" xmlns="http://www.w3.org/2000/svg"
 width="333.000000pt" height="333.000000pt" viewBox="0 0 333.000000 333.000000"
 preserveAspectRatio="xMidYMid meet">

<g transform="translate(0.000000,333.000000) scale(0.100000,-0.100000)"
fill="#000000" stroke="none">
<path d="M1628 2793 c-36 -9 -16 -23 35 -24 l52 -1 -65 -14 c-83 -18 -170 -62
-257 -130 -128 -102 -192 -201 -251 -385 -32 -99 -86 -319 -79 -325 1 -2 25 4
52 13 31 9 90 16 156 17 106 1 107 1 185 -40 62 -32 83 -48 96 -75 19 -41 81
-99 105 -99 9 0 46 9 82 20 63 18 226 50 259 50 35 0 -4 -15 -110 -42 -62 -16
-132 -38 -155 -48 -39 -17 -43 -22 -43 -54 0 -20 -4 -36 -10 -36 -5 0 -27 24
-49 53 -22 28 -66 80 -97 115 -32 35 -49 60 -38 56 17 -6 18 -5 4 10 -34 35
-123 56 -245 56 -106 0 -121 -2 -173 -27 -66 -33 -164 -120 -182 -163 -11 -27
-10 -123 1 -169 3 -10 -30 -23 -126 -47 -196 -49 -363 -108 -498 -176 -122
-60 -232 -127 -224 -135 3 -2 94 32 203 75 380 151 594 209 819 221 110 5 120
8 123 26 8 49 13 51 42 16 24 -28 37 -35 79 -39 56 -5 84 9 74 36 -4 9 -24 43
-45 74 -40 60 -46 78 -25 78 36 0 97 -81 97 -129 0 -11 7 -26 14 -34 16 -15
40 -13 140 13 56 15 394 8 556 -10 237 -28 538 -92 712 -151 35 -12 135 -51
223 -86 210 -85 237 -95 229 -82 -11 18 -139 96 -220 134 -135 63 -209 89
-534 185 l-65 19 -48 133 c-51 143 -55 167 -33 201 8 12 17 47 21 77 8 67 -11
348 -29 435 -13 63 -51 140 -80 165 -17 14 -22 35 -6 25 18 -11 11 4 -12 25
-24 22 -133 77 -203 101 l-40 14 33 3 c17 2 32 8 32 13 0 6 -30 8 -83 3 -74
-6 -88 -4 -128 16 -81 42 -202 61 -271 43z m237 -181 c69 -43 71 -43 137 -37
63 7 69 5 110 -23 97 -68 184 -182 202 -267 7 -29 6 -29 -33 15 -22 25 -40 48
-41 53 0 16 -95 67 -126 67 -48 0 -84 -34 -84 -79 0 -50 33 -98 94 -136 141
-88 158 -114 105 -159 -196 -166 -572 -130 -779 74 -55 54 -110 145 -110 182
0 27 54 46 151 54 117 8 153 19 183 55 34 40 33 78 -1 111 -52 49 -107 47
-236 -10 -31 -14 -60 -22 -64 -18 -9 8 62 81 105 108 64 40 141 58 232 55 81
-2 89 -5 155 -45z m-235 -131 c17 -33 12 -44 -17 -36 -36 8 -47 20 -40 39 9
22 44 20 57 -3z m518 -153 c3 -13 -3 -18 -21 -18 -26 0 -52 22 -40 34 13 13
58 1 61 -16z m-582 -655 c15 -20 18 -81 5 -101 -6 -11 -10 -11 -18 0 -13 17
-33 99 -27 110 8 13 26 9 40 -9z"/>
<path d="M1780 2468 c-38 -20 -38 -62 -1 -109 43 -53 42 -73 -4 -65 -19 4 -35
5 -35 2 0 -15 89 -48 139 -52 l56 -5 -37 17 c-21 9 -38 22 -38 30 0 7 21 24
48 37 55 27 83 67 66 94 -29 46 -145 76 -194 51z"/>
<path d="M1707 1424 c-4 -16 -9 -126 -13 -245 l-7 -216 24 -6 c45 -12 154 -6
199 11 71 27 84 63 84 237 1 77 -3 153 -7 168 -11 42 -79 68 -188 75 l-86 5
-6 -29z m165 -105 c10 -39 0 -222 -13 -256 -9 -23 -33 -31 -43 -14 -7 11 11
288 19 302 12 18 29 3 37 -32z"/>
<path d="M1395 1413 c-4 -10 -9 -55 -12 -101 l-6 -83 -22 86 c-25 94 -33 109
-61 103 -27 -5 -43 -60 -44 -158 l-1 -85 -19 90 c-27 129 -32 137 -78 133 -29
-2 -38 -8 -40 -24 -4 -27 73 -386 90 -422 17 -36 66 -42 93 -12 14 16 20 43
25 118 4 53 8 91 8 83 5 -42 46 -174 59 -187 8 -7 28 -14 44 -14 45 0 51 29
52 245 1 216 -6 245 -52 245 -18 0 -31 -6 -36 -17z"/>
<path d="M2127 1409 c-39 -23 -74 -151 -84 -308 -5 -89 -4 -98 17 -125 29 -36
77 -56 134 -56 65 0 93 14 115 58 26 52 51 187 51 282 0 88 -18 122 -76 146
-39 16 -131 18 -157 3z m106 -94 c12 -65 -30 -315 -53 -315 -16 0 -22 41 -16
99 9 71 36 223 42 233 10 16 22 8 27 -17z"/>
<path d="M890 1361 c-52 -11 -78 -31 -101 -79 -24 -49 -22 -75 16 -240 29
-122 36 -137 78 -162 77 -48 211 7 233 95 7 28 -20 180 -47 267 -23 71 -62
118 -99 118 -10 0 -24 2 -32 4 -7 2 -29 1 -48 -3z m44 -110 c18 -34 56 -215
56 -265 0 -44 -25 -50 -40 -10 -17 44 -61 276 -56 290 8 22 24 16 40 -15z"/>
<path d="M2469 1343 c-26 -68 -79 -344 -79 -410 0 -41 1 -43 40 -53 22 -6 44
-9 49 -6 5 3 23 41 40 83 18 43 38 89 46 103 l15 25 -5 -30 c-2 -16 -9 -62
-16 -102 -13 -84 -7 -111 28 -124 52 -20 81 23 176 261 63 159 64 165 33 185
-14 10 -33 15 -41 11 -9 -3 -34 -43 -55 -88 l-40 -83 5 60 c4 33 8 74 11 91 6
35 -17 67 -45 62 -9 -2 -35 -41 -59 -88 -48 -94 -46 -98 -25 54 5 41 3 51 -12
62 -30 22 -54 17 -66 -13z"/>
<path d="M535 1270 c-45 -18 -47 -31 -20 -136 14 -55 42 -154 63 -221 41 -137
39 -135 127 -113 78 21 115 42 115 65 0 28 -21 37 -70 29 l-38 -6 -32 103
c-58 192 -82 259 -97 274 -16 17 -20 17 -48 5z"/>
<path d="M2910 1190 c-38 -53 -172 -342 -177 -381 -4 -30 -2 -40 11 -45 31
-12 64 14 101 78 20 35 39 65 41 67 2 2 1 -41 -3 -96 -6 -101 -6 -101 20 -118
15 -9 33 -15 41 -12 13 5 216 397 216 418 0 5 -14 16 -31 25 -38 19 -45 14
-95 -72 l-33 -59 -1 65 c-1 144 -40 200 -90 130z"/>
<path d="M273 1184 c-59 -29 -88 -104 -64 -166 14 -37 56 -73 131 -113 70 -36
108 -74 95 -95 -11 -17 -32 -11 -49 15 -9 14 -23 25 -32 25 -24 0 -64 -31 -64
-50 0 -28 47 -77 86 -90 78 -26 174 45 174 128 0 54 -46 107 -139 162 -80 46
-110 75 -93 92 9 9 16 7 30 -5 25 -23 46 -21 78 6 23 20 25 26 15 46 -17 30
-70 61 -106 61 -16 0 -45 -8 -62 -16z"/>
<path d="M1280 845 c-273 -39 -534 -112 -715 -200 -124 -61 -231 -132 -181
-120 16 3 81 28 145 55 448 188 887 257 1406 220 327 -24 534 -74 880 -215 72
-29 141 -56 155 -60 83 -26 -121 106 -242 156 -164 68 -372 123 -583 156 -141
21 -733 27 -865 8z"/>
</g>
</svg>
