<?xml version="1.0" encoding="UTF-8" standalone="no"?>
<svg
   xmlns:dc="http://purl.org/dc/elements/1.1/"
   xmlns:cc="http://creativecommons.org/ns#"
   xmlns:rdf="http://www.w3.org/1999/02/22-rdf-syntax-ns#"
   xmlns:svg="http://www.w3.org/2000/svg"
   xmlns="http://www.w3.org/2000/svg"
   enable-background="new 0 0 648 504"
   version="1.1"
   viewBox="0 0 202.58428 171.75977"
   xml:space="preserve"
   id="svg766"
   width="53.600422mm"
   height="45.444775mm"><metadata
   id="metadata772"><rdf:RDF><cc:Work
       rdf:about=""><dc:format>image/svg+xml</dc:format><dc:type
         rdf:resource="http://purl.org/dc/dcmitype/StillImage" /><dc:title></dc:title></cc:Work></rdf:RDF></metadata><defs
   id="defs770">
	
	
	
</defs>
<path fill="black"
   d="M 169.059 61.6543 C 169.059 61.6543 160.547 61.6543 160.547 61.6543 C 161.497 63.9673 162.509 66.2465 163.68 68.4414 C 165.12 71.14 166.667 73.7824 168.168 76.4512 C 169.366 78.5805 170.484 80.7627 171.645 82.916 C 172.811 85.0767 174.02 87.2095 175.393 89.2285 C 177.033 91.6378 178.391 94.1343 179.518 96.707 C 180.666 99.3255 181.573 102.021 182.293 104.785 C 183.006 107.52 183.536 110.322 183.932 113.176 C 183.959 113.372 183.988 113.569 184.02 113.764 C 184.025 113.796 184.059 113.82 184.209 114.031 C 184.396 113.608 184.638 113.295 184.668 112.961 C 184.859 110.864 185.088 108.763 185.141 106.66 C 185.198 104.411 184.919 102.229 184.42 100.092 C 183.92 97.9532 183.199 95.8599 182.373 93.7949 C 181.404 91.3689 180.307 89.0122 179.119 86.7051 C 177.929 84.3923 176.646 82.1298 175.309 79.8965 C 173.975 77.6668 172.585 75.4658 171.178 73.2754 C 169.995 71.4334 168.866 69.5553 167.785 67.6523 C 167.572 67.2773 167.512 66.627 167.691 66.25 C 168.4 64.7534 168.802 63.2126 169.059 61.6543 C 169.059 61.6543 169.059 61.6543 169.059 61.6543"
   style="clip-rule:evenodd;fill-rule:evenodd"
   id="path758" /><path fill="black"
   d="M 168.484 48.7715 C 168.484 48.7715 164.016 48.7715 164.016 48.7715 C 164.018 49.1399 164.105 49.4999 164.1 49.8691 C 164.062 52.6612 163.81 55.4756 163.449 58.3027 C 162.33 55.7527 161.381 53.1593 160.57 50.5312 C 160.392 49.9522 160.286 49.354 160.121 48.7715 C 160.121 48.7715 156.584 48.7715 156.584 48.7715 C 156.855 49.988 157.065 51.2182 157.387 52.4238 C 158.079 55.0128 158.89 57.5758 159.834 60.1113 C 160.033 60.6462 160.331 61.1284 160.547 61.6543 C 160.547 61.6543 169.059 61.6543 169.059 61.6543 C 169.115 61.3134 169.212 60.9777 169.25 60.6348 C 169.467 58.7066 169.414 56.7471 169.213 54.7891 C 169.007 52.7792 168.746 50.7758 168.484 48.7715 C 168.484 48.7715 168.484 48.7715 168.484 48.7715"
   style="clip-rule:evenodd;fill-rule:evenodd"
   id="path914" /><path fill="black"
   d="M 75.4609 48.7715 C 75.4718 48.8317 75.4754 48.8929 75.4863 48.9531 C 75.908 51.2712 76.4016 53.5803 76.9238 55.8848 C 77.3603 57.8106 77.8144 59.7316 78.2656 61.6543 C 78.2656 61.6543 82.4434 61.6543 82.4434 61.6543 C 82.3811 61.3726 82.3222 61.0903 82.2598 60.8086 C 81.718 58.3639 81.1725 55.9197 80.6426 53.4727 C 80.3038 51.9083 79.989 50.3393 79.668 48.7715 C 79.668 48.7715 75.4609 48.7715 75.4609 48.7715 C 75.4609 48.7715 75.4609 48.7715 75.4609 48.7715"
   style="clip-rule:evenodd;fill-rule:evenodd"
   id="path912" /><path fill="black"
   d="M 65.1406 48.7715 C 65.2392 49.2184 65.2783 49.6756 65.3848 50.1211 C 65.9867 52.6393 66.7089 55.1352 67.4941 57.6211 C 67.931 59.0052 68.5879 60.3197 69.1836 61.6543 C 69.1836 61.6543 71.8027 61.6543 71.8027 61.6543 C 71.3364 60.487 70.8747 59.3183 70.541 58.1191 C 70.0834 56.4749 69.7009 54.812 69.2637 53.1602 C 68.8791 51.7075 68.6464 50.2331 68.3242 48.7715 C 68.3242 48.7715 65.1406 48.7715 65.1406 48.7715 C 65.1406 48.7715 65.1406 48.7715 65.1406 48.7715"
   style="clip-rule:evenodd;fill-rule:evenodd"
   id="path910" /><path fill="black"
   d="M 16.5645 60.4922 C 16.5645 60.4922 16.5645 61.6543 16.5645 61.6543 C 16.5645 61.6543 19.9375 61.6543 23.3105 61.6543 C 26.6836 61.6543 30.0566 61.6543 30.0566 61.6543 C 30.5271 61.5201 30.9717 61.3207 31.4473 61.1992 C 31.7103 61.1322 31.983 61.1065 32.252 61.0625 C 32.0327 61.2449 31.8876 61.4677 31.6777 61.6543 C 31.6777 61.6543 33.9883 61.6543 33.9883 61.6543 C 36.1827 60.3323 38.7139 59.5471 40.748 60.0508 C 42.4852 60.4807 44.2532 60.7881 45.9922 61.1973 C 46.445 61.3038 46.8647 61.53 47.3125 61.6543 C 47.3125 61.6543 49.8867 61.6543 52.4609 61.6543 C 55.0352 61.6543 57.6094 61.6543 57.6094 61.6543 C 56.7452 60.9794 55.8321 60.3672 54.8887 59.8535 C 52.9333 58.7889 50.9423 57.7865 48.8848 56.9473 C 46.8313 56.1098 44.7118 55.436 42.502 55.0234 C 41.27 54.7934 39.9833 54.8659 38.6543 54.7969 C 38.3603 52.993 38.3848 50.8515 38.3535 48.7715 C 38.3535 48.7715 32.541 48.7715 32.541 48.7715 C 32.577 50.9788 32.5469 53.1854 32.5469 55.4961 C 30.7279 55.8361 28.8585 56.2241 26.9785 56.5371 C 24.4172 56.9578 22.0079 57.6506 19.7559 58.6094 C 18.6083 59.098 17.6296 59.8663 16.5645 60.4922 C 16.5645 60.4922 16.5645 60.4922 16.5645 60.4922"
   style="clip-rule:evenodd;fill-rule:evenodd"
   id="path908" /><path fill="black"
   d="M 156.732 25.3945 C 159.281 27.2635 158.548 29.5715 158.32 31.7715 C 156.483 30.0455 157.224 27.7145 156.732 25.3945 C 156.732 25.3945 156.732 25.3945 156.732 25.3945"
   style="clip-rule:evenodd;fill-rule:evenodd"
   id="path906" /><path fill="black"
   d="M 105.893 17.5156 C 105.734 18.4486 105.538 19.1447 105.521 19.8477 C 105.509 20.3437 105.604 20.9481 105.887 21.3281 C 107.498 23.4911 109.18 25.6025 110.842 27.7285 C 111.45 28.5065 112.071 29.2758 112.686 30.0488 C 112.609 27.3863 111.829 25.1305 110.609 23.1016 C 109.39 21.0727 107.73 19.2716 105.893 17.5156 C 105.893 17.5156 105.893 17.5156 105.893 17.5156"
   style="clip-rule:evenodd;fill-rule:evenodd"
   id="path940" /><path fill="black"
   d="M 156.305 14.4375 C 156.677 14.4965 157.024 14.6988 157.352 15.0703 C 159.078 17.0223 160.476 19.1346 161.58 21.3926 C 162.685 23.6528 163.494 26.0585 164.037 28.5938 C 164.151 29.1258 164.141 29.718 164.033 30.25 C 163.968 30.562 163.58 31.0462 163.361 31.0332 C 163.016 31.0132 162.553 30.7124 162.393 30.4004 C 162.147 29.9224 162.107 29.337 161.998 28.793 C 161.389 25.774 159.945 23.4079 156.969 22.1719 C 156.687 22.0539 156.413 21.6364 156.348 21.3164 C 155.907 19.1444 155.523 16.9611 155.098 14.6641 C 155.534 14.4626 155.932 14.3785 156.305 14.4375 C 156.305 14.4375 156.305 14.4375 156.305 14.4375"
   style="clip-rule:evenodd;fill-rule:evenodd"
   id="path938" /><path fill="black"
   d="M 179.934 9.52539 C 180.966 9.75339 182.174 11.6016 182.324 13.1406 C 182.489 14.8306 182.074 15.533 180.701 16.207 C 178.552 17.2612 176.666 18.6099 174.99 20.1855 C 173.312 21.7635 171.843 23.57 170.529 25.541 C 169.168 27.584 167.872 29.67 166.379 31.998 C 166.243 30.162 166.129 28.7013 166.035 27.2383 C 166.02 27.0093 166.042 26.7439 166.146 26.5469 C 167.312 24.3554 168.453 22.1486 169.615 19.9551 C 170.777 17.7606 171.96 15.5791 173.207 13.4336 C 174.486 11.2316 176.618 9.90959 179.23 9.55859 C 179.462 9.52659 179.713 9.47639 179.934 9.52539 C 179.934 9.52539 179.934 9.52539 179.934 9.52539"
   style="clip-rule:evenodd;fill-rule:evenodd"
   id="path936" /><path fill="black"
   d="M 64.3906 7.4668 C 64.5026 7.7728 64.5976 8.01567 64.6816 8.26367 C 65.6002 10.984 66.1164 13.7146 66.1504 16.4414 C 66.1845 19.1736 65.7347 21.9006 64.7207 24.6113 C 64.0727 26.3443 64.1716 27.996 64.1836 30.041 C 65.0866 29.274 65.8864 28.7555 66.4824 28.0625 C 67.7914 26.541 68.8344 24.9045 69.5938 23.1426 C 70.3501 21.3876 70.8239 19.5076 70.9961 17.4941 C 71.1947 15.1673 70.6606 12.9911 69.5449 11.2383 C 68.3916 9.42626 66.6174 8.06863 64.3906 7.4668 C 64.3906 7.4668 64.3906 7.4668 64.3906 7.4668"
   style="clip-rule:evenodd;fill-rule:evenodd"
   id="path934" /><path fill="black"
   d="M 58.8945 62.8145 C 58.4679 62.4243 58.0672 62.0119 57.6094 61.6543 C 57.6094 61.6543 55.0352 61.6543 52.4609 61.6543 C 49.8867 61.6543 47.3125 61.6543 47.3125 61.6543 C 48.5812 62.0064 49.8566 62.3334 51.0527 62.9492 C 51.4607 63.1592 51.8603 63.3857 52.3223 63.6367 C 50.4253 64.3887 48.6476 65.0258 46.9336 65.8008 C 45.9256 66.2568 45.0244 66.9408 44.0664 67.5078 C 42.2544 68.5808 41.6623 70.2184 42.0273 72.1934 C 42.4113 74.2764 43.8076 75.5027 45.7656 76.1367 C 47.4899 76.6949 49.2051 76.962 50.9219 76.9453 C 52.6311 76.9287 54.3417 76.6308 56.0664 76.0586 C 56.966 75.7599 57.9399 75.7034 58.8945 75.5723 C 58.8945 75.5723 58.8945 74.1113 58.8945 74.1113 C 57.6723 74.3334 56.4384 74.5215 55.2559 74.8555 C 53.4536 75.3645 51.6489 75.8152 49.6992 75.6367 C 51.5672 74.3967 52.3452 72.6827 51.9082 70.5957 C 51.4632 68.4647 49.6589 67.6581 47.5449 66.7891 C 48.9049 66.2851 50.027 65.7531 51.207 65.4531 C 52.9505 65.0101 53.6002 64.7583 54.0508 64.9414 C 54.5014 65.1245 54.7532 65.7426 55.7012 67.0391 C 56.7365 68.4553 57.8209 69.8362 58.8945 71.2246 C 58.8945 71.2246 58.8945 62.8145 58.8945 62.8145 C 58.8945 62.8145 58.8945 62.8145 58.8945 62.8145"
   style="clip-rule:evenodd;fill-rule:evenodd"
   id="path932" /><path fill="black"
   d="M 58.8945 62.8145 C 58.8945 62.8145 58.8945 71.2246 58.8945 71.2246 C 59.2332 71.6627 59.5663 72.1051 59.9023 72.5449 C 60.1593 72.8809 60.4025 73.2275 60.7695 73.7285 C 60.1126 73.748 59.5243 73.9969 58.8945 74.1113 C 58.8945 74.1113 58.8945 75.5723 58.8945 75.5723 C 59.5954 75.476 60.2722 75.2813 60.9707 75.2148 C 61.4727 75.1668 62.1601 75.5667 62.5371 75.9707 C 63.4591 76.9577 64.3306 78.0125 65.0586 79.1465 C 65.4496 79.7565 65.706 80.5955 65.668 81.3125 C 65.519 84.1295 64.5547 86.7336 63.4297 89.3066 C 62.6427 91.1066 62.1589 93.0359 61.4629 94.8789 C 61.2959 95.3219 60.8823 95.7256 60.4863 96.0176 C 59.9574 96.4072 59.4248 96.792 58.8945 97.1797 C 58.8945 97.1797 58.8945 99.4238 58.8945 99.4238 C 59.5307 98.9596 60.172 98.5023 60.8047 98.0332 C 62.2097 96.9912 63.4643 95.9118 63.6543 93.8848 C 63.7703 92.6368 64.6502 91.4753 65.0742 90.2363 C 65.9802 87.5933 66.8118 84.9265 67.5918 82.5195 C 68.7228 83.5845 70.0586 84.9979 71.5566 86.2109 C 73.0316 87.4069 74.5986 88.5327 76.2656 89.4297 C 77.2966 89.9847 77.5676 90.6069 77.0586 91.4609 C 76.1056 93.0589 75.1336 94.6808 73.9336 96.0898 C 72.5462 97.7199 71.0225 99.1571 69.3027 100.295 C 67.5938 101.425 65.6916 102.257 63.543 102.691 C 63.155 102.769 62.7248 102.845 62.4238 103.07 C 62.1278 103.291 61.97 103.7 61.752 104.025 C 62.099 104.216 62.4429 104.564 62.7949 104.572 C 65.528 104.633 67.943 104.008 70.1602 102.922 C 72.3796 101.835 74.4008 100.289 76.3418 98.5078 C 78.1061 96.8902 79.4071 95.0129 80.5078 93.0215 C 81.6193 91.0104 82.5269 88.8815 83.4961 86.7812 C 84.2066 85.2433 84.8012 83.6711 85.1602 82.0547 C 85.5192 80.4383 85.6427 78.778 85.4102 77.0645 C 85.0042 74.0765 84.4765 71.0994 83.8555 68.1484 C 83.3995 65.9808 82.9218 63.8175 82.4434 61.6543 C 82.4434 61.6543 78.2656 61.6543 78.2656 61.6543 C 78.5045 62.6723 78.739 63.6907 78.9766 64.709 C 79.6627 67.6507 80.3353 70.5957 80.9473 73.5527 C 81.3459 75.4795 81.4305 77.4258 81.4004 79.4277 C 81.3718 81.3332 81.2387 83.2896 81.1758 85.3281 C 79.9168 84.6591 78.9134 84.1605 77.9414 83.6035 C 75.1114 81.9815 74.2268 78.979 72.7148 76.082 C 73.2458 76.365 73.5816 76.5645 73.9336 76.7285 C 74.8296 77.1465 75.777 77.4434 76.627 76.7344 C 77.442 76.0544 77.2028 75.1099 76.8828 74.2969 C 76.1348 72.3958 75.4127 70.481 74.6621 68.5801 C 73.9103 66.6764 73.1298 64.7863 72.2617 62.9375 C 72.0657 62.52 71.972 62.0781 71.8027 61.6543 C 71.8027 61.6543 69.1836 61.6543 69.1836 61.6543 C 69.3174 61.9541 69.4367 62.2581 69.5625 62.5605 C 70.2785 64.283 70.9931 66.0065 71.7051 67.7305 C 72.4171 69.4545 73.1269 71.1788 73.8359 72.9043 C 73.9049 73.0723 73.8925 73.2744 73.9395 73.6094 C 73.1245 73.1724 72.4521 72.7714 71.7461 72.4414 C 69.8871 71.5724 69.0442 72.1425 69.1152 74.1875 C 69.1232 74.4145 69.1172 74.6423 69.1172 75.2383 C 67.8792 73.5993 66.8671 72.1977 65.7891 70.8477 C 63.8801 68.4567 62.0601 65.9745 59.9531 63.7695 C 59.6289 63.43 59.2458 63.1357 58.8945 62.8145 C 58.8945 62.8145 58.8945 62.8145 58.8945 62.8145"
   style="clip-rule:evenodd;fill-rule:evenodd"
   id="path930" /><path fill="black"
   d="M 7.36133 79.3516 C 7.36133 79.3516 7.36133 82.3223 7.36133 82.3223 C 8.46415 80.7214 9.54192 79.0986 10.7734 77.6113 C 12.5667 75.4455 14.5196 73.4164 16.7031 71.5684 C 18.3499 70.1742 20.0668 69.1365 21.9062 68.625 C 23.7438 68.114 25.7034 68.1278 27.8359 68.832 C 28.7929 69.148 29.1363 68.7505 29.1543 67.9355 C 29.2004 65.7893 31.0667 63.4801 33.4785 61.8887 C 33.6376 61.7837 33.8248 61.7528 33.9883 61.6543 C 33.9883 61.6543 31.6777 61.6543 31.6777 61.6543 C 29.8632 63.2671 28.3659 65.0317 27.959 67.5996 C 27.349 67.4886 26.8475 67.4147 26.3555 67.3027 C 23.4905 66.6467 20.8417 67.1664 18.3477 68.6934 C 15.98 70.1429 13.8895 71.872 11.9883 73.7949 C 10.3021 75.5004 8.80729 77.4014 7.36133 79.3516 C 7.36133 79.3516 7.36133 79.3516 7.36133 79.3516"
   style="clip-rule:evenodd;fill-rule:evenodd"
   id="path928" /><path fill="black"
   d="M 7.36133 68.7266 C 7.36133 68.7266 7.36133 77.1426 7.36133 77.1426 C 8.46166 75.0227 9.74258 73.0747 11.3164 71.4023 C 13.1441 69.4603 15.3044 67.8294 17.8262 66.5293 C 20.0071 65.4045 22.222 64.3776 24.4863 63.4785 C 26.2992 62.7586 28.172 62.1917 30.0566 61.6543 C 30.0566 61.6543 26.6836 61.6543 23.3105 61.6543 C 19.9375 61.6543 16.5645 61.6543 16.5645 61.6543 C 16.5645 61.6543 16.5645 60.4922 16.5645 60.4922 C 15.4709 61.1348 14.2923 61.6381 13.2871 62.4238 C 11.3523 63.9363 9.58323 65.7129 7.98438 67.7461 C 7.73893 68.0582 7.59595 68.4102 7.36133 68.7266 C 7.36133 68.7266 7.36133 68.7266 7.36133 68.7266"
   style="clip-rule:evenodd;fill-rule:evenodd"
   id="path926" /><path fill="black"
   d="M 7.36133 116.658 C 7.36133 116.658 7.36133 113.658 7.36133 110.658 C 7.36133 107.658 7.36133 104.658 7.36133 104.658 C 6.7191 103.03 6.03896 101.419 5.41992 99.7812 C 5.27792 99.4043 5.24067 98.8776 5.38867 98.5176 C 5.98199 97.0739 6.62554 95.6558 7.36133 94.291 C 7.36133 94.291 7.36133 91.6562 7.36133 91.6562 C 7.21596 91.9054 7.00524 92.0805 6.86719 92.3379 C 6.09919 93.7689 5.4115 95.2452 4.6875 96.7012 C 4.46165 94.6079 4.10446 92.5116 4.13086 90.4434 C 4.15671 88.4182 4.55052 86.4194 5.80273 84.4746 C 6.28625 83.724 6.85751 83.0536 7.36133 82.3223 C 7.36133 82.3223 7.36133 79.3516 7.36133 79.3516 C 7.17385 79.6044 6.94628 79.8165 6.76172 80.0723 C 6.43872 80.5183 6.13798 80.9818 5.58398 81.3398 C 5.98198 80.2788 6.31006 79.1851 6.78906 78.1621 C 6.95799 77.8013 7.18013 77.4917 7.36133 77.1426 C 7.36133 77.1426 7.36133 68.7266 7.36133 68.7266 C 5.97494 70.5959 4.68107 72.5016 3.68164 74.5215 C 2.49061 76.9286 1.58066 79.4435 0.962891 82.0703 C 0.36319 84.6203 0.0394229 87.276 0.00390625 90.0391 C -0.027808 92.5048 0.158862 94.9203 0.527344 97.291 C 0.901264 99.6966 1.46231 102.055 2.17383 104.373 C 2.8836 106.685 3.74176 108.956 4.71289 111.191 C 5.5211 113.051 6.44552 114.853 7.36133 116.658 C 7.36133 116.658 7.36133 116.658 7.36133 116.658"
   style="clip-rule:evenodd;fill-rule:evenodd"
   id="path924" /><path fill="black"
   d="M 9.95703 121.469 C 9.95703 121.469 17.373 121.469 17.373 121.469 C 16.1963 119.815 14.9867 118.192 13.9102 116.443 C 13.5972 115.935 13.2595 115.442 12.9375 114.939 C 12.8955 114.874 12.8786 114.793 12.8086 114.615 C 12.9876 114.641 13.1314 114.624 13.2324 114.682 C 16.3119 116.462 19.4448 117.331 22.6289 117.48 C 25.8223 117.63 29.0662 117.055 32.3535 115.945 C 35.2902 114.953 38.0794 113.71 40.7461 112.24 C 43.4115 110.772 45.9555 109.077 48.3984 107.176 C 50.4254 105.598 52.4962 104.077 54.5762 102.568 C 56.0176 101.523 57.4562 100.474 58.8945 99.4238 C 58.8945 99.4238 58.8945 97.1797 58.8945 97.1797 C 57.7861 97.9901 56.6779 98.8008 55.5664 99.6074 C 53.9232 100.8 52.2781 101.991 50.6426 103.195 C 49.2329 104.233 47.8584 105.324 46.4688 106.391 C 45.0763 107.46 43.6691 108.506 42.2012 109.459 C 39.412 111.269 36.4707 112.67 33.3945 113.646 C 30.3198 114.621 27.1114 115.17 23.7832 115.273 C 21.8391 115.333 19.9666 115.06 18.1504 114.482 C 16.3969 113.924 14.6959 113.082 13.0293 111.988 C 14.0253 110.387 14.9592 108.782 15.9922 107.244 C 17.1892 105.462 18.277 103.633 19.1699 101.717 C 20.0628 99.8012 20.7602 97.7988 21.1777 95.6738 C 21.5127 93.9708 21.7659 92.2484 21.9629 90.5234 C 22.1779 88.6394 21.541 87.0452 19.957 85.9492 C 18.379 84.8572 16.6877 84.8151 14.9727 85.6621 C 14.6517 85.8201 14.3536 86.0667 14.0156 86.1387 C 10.7956 86.8291 8.89133 89.0335 7.36133 91.6562 C 7.36133 91.6562 7.36133 94.291 7.36133 94.291 C 8.16577 92.7989 9.08288 91.3718 10.2246 90.0781 C 10.7836 89.4451 11.5059 88.9571 12.3379 88.2441 C 11.9089 90.9384 12.7031 92.8934 14.0684 94.0059 C 15.628 95.2768 17.9326 95.4487 20.0137 94.3711 C 19.8337 95.3601 19.7685 96.2119 19.5195 97.0059 C 18.9865 98.7039 18.3199 100.338 17.541 101.918 C 16.7622 103.499 15.8702 105.025 14.8867 106.506 C 13.8767 108.025 12.8714 109.548 11.6094 111.453 C 10.5404 110.213 9.29087 109.234 8.67188 107.951 C 8.1604 106.889 7.79496 105.758 7.36133 104.658 C 7.36133 104.658 7.36133 107.658 7.36133 110.658 C 7.36133 113.658 7.36133 116.658 7.36133 116.658 C 7.71111 117.348 8.00869 118.064 8.37305 118.746 C 8.86736 119.672 9.4369 120.557 9.95703 121.469 C 9.95703 121.469 9.95703 121.469 9.95703 121.469"
   style="clip-rule:evenodd;fill-rule:evenodd"
   id="path922" /><path fill="black"
   d="M 131.746 9.20312 C 131.746 9.20312 141.254 9.20312 141.254 9.20312 C 141.887 8.89775 142.473 8.54138 143.139 8.27148 C 144.105 7.87948 144.743 8.31527 145.41 8.82227 C 145.566 8.94105 145.682 9.08235 145.834 9.20312 C 145.834 9.20312 154.236 9.20312 154.236 9.20312 C 153.705 8.89173 153.193 8.53735 152.646 8.25781 C 150.252 7.03232 147.731 6.08742 145.182 5.21094 C 143.771 4.72594 142.082 4.54178 140.623 4.80078 C 138.008 5.26514 135.686 6.24456 133.637 7.63477 C 132.962 8.09278 132.362 8.65995 131.746 9.20312 C 131.746 9.20312 131.746 9.20312 131.746 9.20312"
   style="clip-rule:evenodd;fill-rule:evenodd"
   id="path920" /><path fill="black"
   d="M 126.607 28.5273 C 127.328 25.8085 128.311 23.1488 129.557 20.5332 C 130.977 17.5541 132.862 15.1018 135.146 13.0879 C 136.93 11.5157 139.02 10.2806 141.254 9.20312 C 141.254 9.20312 131.746 9.20312 131.746 9.20312 C 130.483 10.3167 129.298 11.5366 128.273 12.959 C 126.627 15.2461 125.272 17.6406 124.172 20.127 C 123.054 22.6513 122.2 25.2699 121.57 27.9668 C 121.528 28.1488 121.525 28.3446 121.484 28.5273 C 121.484 28.5273 126.607 28.5273 126.607 28.5273 C 126.607 28.5273 126.607 28.5273 126.607 28.5273"
   style="clip-rule:evenodd;fill-rule:evenodd"
   id="path954" /><path fill="black"
   d="M 126.607 28.5273 C 126.607 28.5273 121.484 28.5273 121.484 28.5273 C 120.935 31.0085 120.533 33.5411 120.326 36.1387 C 120.128 38.6411 120.152 41.1202 120.336 43.5801 C 120.466 45.323 120.757 47.0464 121.027 48.7715 C 121.027 48.7715 126.498 48.7715 126.498 48.7715 C 126.486 48.6847 126.459 48.6005 126.447 48.5137 C 126.038 45.4256 125.776 42.3121 125.531 39.1914 C 125.27 35.8583 125.57 32.6819 126.285 29.6016 C 126.369 29.2383 126.512 28.888 126.607 28.5273 C 126.607 28.5273 126.607 28.5273 126.607 28.5273"
   style="clip-rule:evenodd;fill-rule:evenodd"
   id="path952" /><path fill="black"
   d="M 172.076 28.5273 C 172.076 28.5273 167.562 28.5273 163.048 28.5273 C 158.534 28.5273 154.02 28.5273 154.02 28.5273 C 154.047 29.0599 154.067 29.5927 154.098 30.125 C 154.222 32.2677 154.374 34.408 154.578 36.543 C 154.836 39.2306 155.189 41.8973 155.652 44.541 C 155.902 45.9641 156.27 47.3623 156.584 48.7715 C 156.584 48.7715 160.121 48.7715 160.121 48.7715 C 159.532 46.696 158.959 44.6178 158.518 42.502 C 157.957 39.8065 157.503 37.079 157.127 34.3281 C 159.474 34.6531 159.475 34.6546 160.918 33.3926 C 162.144 36.0386 162.952 38.725 163.449 41.4434 C 163.891 43.8602 163.998 46.3114 164.016 48.7715 C 164.016 48.7715 168.484 48.7715 168.484 48.7715 C 168.409 48.1938 168.352 47.6144 168.273 47.0371 C 167.92 44.458 167.538 41.8824 167.152 39.3086 C 166.921 37.7616 166.324 36.2662 165.881 34.7012 C 167.326 35.0382 168.373 34.2267 169.186 33.0977 C 169.996 31.9717 170.697 30.7631 171.426 29.5801 C 171.642 29.2288 171.865 28.8824 172.076 28.5273 C 172.076 28.5273 172.076 28.5273 172.076 28.5273"
   style="clip-rule:evenodd;fill-rule:evenodd"
   id="path950" /><path fill="black"
   d="M 177.604 21.3164 C 177.604 21.3164 177.604 18.2881 177.604 15.2598 C 177.604 12.2314 177.604 9.20312 177.604 9.20312 C 177.604 9.20312 170.963 9.20312 170.963 9.20312 C 170.873 9.49255 170.795 9.79354 170.629 10.0605 C 169.574 11.7527 168.513 13.4406 167.461 15.1094 C 166.385 16.816 165.319 18.5015 164.279 20.1504 C 163.749 19.0114 163.043 17.5476 162.396 16.0586 C 162.273 15.7746 162.306 15.3638 162.4 15.0508 C 163.087 12.7379 164.423 10.8562 166.07 9.20312 C 166.07 9.20312 161.162 9.20312 161.162 9.20312 C 160.635 9.98717 160.148 10.8016 159.771 11.6934 C 159.624 12.0414 159.456 12.3789 159.223 12.8789 C 157.686 11.3849 155.99 10.2305 154.236 9.20312 C 154.236 9.20312 145.834 9.20312 145.834 9.20312 C 148.096 10.9954 150 12.9873 151.352 15.291 C 152.786 17.7356 153.641 20.5072 153.781 23.6934 C 153.853 25.304 153.935 26.916 154.02 28.5273 C 154.02 28.5273 158.534 28.5273 163.048 28.5273 C 167.562 28.5273 172.076 28.5273 172.076 28.5273 C 173.038 26.9081 173.953 25.2567 175.039 23.7246 C 175.758 22.7106 176.682 22.0151 177.604 21.3164 C 177.604 21.3164 177.604 21.3164 177.604 21.3164"
   style="clip-rule:evenodd;fill-rule:evenodd"
   id="path948" /><path fill="black"
   d="M 168.363 4.61914 C 166.515 4.51314 164.93 5.18053 163.566 6.39453 C 162.627 7.23078 161.848 8.18305 161.162 9.20312 C 161.162 9.20312 166.07 9.20312 166.07 9.20312 C 166.498 8.77421 166.828 8.27473 167.312 7.88867 C 167.821 7.48367 168.708 7.16722 169.279 7.32422 C 169.987 7.51922 170.628 8.18506 171.125 8.78906 C 171.172 8.84575 171.006 9.06327 170.963 9.20312 C 170.963 9.20312 177.604 9.20312 177.604 9.20312 C 177.604 9.20312 177.604 12.2314 177.604 15.2598 C 177.604 18.2881 177.604 21.3164 177.604 21.3164 C 179.154 20.1402 180.887 19.2516 183.006 18.9824 C 183.726 18.8914 184.366 18.163 185.203 17.625 C 186.022 19.299 186.954 21.0734 187.771 22.8984 C 188.973 25.5798 190.004 28.3068 190.883 31.0742 C 191.767 33.8565 192.497 36.6796 193.094 39.5391 C 193.688 42.3837 194.148 45.2644 194.496 48.1758 C 194.822 50.8999 195.066 53.6266 195.246 56.3555 C 195.426 59.0897 195.542 61.8268 195.611 64.5645 C 195.68 67.3016 195.704 70.04 195.697 72.7793 C 195.69 75.5173 195.653 78.2551 195.605 80.9941 C 195.549 84.1721 195.072 87.3434 194.947 90.5234 C 194.821 93.7606 194.441 96.9399 193.871 100.076 C 193.297 103.233 192.53 106.347 191.633 109.43 C 190.74 112.501 189.718 115.542 188.629 118.568 C 187.576 121.496 186.359 124.331 185.008 127.086 C 183.646 129.862 182.148 132.558 180.547 135.195 C 178.947 137.829 177.243 140.405 175.467 142.936 C 173.698 145.457 171.857 147.934 169.975 150.389 C 169.651 150.812 169.174 151.212 168.684 151.4 C 165.676 152.555 162.669 153.715 159.65 154.84 C 156.63 155.966 153.599 157.057 150.543 158.08 C 147.49 159.102 144.413 160.054 141.297 160.9 C 138.402 161.686 135.49 162.347 132.561 162.877 C 129.62 163.409 126.661 163.808 123.686 164.07 C 120.72 164.331 117.736 164.456 114.736 164.439 C 111.532 164.421 108.323 164.398 105.117 164.314 C 101.909 164.229 98.7047 164.081 95.5117 163.818 C 92.7843 163.592 90.0727 163.256 87.377 162.824 C 84.68 162.393 81.9979 161.867 79.3301 161.262 C 76.6691 160.659 74.023 159.977 71.3887 159.234 C 68.4309 158.399 65.515 157.464 62.6426 156.414 C 59.7688 155.363 56.9389 154.196 54.1543 152.895 C 51.5793 151.692 49.1409 150.269 46.7734 148.738 C 44.4012 147.203 42.0995 145.558 39.8008 143.916 C 37.2058 142.061 34.7162 140.107 32.3359 138.047 C 29.9335 135.967 27.643 133.78 25.4688 131.484 C 23.2947 129.188 21.2356 126.782 19.2988 124.262 C 18.614 123.371 18.0272 122.388 17.373 121.469 C 17.373 121.469 9.95703 121.469 9.95703 121.469 C 10.8237 122.989 11.6632 124.524 12.5957 126.006 C 14.0851 128.373 15.6533 130.693 17.2891 132.969 C 18.9354 135.26 20.6987 137.407 22.5664 139.422 C 24.4691 141.475 26.481 143.393 28.5859 145.193 C 30.7 147 32.9093 148.688 35.1992 150.273 C 37.4774 151.849 39.8354 153.323 42.2598 154.711 C 44.6598 156.086 47.1243 157.377 49.6406 158.598 C 52.0148 159.75 54.4096 160.845 56.832 161.867 C 59.2615 162.891 61.7178 163.84 64.2051 164.699 C 66.6927 165.558 69.2128 166.325 71.7676 166.984 C 74.3073 167.638 76.8826 168.186 79.498 168.609 C 82.1071 169.031 84.7112 169.505 87.3203 169.938 C 89.9332 170.371 92.5497 170.763 95.1797 171.027 C 98.1703 171.327 101.164 171.529 104.162 171.643 C 107.16 171.757 110.163 171.784 113.166 171.738 C 116.164 171.691 119.164 171.573 122.164 171.393 C 124.975 171.224 127.755 170.917 130.51 170.492 C 133.278 170.065 136.019 169.517 138.742 168.865 C 141.456 168.214 144.151 167.461 146.83 166.621 C 149.321 165.84 151.766 164.957 154.168 163.98 C 156.577 162.999 158.943 161.925 161.27 160.764 C 163.591 159.606 165.871 158.362 168.119 157.041 C 169.624 156.156 171.263 155.478 172.689 154.488 C 174.447 153.268 175.862 151.67 177.221 149.98 C 179.172 147.552 181.052 145.084 182.83 142.543 C 184.609 140.003 186.284 137.39 187.824 134.678 C 189.074 132.478 190.192 130.223 191.229 127.932 C 192.268 125.636 193.226 123.302 194.152 120.957 C 195.077 118.614 195.972 116.257 196.885 113.908 C 197.866 111.385 198.71 108.837 199.424 106.264 C 200.144 103.669 200.732 101.047 201.197 98.4062 C 201.663 95.7643 202.004 93.101 202.232 90.418 C 202.458 87.7535 202.571 85.0696 202.58 82.3691 C 202.59 79.5043 202.579 76.6362 202.508 73.7695 C 202.436 70.9015 202.305 68.0363 202.078 65.1816 C 201.868 62.5304 201.566 59.8801 201.193 57.2402 C 200.82 54.6016 200.377 51.9732 199.885 49.3594 C 199.371 46.6235 198.751 43.9077 198.1 41.1973 C 197.45 38.4895 196.768 35.7858 196.129 33.0762 C 195.436 30.1316 194.624 27.2426 193.627 24.4395 C 192.618 21.6048 191.42 18.8586 189.961 16.2344 C 188.524 13.6502 186.833 11.1834 184.824 8.86719 C 184.442 8.42719 184.009 7.90856 183.494 7.72656 C 180.839 6.79056 178.196 5.73239 175.457 5.15039 C 173.158 4.66239 170.734 4.75514 168.363 4.61914 C 168.363 4.61914 168.363 4.61914 168.363 4.61914"
   style="clip-rule:evenodd;fill-rule:evenodd"
   id="path946" /><path fill="black"
   d="M 123.797 61.6543 C 123.797 61.6543 129.363 61.6543 129.363 61.6543 C 128.991 60.336 128.61 59.02 128.246 57.6992 C 127.436 54.7588 126.904 51.7758 126.498 48.7715 C 126.498 48.7715 121.027 48.7715 121.027 48.7715 C 121.141 49.499 121.185 50.2362 121.318 50.9609 C 121.766 53.401 122.315 55.8244 122.9 58.2383 C 123.178 59.382 123.498 60.5157 123.797 61.6543 C 123.797 61.6543 123.797 61.6543 123.797 61.6543"
   style="clip-rule:evenodd;fill-rule:evenodd"
   id="path904" /><path fill="black"
   d="M 114.975 61.6543 C 114.975 61.6543 111.848 61.6543 111.848 61.6543 C 112.463 63.1516 113.106 64.6408 113.645 66.1602 C 114.497 68.5595 115.263 70.9838 115.969 73.4277 C 116.675 75.8681 117.321 78.3282 117.936 80.8008 C 118.35 82.4603 118.773 84.1176 119.201 85.7734 C 119.629 87.4293 120.061 89.0833 120.492 90.7383 C 120.883 92.2393 120.846 93.7141 120.301 95.4141 C 119.615 94.6701 119.042 94.0439 118.467 93.4199 C 117.282 92.1299 116.118 90.8184 114.895 89.5664 C 114.487 89.1494 113.951 88.8332 113.424 88.5742 C 113.195 88.4632 112.775 88.5287 112.559 88.6797 C 112.417 88.7797 112.428 89.1894 112.473 89.4414 C 112.968 92.1644 113.588 94.8675 113.967 97.6055 C 114.251 99.6511 114.194 102.276 113.896 104.848 C 113.59 107.489 113.03 110.074 112.322 111.92 C 112.226 111.767 112.104 111.658 112.084 111.533 C 111.739 109.353 110.869 107.403 109.875 105.508 C 108.877 103.606 107.754 101.758 106.912 99.7871 C 106.516 98.8571 105.249 98.7602 104.639 99.6152 C 104.22 100.202 103.858 100.983 103.846 101.682 C 103.803 104.219 103.918 106.759 103.98 109.572 C 102.645 109.005 101.182 108.404 99.7383 107.758 C 99.2333 107.532 98.796 107.15 98.291 106.926 C 97.492 106.572 96.7087 106.591 96.1777 107.404 C 95.6767 108.171 95.9367 108.898 96.5527 109.441 C 98.4077 111.076 100.481 112.268 103.01 112.543 C 103.94 112.644 104.841 112.999 105.77 113.098 C 106.346 113.159 107.166 113.149 107.475 112.807 C 107.738 112.515 107.638 111.548 107.34 111.148 C 105.545 108.73 105.621 106.05 105.967 102.971 C 106.934 104.704 107.837 106.378 108.555 108.082 C 109.3 109.853 109.845 111.657 110.049 113.594 C 110.117 114.227 110.13 114.873 110.264 115.492 C 110.492 116.556 111.432 116.842 112.238 116.131 C 112.327 116.052 112.414 115.961 112.475 115.861 C 113.683 113.851 114.822 111.815 115.682 109.678 C 116.541 107.545 117.123 105.312 117.221 102.91 C 117.318 100.568 117.236 98.2181 117.236 95.6191 C 117.643 96.1041 118.007 96.5904 118.422 97.0254 C 119.273 97.9154 120.317 98.4186 121.543 98.0586 C 122.755 97.7026 122.981 96.5767 123.227 95.5137 C 123.669 93.6037 123.543 91.7426 122.695 89.9766 C 124.229 89.7966 125.733 89.8214 127.098 89.4004 C 128.435 88.9874 129.632 88.1186 131.16 87.3066 C 131.549 89.7776 132.08 92.0974 132.252 94.4434 C 132.455 97.2065 132.257 99.9157 131.803 102.59 C 131.35 105.263 130.639 107.9 129.816 110.52 C 129.327 112.079 129.112 113.722 128.77 115.326 C 128.922 115.394 129.076 115.463 129.229 115.531 C 129.459 115.289 129.766 115.085 129.902 114.797 C 130.936 112.65 131.884 110.472 132.732 108.262 C 133.584 106.042 134.334 103.788 134.967 101.5 C 135.598 99.2176 136.113 96.9013 136.494 94.5469 C 136.828 92.4969 136.796 90.4408 136.543 88.4023 C 136.291 86.3717 135.818 84.3566 135.271 82.377 C 134.513 79.6289 133.731 76.8884 132.943 74.1484 C 132.154 71.4084 131.358 68.6699 130.57 65.9297 C 130.161 64.5064 129.766 63.0793 129.363 61.6543 C 129.363 61.6543 123.797 61.6543 123.797 61.6543 C 124.137 62.9524 124.458 64.2558 124.818 65.5488 C 125.495 67.975 126.201 70.3929 126.912 72.8105 C 127.623 75.2279 128.341 77.6441 129.037 80.0645 C 129.967 83.2985 129.986 83.2503 127.107 85.0273 C 125.586 85.9663 123.996 86.0552 122.398 85.8652 C 121.86 83.2002 121.405 80.6145 120.809 78.0605 C 120.18 75.3611 119.503 72.6888 118.639 70.0742 C 117.78 67.475 116.736 64.9327 115.371 62.4785 C 115.222 62.2096 115.12 61.9246 114.975 61.6543 C 114.975 61.6543 114.975 61.6543 114.975 61.6543"
   style="clip-rule:evenodd;fill-rule:evenodd"
   id="path902" /><path fill="black"
   d="M 109.598 48.7715 C 109.598 48.7715 106.6 48.7715 106.6 48.7715 C 106.766 49.2566 106.898 49.7557 107.076 50.2363 C 108.189 53.237 109.51 56.1565 110.818 59.0762 C 111.199 59.9251 111.496 60.7974 111.848 61.6543 C 111.848 61.6543 114.975 61.6543 114.975 61.6543 C 113.811 59.4934 112.728 57.3047 111.805 55.0645 C 110.956 53.0034 110.264 50.891 109.598 48.7715 C 109.598 48.7715 109.598 48.7715 109.598 48.7715"
   style="clip-rule:evenodd;fill-rule:evenodd"
   id="path900" /><path fill="black"
   d="M 55.5547 15.4199 C 55.5547 15.4199 55.5547 24.4004 55.5547 24.4004 C 55.5547 24.4004 57.9824 24.4004 57.9824 24.4004 C 57.8602 22.4051 57.5672 20.4657 56.9512 18.6309 C 56.5815 17.5297 56.0701 16.4742 55.5547 15.4199 C 55.5547 15.4199 55.5547 15.4199 55.5547 15.4199"
   style="clip-rule:evenodd;fill-rule:evenodd"
   id="path898" /><path fill="black"
   d="M 55.5547 4.37109 C 56.5191 4.33722 57.4817 4.66356 58.1992 5.41406 C 59.2232 6.48506 60.1377 7.9237 60.4707 9.3457 C 61.2215 12.5546 61.4368 15.7113 61.0488 18.791 C 60.8088 20.6966 60.25 22.5599 59.5332 24.4004 C 59.5332 24.4004 64.1895 24.4004 64.1895 24.4004 C 64.1895 24.4004 64.1895 21.4012 64.1895 17.724 C 64.1895 15.5756 64.1895 13.1959 64.1895 11.0476 C 64.1895 7.37031 64.1895 4.37109 64.1895 4.37109 C 64.1895 4.37109 55.5547 4.37109 55.5547 4.37109 C 55.5547 4.37109 55.5547 4.37109 55.5547 4.37109"
   style="clip-rule:evenodd;fill-rule:evenodd"
   id="path966" /><path fill="black"
   d="M 93.3652 0.208984 C 90.9802 -0.425016 88.6352 0.501422 86.4062 1.35742 C 84.201 2.20418 82.4083 3.48417 80.8906 5.05078 C 79.3684 6.62199 78.1233 8.4805 77.0137 10.4805 C 76.3867 11.6085 75.6289 12.6659 74.8789 13.8379 C 74.0015 11.317 73.3537 9.79918 72.3281 8.625 C 71.2974 7.44507 69.8849 6.6114 67.4746 5.45508 C 64.7566 4.15108 61.9661 2.99181 59.1621 1.88281 C 57.502 1.22567 55.8587 0.942304 54.2617 1.0918 C 52.6678 1.24099 51.1214 1.82117 49.6504 2.89062 C 48.2724 3.89162 46.927 5.00067 45.791 6.26367 C 43.7368 8.5483 41.9538 10.9672 40.418 13.5098 C 38.8581 16.0925 37.5548 18.8032 36.4844 21.6289 C 35.4305 24.4109 34.6019 27.3057 33.9785 30.3008 C 33.3538 33.3023 32.9641 36.3181 32.7461 39.3477 C 32.5278 42.3803 32.4819 45.4264 32.541 48.4824 C 32.5428 48.5773 32.5395 48.6766 32.541 48.7715 C 32.541 48.7715 38.3535 48.7715 38.3535 48.7715 C 38.3386 47.7797 38.171 46.9322 38.2109 45.8984 C 38.3216 43.0292 38.6379 40.0248 39.125 37.0273 C 39.6055 34.07 40.2517 31.1193 41.0332 28.3145 C 41.8777 25.2838 42.879 22.4221 43.9961 19.9043 C 45.4046 16.7295 46.9987 14.1016 48.6934 12.3672 C 49.8939 14.0331 50.9462 15.7601 51.7812 17.5781 C 52.6206 19.405 53.2406 21.3229 53.5664 23.3594 C 53.9364 25.6694 53.9616 28.0322 54.1816 30.3672 C 54.3296 31.9412 54.9671 32.5001 56.5391 32.6621 C 57.9391 32.8061 59.232 32.6121 60.168 31.7051 C 61.303 32.4331 62.3469 33.0635 63.3359 33.7715 C 63.5579 33.9315 63.6966 34.3728 63.6836 34.6758 C 63.571 37.3046 63.6941 39.8945 63.9941 42.4551 C 64.2434 44.5826 64.679 46.6798 65.1406 48.7715 C 65.1406 48.7715 68.3242 48.7715 68.3242 48.7715 C 67.9743 47.1842 67.5434 45.6085 67.3027 44.0059 C 66.8413 40.9327 66.6145 37.8267 66.7539 34.6699 C 66.7869 33.9139 66.9757 33.4689 67.6387 33.0469 C 70.0777 31.4919 72.0298 29.4104 73.6738 27.0254 C 73.8268 27.0614 73.9798 27.0978 74.1328 27.1348 C 74.1328 29.7168 74.1549 32.2998 74.1309 34.8828 C 74.1069 37.2567 74.2339 39.6104 74.4727 41.9492 C 74.7062 44.2364 75.0528 46.5078 75.4609 48.7715 C 75.4609 48.7715 79.668 48.7715 79.668 48.7715 C 79.4867 47.8864 79.2922 47.0039 79.1191 46.1172 C 78.6619 43.7753 78.3372 41.4216 78.1348 39.0605 C 77.9318 36.6925 77.8513 34.3185 77.8848 31.9414 C 77.9182 29.5707 78.0653 27.1975 78.3145 24.8281 C 78.5474 22.61 78.9497 20.3974 79.582 18.2637 C 80.2174 16.1196 81.0837 14.0547 82.2441 12.1426 C 83.5476 9.99484 85.1292 8.09522 87.0684 6.72461 C 88.9747 5.37723 91.2268 4.54086 93.9043 4.48633 C 96.0653 4.44233 97.9745 5.59166 99.3125 7.34766 C 100.673 9.13346 101.716 11.0541 102.357 13.082 C 103.004 15.1309 103.241 17.2878 102.979 19.5273 C 102.697 21.9464 102.662 24.337 102.781 26.7109 C 102.902 29.1081 103.18 31.4893 103.516 33.8672 C 103.85 36.2367 104.242 38.6034 104.594 40.9805 C 104.995 43.6797 105.734 46.25 106.6 48.7715 C 106.6 48.7715 109.598 48.7715 109.598 48.7715 C 109.442 48.2762 109.228 47.799 109.082 47.3008 C 108.31 44.6736 107.666 42.0077 107.129 39.3086 C 106.597 36.6292 106.171 33.9186 105.832 31.1836 C 105.663 29.8156 105.809 28.4088 105.809 26.7578 C 107.377 28.7378 108.721 30.5188 110.16 32.2188 C 110.87 33.0568 111.655 33.9229 112.588 34.4609 C 114.265 35.4269 115.697 34.5142 115.781 32.5742 C 115.818 31.7212 115.787 30.8667 115.787 29.9297 C 116.457 30.2067 116.948 30.4762 117.473 30.6172 C 119.27 31.0992 119.997 30.5773 120.109 28.7363 C 120.203 27.1873 120.396 25.625 120.299 24.084 C 120.102 20.9349 119.412 18.0193 118.137 15.3945 C 116.865 12.7747 115.012 10.4453 112.488 8.46875 C 110.618 7.00362 108.63 5.79936 106.561 4.7793 C 104.47 3.74823 102.296 2.90642 100.078 2.16992 C 97.8717 1.43742 95.622 0.808947 93.3652 0.208984 C 93.3652 0.208984 93.3652 0.208984 93.3652 0.208984 M 55.5547 4.37109 C 55.5547 4.37109 64.1895 4.37109 64.1895 4.37109 C 64.1895 4.37109 64.1895 7.37029 64.1895 11.0475 C 64.1895 13.1958 64.1895 15.5756 64.1895 17.7239 C 64.1895 21.4012 64.1895 24.4004 64.1895 24.4004 C 64.1895 24.4004 59.5332 24.4004 59.5332 24.4004 C 59.0955 25.5243 58.654 26.6475 58.0293 27.7441 C 58.1376 26.5888 58.0496 25.498 57.9824 24.4004 C 57.9824 24.4004 55.5547 24.4004 55.5547 24.4004 C 55.5547 24.4004 55.5547 15.4199 55.5547 15.4199 C 54.7276 13.7283 53.791 12.0719 52.668 10.4746 C 51.378 8.64157 51.4334 6.88028 52.8984 5.48828 C 53.6244 4.79828 54.5903 4.40497 55.5547 4.37109 C 55.5547 4.37109 55.5547 4.37109 55.5547 4.37109 M 102.439 6.58203 C 105.085 7.17161 107.703 8.71095 109.979 10.8145 C 112.083 12.7589 113.896 15.1862 115.172 17.791 C 116.509 20.5223 117.254 23.4502 117.125 26.2227 C 116.238 24.9087 115.441 23.786 114.705 22.627 C 113.498 20.724 112.165 18.9401 110.676 17.2969 C 109.188 15.6545 107.547 14.154 105.723 12.8164 C 105.42 12.5934 105.146 12.2657 104.98 11.9277 C 104.093 10.1177 103.245 8.28703 102.439 6.58203 C 102.439 6.58203 102.439 6.58203 102.439 6.58203"
   style="clip-rule:evenodd;fill-rule:evenodd"
   id="path964" /><path fill="black"
   d="M 29.2075 91.8659 C 32.4355 92.0529 35.5555 91.5979 38.4655 90.1189 C 40.0474 89.3142 41.3739 88.2836 42.4518 87.0362 C 43.5291 85.7894 44.3581 84.326 44.9455 82.6549 C 45.0375 82.3929 45.0995 82.1169 45.2225 81.8699 C 45.6845 80.9459 46.4085 80.4739 47.4575 80.7459 C 48.3985 80.9899 48.9525 81.9539 48.7055 83.0129 C 48.0655 85.7549 46.6665 88.1029 44.7305 90.1089 C 43.1765 91.7197 41.4266 92.95 39.5163 93.8332 C 37.5986 94.7198 35.5193 95.2564 33.3145 95.4769 C 31.0765 95.7019 28.7975 95.5759 26.5395 95.5119 C 25.2785 95.4769 24.4865 94.6189 24.5315 93.5929 C 24.5785 92.5399 25.4235 91.8659 26.7005 91.8649 C 27.5375 91.8659 28.3725 91.8659 29.2075 91.8659 C 29.2075 91.8659 29.2075 91.8659 29.2075 91.8659"
   id="path760"
   style="clip-rule:evenodd;fill-rule:evenodd" /><path fill="black"
   d="M 36.7575 78.7259 C 39.8145 78.6399 40.4365 79.1959 40.6715 81.3109 C 40.8795 83.1819 40.6025 84.7679 38.6535 85.6729 C 37.1265 86.3819 35.7265 87.4139 34.1515 87.9599 C 32.5395 88.5199 30.9175 88.1269 29.6655 86.8169 C 28.5935 85.6949 28.4775 84.8339 29.2645 83.4869 C 31.1395 80.2809 34.0705 78.8979 36.7575 78.7259 C 36.7575 78.7259 36.7575 78.7259 36.7575 78.7259"
   id="path762"
   style="clip-rule:evenodd;fill-rule:evenodd" />
</svg>
