<?xml version="1.0" encoding="UTF-8" standalone="no"?>
<svg
   xmlns:dc="http://purl.org/dc/elements/1.1/"
   xmlns:cc="http://creativecommons.org/ns#"
   xmlns:rdf="http://www.w3.org/1999/02/22-rdf-syntax-ns#"
   xmlns:svg="http://www.w3.org/2000/svg"
   xmlns="http://www.w3.org/2000/svg"
   enable-background="new 0 0 648 504"
   version="1.1"
   viewBox="0 0 202.58428 171.75977"
   xml:space="preserve"
   id="svg766"
   width="53.600422mm"
   height="45.444775mm"><metadata
   id="metadata772"><rdf:RDF><cc:Work
       rdf:about=""><dc:format>image/svg+xml</dc:format><dc:type
         rdf:resource="http://purl.org/dc/dcmitype/StillImage" /><dc:title></dc:title></cc:Work></rdf:RDF></metadata><defs
   id="defs770">
	
	
	
</defs>
<path
   d="M 169.05859 61.654297 L 160.54688 61.654297 C 161.4966 63.967328 162.5089 66.246481 163.67969 68.441406 C 165.11969 71.140006 166.66697 73.782372 168.16797 76.451172 C 169.36597 78.580472 170.48353 80.762716 171.64453 82.916016 C 172.81053 85.076716 174.01958 87.209516 175.39258 89.228516 C 177.03258 91.637816 178.39058 94.134331 179.51758 96.707031 C 180.66558 99.325531 181.57297 102.02116 182.29297 104.78516 C 183.00597 107.52016 183.53564 110.32178 183.93164 113.17578 C 183.95864 113.37178 183.98753 113.56867 184.01953 113.76367 C 184.02453 113.79567 184.05898 113.82025 184.20898 114.03125 C 184.39598 113.60825 184.63797 113.29494 184.66797 112.96094 C 184.85897 110.86394 185.08763 108.76316 185.14062 106.66016 C 185.19763 104.41116 184.91892 102.2288 184.41992 100.0918 C 183.91992 97.953197 183.19905 95.859922 182.37305 93.794922 C 181.40405 91.368922 180.30714 89.012178 179.11914 86.705078 C 177.92914 84.392278 176.64559 82.129784 175.30859 79.896484 C 173.97459 77.666784 172.58473 75.465791 171.17773 73.275391 C 169.99473 71.433391 168.86616 69.555344 167.78516 67.652344 C 167.57216 67.277344 167.51241 66.627 167.69141 66.25 C 168.40033 64.753375 168.80154 63.212602 169.05859 61.654297 z "
   style="clip-rule:evenodd;fill-rule:evenodd"
   id="path758" /><path
   d="M 168.48438 48.771484 L 164.01562 48.771484 C 164.01822 49.139949 164.10469 49.499873 164.09961 49.869141 C 164.06161 52.661241 163.81022 55.475634 163.44922 58.302734 C 162.33022 55.752734 161.38131 53.15925 160.57031 50.53125 C 160.39193 49.952217 160.28636 49.353971 160.12109 48.771484 L 156.58398 48.771484 C 156.855 49.987986 157.06472 51.218164 157.38672 52.423828 C 158.07872 55.012828 158.88998 57.575828 159.83398 60.111328 C 160.03332 60.646156 160.33093 61.128368 160.54688 61.654297 L 169.05859 61.654297 C 169.11482 61.31343 169.21159 60.977665 169.25 60.634766 C 169.467 58.706566 169.41389 56.747062 169.21289 54.789062 C 169.00718 52.779184 168.74615 50.77577 168.48438 48.771484 z "
   style="clip-rule:evenodd;fill-rule:evenodd"
   id="path914" /><path
   d="M 75.460938 48.771484 C 75.471796 48.831711 75.475373 48.892912 75.486328 48.953125 C 75.908028 51.271225 76.401628 53.580266 76.923828 55.884766 C 77.360253 57.810594 77.814382 59.731571 78.265625 61.654297 L 82.443359 61.654297 C 82.381053 61.37261 82.3222 61.090256 82.259766 60.808594 C 81.717966 58.363894 81.172478 55.919656 80.642578 53.472656 C 80.303757 51.908301 79.98903 50.339283 79.667969 48.771484 L 75.460938 48.771484 z "
   style="clip-rule:evenodd;fill-rule:evenodd"
   id="path912" /><path
   d="M 65.140625 48.771484 C 65.239244 49.218363 65.278282 49.675566 65.384766 50.121094 C 65.986666 52.639294 66.708941 55.135194 67.494141 57.621094 C 67.931006 59.00518 68.587947 60.319718 69.183594 61.654297 L 71.802734 61.654297 C 71.336434 60.486991 70.874673 59.318343 70.541016 58.119141 C 70.083416 56.474941 69.700872 54.811956 69.263672 53.160156 C 68.8791 51.707536 68.646408 50.233087 68.324219 48.771484 L 65.140625 48.771484 z "
   style="clip-rule:evenodd;fill-rule:evenodd"
   id="path910" /><path
   d="M 16.564453 60.492188 L 16.564453 61.654297 L 30.056641 61.654297 C 30.527097 61.520144 30.971707 61.320695 31.447266 61.199219 C 31.710266 61.132219 31.982953 61.1065 32.251953 61.0625 C 32.032666 61.244877 31.887636 61.467739 31.677734 61.654297 L 33.988281 61.654297 C 36.182708 60.33235 38.713915 59.547111 40.748047 60.050781 C 42.485247 60.480681 44.253187 60.788066 45.992188 61.197266 C 46.445005 61.303817 46.864662 61.530019 47.3125 61.654297 L 57.609375 61.654297 C 56.7452 60.979392 55.832142 60.367211 54.888672 59.853516 C 52.933272 58.788916 50.942266 57.786466 48.884766 56.947266 C 46.831266 56.109766 44.711753 55.436037 42.501953 55.023438 C 41.269953 54.793438 39.983297 54.865875 38.654297 54.796875 C 38.360286 52.992995 38.384842 50.85153 38.353516 48.771484 L 32.541016 48.771484 C 32.576993 50.978785 32.546875 53.18542 32.546875 55.496094 C 30.727875 55.836094 28.858516 56.224109 26.978516 56.537109 C 24.417216 56.957809 22.007859 57.650575 19.755859 58.609375 C 18.608263 59.097959 17.629622 59.866255 16.564453 60.492188 z "
   style="clip-rule:evenodd;fill-rule:evenodd"
   id="path908" /><path
   d="M 156.73242 25.394531 C 159.28142 27.263531 158.54831 29.571484 158.32031 31.771484 C 156.48331 30.045484 157.22442 27.714531 156.73242 25.394531 z "
   style="clip-rule:evenodd;fill-rule:evenodd"
   id="path906" /><path
   d="M 105.89258 17.515625 C 105.73358 18.448625 105.53848 19.144656 105.52148 19.847656 C 105.50948 20.343656 105.60372 20.948125 105.88672 21.328125 C 107.49772 23.491125 109.1798 25.602516 110.8418 27.728516 C 111.4498 28.506516 112.07055 29.275828 112.68555 30.048828 C 112.60855 27.386328 111.82937 25.130463 110.60938 23.101562 C 109.39037 21.072662 107.72958 19.271625 105.89258 17.515625 z "
   style="clip-rule:evenodd;fill-rule:evenodd"
   id="path940" /><path
   d="M 156.30469 14.4375 C 156.67731 14.4965 157.02406 14.698813 157.35156 15.070312 C 159.07756 17.022314 160.47608 19.134578 161.58008 21.392578 C 162.68508 23.652778 163.49411 26.05845 164.03711 28.59375 C 164.15111 29.12575 164.1412 29.718 164.0332 30.25 C 163.9682 30.562 163.58033 31.046203 163.36133 31.033203 C 163.01633 31.013203 162.55258 30.712391 162.39258 30.400391 C 162.14658 29.922391 162.10705 29.336969 161.99805 28.792969 C 161.38905 25.773969 159.94475 23.407875 156.96875 22.171875 C 156.68675 22.053875 156.41266 21.636406 156.34766 21.316406 C 155.90666 19.144406 155.52266 16.961062 155.09766 14.664062 C 155.53366 14.462563 155.93206 14.3785 156.30469 14.4375 z "
   style="clip-rule:evenodd;fill-rule:evenodd"
   id="path938" /><path
   d="M 179.93359 9.5253906 C 180.96559 9.7533906 182.17422 11.601625 182.32422 13.140625 C 182.48922 14.830625 182.07417 15.533031 180.70117 16.207031 C 178.55217 17.261231 176.66623 18.609947 174.99023 20.185547 C 173.31223 21.763547 171.8433 23.570016 170.5293 25.541016 C 169.1683 27.584016 167.87191 29.670047 166.37891 31.998047 C 166.24291 30.162047 166.12916 28.701281 166.03516 27.238281 C 166.02016 27.009281 166.04248 26.743875 166.14648 26.546875 C 167.31248 24.355375 168.45323 22.148578 169.61523 19.955078 C 170.77723 17.760578 171.96003 15.579094 173.20703 13.433594 C 174.48603 11.231594 176.61847 9.9095937 179.23047 9.5585938 C 179.46247 9.5265936 179.71259 9.4763906 179.93359 9.5253906 z "
   style="clip-rule:evenodd;fill-rule:evenodd"
   id="path936" /><path
   d="M 64.390625 7.4667969 C 64.502625 7.7727969 64.597641 8.0156719 64.681641 8.2636719 C 65.600241 10.984012 66.116391 13.714606 66.150391 16.441406 C 66.184491 19.173606 65.734703 21.900628 64.720703 24.611328 C 64.072703 26.344328 64.171594 27.996016 64.183594 30.041016 C 65.086594 29.274016 65.886422 28.7555 66.482422 28.0625 C 67.791422 26.541 68.83435 24.904478 69.59375 23.142578 C 70.35015 21.387578 70.823894 19.507641 70.996094 17.494141 C 71.194694 15.167341 70.660622 12.991081 69.544922 11.238281 C 68.391622 9.4262615 66.617425 8.0686269 64.390625 7.4667969 z "
   style="clip-rule:evenodd;fill-rule:evenodd"
   id="path934" /><path
   d="M 58.894531 62.814453 C 58.467914 62.424306 58.067243 62.011883 57.609375 61.654297 L 47.3125 61.654297 C 48.581177 62.006363 49.856574 62.3334 51.052734 62.949219 C 51.460734 63.159219 51.860266 63.385719 52.322266 63.636719 C 50.425266 64.388719 48.647594 65.025781 46.933594 65.800781 C 45.925594 66.256781 45.024406 66.940812 44.066406 67.507812 C 42.254406 68.580814 41.662344 70.218359 42.027344 72.193359 C 42.411344 74.276359 43.807625 75.502719 45.765625 76.136719 C 47.489925 76.694919 49.205075 76.962013 50.921875 76.945312 C 52.631075 76.928714 54.341706 76.630794 56.066406 76.058594 C 56.965988 75.759887 57.93988 75.703418 58.894531 75.572266 L 58.894531 74.111328 C 57.672325 74.33337 56.438426 74.521533 55.255859 74.855469 C 53.453559 75.364469 51.648919 75.815219 49.699219 75.636719 C 51.567219 74.396719 52.345203 72.682703 51.908203 70.595703 C 51.463203 68.464703 49.658922 67.658062 47.544922 66.789062 C 48.904922 66.285062 50.027031 65.753125 51.207031 65.453125 C 52.950531 65.010125 53.600156 64.758281 54.050781 64.941406 C 54.501406 65.124531 54.753172 65.742563 55.701172 67.039062 C 56.736519 68.455253 57.82094 69.836164 58.894531 71.224609 L 58.894531 62.814453 z "
   style="clip-rule:evenodd;fill-rule:evenodd"
   id="path932" /><path
   d="M 58.894531 62.814453 L 58.894531 71.224609 C 59.23325 71.662665 59.566337 72.105067 59.902344 72.544922 C 60.159344 72.880922 60.402531 73.227516 60.769531 73.728516 C 60.112591 73.748 59.524289 73.996918 58.894531 74.111328 L 58.894531 75.572266 C 59.595378 75.475982 60.272184 75.281309 60.970703 75.214844 C 61.472703 75.166844 62.160109 75.566703 62.537109 75.970703 C 63.459109 76.957703 64.330594 78.012484 65.058594 79.146484 C 65.449594 79.756484 65.705969 80.5955 65.667969 81.3125 C 65.518969 84.1295 64.554688 86.733641 63.429688 89.306641 C 62.642687 91.106641 62.158891 93.035906 61.462891 94.878906 C 61.295891 95.321906 60.882328 95.725578 60.486328 96.017578 C 59.957398 96.407197 59.42484 96.791979 58.894531 97.179688 L 58.894531 99.423828 C 59.530705 98.959558 60.172042 98.502275 60.804688 98.033203 C 62.209687 96.991203 63.464297 95.911766 63.654297 93.884766 C 63.770297 92.636766 64.650219 91.475328 65.074219 90.236328 C 65.980219 87.593328 66.811797 84.926531 67.591797 82.519531 C 68.722797 83.584531 70.058641 84.997938 71.556641 86.210938 C 73.031641 87.406937 74.598625 88.532686 76.265625 89.429688 C 77.296625 89.984686 77.567594 90.606938 77.058594 91.460938 C 76.105594 93.058937 75.133594 94.680844 73.933594 96.089844 C 72.546194 97.719944 71.022534 99.157124 69.302734 100.29492 C 67.593834 101.42492 65.691569 102.25741 63.542969 102.69141 C 63.154969 102.76941 62.724828 102.84531 62.423828 103.07031 C 62.127828 103.29131 61.969953 103.70039 61.751953 104.02539 C 62.098953 104.21639 62.442922 104.56427 62.794922 104.57227 C 65.528022 104.63327 67.942956 104.00786 70.160156 102.92188 C 72.379556 101.83487 74.400797 100.28891 76.341797 98.507812 C 78.106097 96.890213 79.407113 95.012884 80.507812 93.021484 C 81.619314 91.010384 82.526894 88.88145 83.496094 86.78125 C 84.206594 85.24325 84.801156 83.671086 85.160156 82.054688 C 85.519156 80.438287 85.642656 78.777953 85.410156 77.064453 C 85.004156 74.076453 84.476469 71.099437 83.855469 68.148438 C 83.399538 65.980799 82.921845 63.817522 82.443359 61.654297 L 78.265625 61.654297 C 78.504545 62.672326 78.739049 63.690663 78.976562 64.708984 C 79.662663 67.650684 80.335266 70.595734 80.947266 73.552734 C 81.345866 75.479534 81.430491 77.425834 81.400391 79.427734 C 81.371791 81.333234 81.238681 83.289625 81.175781 85.328125 C 79.916781 84.659125 78.913406 84.160516 77.941406 83.603516 C 75.111406 81.981516 74.226844 78.979031 72.714844 76.082031 C 73.245844 76.365031 73.581594 76.564516 73.933594 76.728516 C 74.829594 77.146516 75.776953 77.443375 76.626953 76.734375 C 77.441953 76.054375 77.202814 75.109875 76.882812 74.296875 C 76.134813 72.395775 75.412709 70.480978 74.662109 68.580078 C 73.910309 66.676378 73.129819 64.7863 72.261719 62.9375 C 72.065702 62.520002 71.972036 62.078114 71.802734 61.654297 L 69.183594 61.654297 C 69.317397 61.954089 69.436667 62.258071 69.5625 62.560547 C 70.2785 64.283047 70.993078 66.006469 71.705078 67.730469 C 72.417078 69.454469 73.126936 71.178797 73.835938 72.904297 C 73.904937 73.072297 73.892453 73.274375 73.939453 73.609375 C 73.124453 73.172375 72.452094 72.771406 71.746094 72.441406 C 69.887094 71.572406 69.044234 72.1425 69.115234 74.1875 C 69.123234 74.4145 69.117188 74.642281 69.117188 75.238281 C 67.879188 73.599281 66.867064 72.197656 65.789062 70.847656 C 63.880063 68.456656 62.060125 65.974531 59.953125 63.769531 C 59.62891 63.430004 59.245848 63.135737 58.894531 62.814453 z "
   style="clip-rule:evenodd;fill-rule:evenodd"
   id="path930" /><path
   d="M 7.3613281 79.351562 L 7.3613281 82.322266 C 8.4641483 80.721383 9.5419224 79.098649 10.773438 77.611328 C 12.566738 75.445528 14.519625 73.416359 16.703125 71.568359 C 18.349925 70.174159 20.06685 69.1365 21.90625 68.625 C 23.74385 68.114 25.703437 68.127831 27.835938 68.832031 C 28.792938 69.148031 29.136297 68.750547 29.154297 67.935547 C 29.200397 65.789347 31.066716 63.480072 33.478516 61.888672 C 33.637642 61.783676 33.82477 61.752798 33.988281 61.654297 L 31.677734 61.654297 C 29.863164 63.267066 28.365913 65.031658 27.958984 67.599609 C 27.348984 67.488609 26.847469 67.414734 26.355469 67.302734 C 23.490469 66.646734 20.841656 67.166359 18.347656 68.693359 C 15.979956 70.142859 13.889481 71.872022 11.988281 73.794922 C 10.302104 75.500397 8.807292 77.401369 7.3613281 79.351562 z "
   style="clip-rule:evenodd;fill-rule:evenodd"
   id="path928" /><path
   d="M 7.3613281 68.726562 L 7.3613281 77.142578 C 8.4616564 75.022729 9.7425783 73.074654 11.316406 71.402344 C 13.144106 69.460344 15.304372 67.829397 17.826172 66.529297 C 20.007072 65.404497 22.222028 64.377616 24.486328 63.478516 C 26.299183 62.758623 28.172036 62.191702 30.056641 61.654297 L 16.564453 61.654297 L 16.564453 60.492188 C 15.470875 61.134813 14.292266 61.638122 13.287109 62.423828 C 11.352309 63.936328 9.583225 65.712894 7.984375 67.746094 C 7.7389332 68.058204 7.5959483 68.410214 7.3613281 68.726562 z "
   style="clip-rule:evenodd;fill-rule:evenodd"
   id="path926" /><path
   d="M 7.3613281 116.6582 L 7.3613281 104.6582 C 6.7190956 103.02972 6.0389567 101.41874 5.4199219 99.78125 C 5.2779219 99.40425 5.2406719 98.877578 5.3886719 98.517578 C 5.9819945 97.073922 6.6255374 95.655816 7.3613281 94.291016 L 7.3613281 91.65625 C 7.2159575 91.905443 7.0052374 92.080533 6.8671875 92.337891 C 6.0991875 93.768891 5.4115 95.245172 4.6875 96.701172 C 4.46165 94.607872 4.1044594 92.511559 4.1308594 90.443359 C 4.1567094 88.418159 4.5505244 86.419409 5.8027344 84.474609 C 6.2862474 83.724008 6.8575068 83.053626 7.3613281 82.322266 L 7.3613281 79.351562 C 7.1738504 79.604417 6.9462845 79.816467 6.7617188 80.072266 C 6.4387188 80.518266 6.1379844 80.981844 5.5839844 81.339844 C 5.9819844 80.278844 6.3100625 79.185109 6.7890625 78.162109 C 6.9579908 77.801305 7.1801304 77.491667 7.3613281 77.142578 L 7.3613281 68.726562 C 5.9749355 70.595893 4.681067 72.501609 3.6816406 74.521484 C 2.4906106 76.928584 1.5806606 79.443513 0.96289062 82.070312 C 0.36318963 84.620313 0.03942285 87.275964 0.00390625 90.039062 C -0.02780795 92.504763 0.15886175 94.920316 0.52734375 97.291016 C 0.90126375 99.696616 1.4623081 102.05505 2.1738281 104.37305 C 2.8835981 106.68505 3.7417606 108.95641 4.7128906 111.19141 C 5.5210962 113.05111 6.4455242 114.85258 7.3613281 116.6582 z "
   style="clip-rule:evenodd;fill-rule:evenodd"
   id="path924" /><path
   d="M 9.9570312 121.46875 L 17.373047 121.46875 C 16.196313 119.81469 14.986715 118.19156 13.910156 116.44336 C 13.597156 115.93536 13.2595 115.44245 12.9375 114.93945 C 12.8955 114.87445 12.878594 114.79323 12.808594 114.61523 C 12.987594 114.64123 13.131422 114.62364 13.232422 114.68164 C 16.311922 116.46164 19.444806 117.33147 22.628906 117.48047 C 25.822306 117.63047 29.066216 117.05531 32.353516 115.94531 C 35.290216 114.95331 38.079394 113.71023 40.746094 112.24023 C 43.411494 110.77223 45.955537 109.07678 48.398438 107.17578 C 50.425438 105.59778 52.496172 104.07736 54.576172 102.56836 C 56.01762 101.52281 57.4562 100.4735 58.894531 99.423828 L 58.894531 97.179688 C 57.786081 97.990076 56.677928 98.800752 55.566406 99.607422 C 53.923206 100.80022 52.278078 101.99131 50.642578 103.19531 C 49.232878 104.23331 47.85845 105.32362 46.46875 106.39062 C 45.07625 107.45964 43.669072 108.50598 42.201172 109.45898 C 39.411972 111.26898 36.470731 112.67048 33.394531 113.64648 C 30.319831 114.62148 27.111403 115.17044 23.783203 115.27344 C 21.839103 115.33344 19.966591 115.06042 18.150391 114.48242 C 16.396891 113.92442 14.695897 113.08228 13.029297 111.98828 C 14.025297 110.38728 14.959188 108.78214 15.992188 107.24414 C 17.189188 105.46214 18.277022 103.6328 19.169922 101.7168 C 20.062822 99.801194 20.760234 97.798828 21.177734 95.673828 C 21.512734 93.970828 21.765891 92.248437 21.962891 90.523438 C 22.177891 88.639437 21.541031 87.045219 19.957031 85.949219 C 18.379031 84.857219 16.687656 84.815109 14.972656 85.662109 C 14.651656 85.820109 14.353625 86.066672 14.015625 86.138672 C 10.795573 86.829074 8.8913268 89.033544 7.3613281 91.65625 L 7.3613281 94.291016 C 8.1657653 92.798884 9.0828799 91.371824 10.224609 90.078125 C 10.783609 89.445125 11.505891 88.957141 12.337891 88.244141 C 11.908891 90.938441 12.703059 92.893359 14.068359 94.005859 C 15.627959 95.276759 17.932572 95.448694 20.013672 94.371094 C 19.833672 95.360094 19.768531 96.211859 19.519531 97.005859 C 18.986531 98.703859 18.319916 100.33797 17.541016 101.91797 C 16.762216 103.49897 15.870219 105.02486 14.886719 106.50586 C 13.876719 108.02486 12.871375 109.54814 11.609375 111.45312 C 10.540375 110.21313 9.290875 109.23417 8.671875 107.95117 C 8.1604017 106.88913 7.7949561 105.75774 7.3613281 104.6582 L 7.3613281 116.6582 C 7.7111085 117.34784 8.0086943 118.06399 8.3730469 118.74609 C 8.867361 119.67173 9.4368994 120.55654 9.9570312 121.46875 z "
   style="clip-rule:evenodd;fill-rule:evenodd"
   id="path922" /><path
   d="M 131.74609 9.203125 L 141.25391 9.203125 C 141.88704 8.8977485 142.47288 8.5413753 143.13867 8.2714844 C 144.10467 7.8794844 144.74316 8.3152656 145.41016 8.8222656 C 145.56616 8.9410536 145.68155 9.0823495 145.83398 9.203125 L 154.23633 9.203125 C 153.70472 8.8917301 153.19264 8.5373501 152.64648 8.2578125 C 150.25248 7.0323225 147.73064 6.0874175 145.18164 5.2109375 C 143.77064 4.7259375 142.08205 4.5417814 140.62305 4.8007812 C 138.00805 5.2651413 135.68572 6.2445556 133.63672 7.6347656 C 132.96168 8.0927769 132.36201 8.6599541 131.74609 9.203125 z "
   style="clip-rule:evenodd;fill-rule:evenodd"
   id="path920" /><path
   d="M 126.60742 28.527344 C 127.32824 25.808505 128.31089 23.148845 129.55664 20.533203 C 130.97664 17.554103 132.86248 15.101791 135.14648 13.087891 C 136.93001 11.515673 139.01991 10.280633 141.25391 9.203125 L 131.74609 9.203125 C 130.48335 10.316727 129.2978 11.536578 128.27344 12.958984 C 126.62744 15.246084 125.27186 17.640553 124.17188 20.126953 C 123.05388 22.651253 122.20031 25.269897 121.57031 27.966797 C 121.52778 28.148848 121.52487 28.344584 121.48438 28.527344 L 126.60742 28.527344 z "
   style="clip-rule:evenodd;fill-rule:evenodd"
   id="path954" /><path
   d="M 126.60742 28.527344 L 121.48438 28.527344 C 120.93459 31.008505 120.53294 33.541106 120.32617 36.138672 C 120.12817 38.641072 120.15194 41.120178 120.33594 43.580078 C 120.46606 45.323024 120.75722 47.046371 121.02734 48.771484 L 126.49805 48.771484 C 126.48633 48.684708 126.45875 48.600488 126.44727 48.513672 C 126.03827 45.425572 125.77625 42.312106 125.53125 39.191406 C 125.27025 35.858306 125.57016 32.681863 126.28516 29.601562 C 126.36948 29.238337 126.51181 28.887991 126.60742 28.527344 z "
   style="clip-rule:evenodd;fill-rule:evenodd"
   id="path952" /><path
   d="M 172.07617 28.527344 L 154.01953 28.527344 C 154.04747 29.059905 154.06661 29.592724 154.09766 30.125 C 154.22166 32.2677 154.37412 34.407969 154.57812 36.542969 C 154.83613 39.230569 155.18934 41.897316 155.65234 44.541016 C 155.90191 45.964056 156.27004 47.362295 156.58398 48.771484 L 160.12109 48.771484 C 159.53223 46.696008 158.95876 44.61775 158.51758 42.501953 C 157.95658 39.806453 157.50295 37.079025 157.12695 34.328125 C 159.47395 34.653125 159.47497 34.654578 160.91797 33.392578 C 162.14397 36.038578 162.95222 38.724959 163.44922 41.443359 C 163.89104 43.860174 163.99832 46.311409 164.01562 48.771484 L 168.48438 48.771484 C 168.40892 48.193774 168.3522 47.61444 168.27344 47.037109 C 167.92044 44.458009 167.53834 41.882394 167.15234 39.308594 C 166.92134 37.761594 166.32386 36.266172 165.88086 34.701172 C 167.32586 35.038172 168.37255 34.226656 169.18555 33.097656 C 169.99555 31.971656 170.69678 30.763078 171.42578 29.580078 C 171.64232 29.22884 171.86524 28.88241 172.07617 28.527344 z "
   style="clip-rule:evenodd;fill-rule:evenodd"
   id="path950" /><path
   d="M 177.60352 21.316406 L 177.60352 9.203125 L 170.96289 9.203125 C 170.87292 9.4925452 170.79543 9.7935368 170.62891 10.060547 C 169.57391 11.752747 168.51294 13.440575 167.46094 15.109375 C 166.38494 16.815975 165.3193 18.501491 164.2793 20.150391 C 163.7493 19.011391 163.04348 17.547594 162.39648 16.058594 C 162.27348 15.774594 162.30639 15.363781 162.40039 15.050781 C 163.08719 12.737888 164.4231 10.856235 166.07031 9.203125 L 161.16211 9.203125 C 160.63474 9.987173 160.14827 10.801568 159.77148 11.693359 C 159.62448 12.041359 159.45566 12.378906 159.22266 12.878906 C 157.68556 11.384938 155.9902 10.23047 154.23633 9.203125 L 145.83398 9.203125 C 148.09598 10.995371 149.99966 12.987261 151.35156 15.291016 C 152.78556 17.735616 153.64125 20.507159 153.78125 23.693359 C 153.85265 25.304034 153.935 26.915957 154.01953 28.527344 L 172.07617 28.527344 C 173.0381 26.908125 173.95318 25.256658 175.03906 23.724609 C 175.75829 22.710613 176.68224 22.015102 177.60352 21.316406 z "
   style="clip-rule:evenodd;fill-rule:evenodd"
   id="path948" /><path
   d="M 168.36328 4.6191406 C 166.51528 4.5131406 164.93041 5.1805312 163.56641 6.3945312 C 162.62726 7.2307758 161.84824 8.1830547 161.16211 9.203125 L 166.07031 9.203125 C 166.4977 8.774207 166.82755 8.2747341 167.3125 7.8886719 C 167.8215 7.4836719 168.7083 7.1672187 169.2793 7.3242188 C 169.9873 7.5192188 170.628 8.1850625 171.125 8.7890625 C 171.17192 8.8457518 171.00637 9.0632654 170.96289 9.203125 L 177.60352 9.203125 L 177.60352 21.316406 C 179.15442 20.140193 180.88732 19.251553 183.00586 18.982422 C 183.72586 18.891422 184.36614 18.163 185.20312 17.625 C 186.02212 19.299 186.95448 21.073436 187.77148 22.898438 C 188.97348 25.579837 190.00381 28.306819 190.88281 31.074219 C 191.76681 33.856519 192.49675 36.679564 193.09375 39.539062 C 193.68775 42.383663 194.14809 45.264381 194.49609 48.175781 C 194.82209 50.899881 195.06609 53.626569 195.24609 56.355469 C 195.42609 59.089669 195.54233 61.826753 195.61133 64.564453 C 195.68033 67.301553 195.70427 70.039997 195.69727 72.779297 C 195.69027 75.517297 195.65347 78.255141 195.60547 80.994141 C 195.54947 84.172141 195.07227 87.343434 194.94727 90.523438 C 194.82127 93.760637 194.44109 96.939878 193.87109 100.07617 C 193.29709 103.23317 192.52981 106.34669 191.63281 109.42969 C 190.73981 112.50069 189.71791 115.54236 188.62891 118.56836 C 187.57591 121.49636 186.35881 124.33094 185.00781 127.08594 C 183.64581 129.86194 182.14786 132.55831 180.54688 135.19531 C 178.94687 137.82931 177.2428 140.40455 175.4668 142.93555 C 173.6978 145.45655 171.85661 147.93367 169.97461 150.38867 C 169.65061 150.81167 169.17359 151.21239 168.68359 151.40039 C 165.67559 152.55539 162.66939 153.71484 159.65039 154.83984 C 156.63039 155.96584 153.59897 157.05708 150.54297 158.08008 C 147.48997 159.10208 144.41288 160.05439 141.29688 160.90039 C 138.40188 161.68639 135.48955 162.34695 132.56055 162.87695 C 129.61955 163.40895 126.66055 163.80831 123.68555 164.07031 C 120.71955 164.33131 117.73633 164.45645 114.73633 164.43945 C 111.53233 164.42145 108.32319 164.39845 105.11719 164.31445 C 101.90919 164.22945 98.704719 164.08136 95.511719 163.81836 C 92.784319 163.59236 90.072653 163.25622 87.376953 162.82422 C 84.679953 162.39322 81.997878 161.86672 79.330078 161.26172 C 76.669078 160.65872 74.022972 159.97737 71.388672 159.23438 C 68.430872 158.39937 65.514978 157.46406 62.642578 156.41406 C 59.768778 155.36306 56.938897 154.19553 54.154297 152.89453 C 51.579297 151.69153 49.140937 150.26928 46.773438 148.73828 C 44.401238 147.20328 42.099481 145.55802 39.800781 143.91602 C 37.205781 142.06102 34.716237 140.10688 32.335938 138.04688 C 29.933537 135.96687 27.64305 133.78037 25.46875 131.48438 C 23.29465 129.18837 21.235628 126.78172 19.298828 124.26172 C 18.614033 123.37067 18.027174 122.38822 17.373047 121.46875 L 9.9570312 121.46875 C 10.823717 122.98875 11.663222 124.52411 12.595703 126.00586 C 14.085103 128.37286 15.653263 130.69275 17.289062 132.96875 C 18.935363 135.25975 20.698706 137.40688 22.566406 139.42188 C 24.469106 141.47488 26.481036 143.39336 28.585938 145.19336 C 30.700038 147.00036 32.909319 148.68844 35.199219 150.27344 C 37.477419 151.84944 39.835366 153.32294 42.259766 154.71094 C 44.659766 156.08594 47.124325 157.37666 49.640625 158.59766 C 52.014825 159.74966 54.409631 160.84519 56.832031 161.86719 C 59.261531 162.89119 61.717778 163.84022 64.205078 164.69922 C 66.692678 165.55822 69.212778 166.32537 71.767578 166.98438 C 74.307278 167.63837 76.882647 168.18637 79.498047 168.60938 C 82.107147 169.03137 84.711216 169.5045 87.320312 169.9375 C 89.933213 170.3715 92.549688 170.76334 95.179688 171.02734 C 98.170288 171.32734 101.16411 171.52858 104.16211 171.64258 C 107.16011 171.75658 110.16302 171.78428 113.16602 171.73828 C 116.16402 171.69128 119.16406 171.57258 122.16406 171.39258 C 124.97506 171.22358 127.75477 170.91719 130.50977 170.49219 C 133.27777 170.06519 136.01919 169.51723 138.74219 168.86523 C 141.45619 168.21423 144.15108 167.46109 146.83008 166.62109 C 149.32108 165.84009 151.76597 164.95747 154.16797 163.98047 C 156.57697 162.99947 158.94253 161.92467 161.26953 160.76367 C 163.59053 159.60567 165.87114 158.36202 168.11914 157.04102 C 169.62414 156.15602 171.26345 155.47828 172.68945 154.48828 C 174.44745 153.26828 175.8617 151.67047 177.2207 149.98047 C 179.1717 147.55247 181.05208 145.08397 182.83008 142.54297 C 184.60908 140.00297 186.28422 137.38973 187.82422 134.67773 C 189.07422 132.47773 190.19152 130.22264 191.22852 127.93164 C 192.26752 125.63564 193.22634 123.30203 194.15234 120.95703 C 195.07734 118.61403 195.97177 116.2572 196.88477 113.9082 C 197.86577 111.3852 198.70983 108.83667 199.42383 106.26367 C 200.14383 103.66867 200.73227 101.04715 201.19727 98.40625 C 201.66327 95.76435 202.00442 93.100969 202.23242 90.417969 C 202.45842 87.753469 202.57108 85.069641 202.58008 82.369141 C 202.59008 79.504341 202.57881 76.636231 202.50781 73.769531 C 202.43581 70.901531 202.30513 68.036341 202.07812 65.181641 C 201.86812 62.530441 201.56636 59.880134 201.19336 57.240234 C 200.82036 54.601634 200.37677 51.973175 199.88477 49.359375 C 199.37077 46.623475 198.75061 43.907666 198.09961 41.197266 C 197.44961 38.489466 196.76791 35.785772 196.12891 33.076172 C 195.43591 30.131572 194.62395 27.242553 193.62695 24.439453 C 192.61795 21.604753 191.41994 18.858575 189.96094 16.234375 C 188.52394 13.650175 186.83322 11.183428 184.82422 8.8671875 C 184.44222 8.4271875 184.00914 7.9085625 183.49414 7.7265625 C 180.83914 6.7905625 178.19603 5.7323906 175.45703 5.1503906 C 173.15803 4.6623906 170.73428 4.7551406 168.36328 4.6191406 z "
   style="clip-rule:evenodd;fill-rule:evenodd"
   id="path946" /><path
   d="M 123.79688 61.654297 L 129.36328 61.654297 C 128.99055 60.335982 128.60987 59.020012 128.24609 57.699219 C 127.43648 54.758849 126.90374 51.775791 126.49805 48.771484 L 121.02734 48.771484 C 121.14126 49.499018 121.18517 50.236206 121.31836 50.960938 C 121.76636 53.401038 122.31539 55.824381 122.90039 58.238281 C 123.17796 59.381952 123.49828 60.515688 123.79688 61.654297 z "
   style="clip-rule:evenodd;fill-rule:evenodd"
   id="path904" /><path
   d="M 114.97461 61.654297 L 111.84766 61.654297 C 112.4629 63.15165 113.10582 64.640816 113.64453 66.160156 C 114.49653 68.559456 115.26275 70.983834 115.96875 73.427734 C 116.67475 75.868134 117.32055 78.328181 117.93555 80.800781 C 118.34955 82.460281 118.77317 84.117638 119.20117 85.773438 C 119.62917 87.429337 120.06119 89.083281 120.49219 90.738281 C 120.88319 92.239281 120.84578 93.714062 120.30078 95.414062 C 119.61478 94.670063 119.0418 94.043922 118.4668 93.419922 C 117.2818 92.129922 116.11753 90.818406 114.89453 89.566406 C 114.48653 89.149406 113.95083 88.833219 113.42383 88.574219 C 113.19483 88.463219 112.77459 88.528688 112.55859 88.679688 C 112.41659 88.779687 112.42766 89.189406 112.47266 89.441406 C 112.96766 92.164406 113.5878 94.867469 113.9668 97.605469 C 114.2508 99.651069 114.19448 102.27566 113.89648 104.84766 C 113.59048 107.48866 113.03027 110.07392 112.32227 111.91992 C 112.22627 111.76692 112.10398 111.6582 112.08398 111.5332 C 111.73898 109.3532 110.869 107.40281 109.875 105.50781 C 108.877 103.60581 107.75411 101.75821 106.91211 99.787109 C 106.51611 98.857109 105.24867 98.760234 104.63867 99.615234 C 104.21967 100.20233 103.8577 100.98264 103.8457 101.68164 C 103.8027 104.21864 103.91847 106.75927 103.98047 109.57227 C 102.64547 109.00527 101.18178 108.40381 99.738281 107.75781 C 99.233281 107.53181 98.796016 107.14978 98.291016 106.92578 C 97.492016 106.57178 96.708734 106.5913 96.177734 107.4043 C 95.676734 108.1713 95.936734 108.89841 96.552734 109.44141 C 98.407734 111.07641 100.48077 112.26797 103.00977 112.54297 C 103.93977 112.64397 104.84053 112.99866 105.76953 113.09766 C 106.34553 113.15866 107.16561 113.14864 107.47461 112.80664 C 107.73761 112.51464 107.63784 111.54844 107.33984 111.14844 C 105.54484 108.73044 105.6208 106.0497 105.9668 102.9707 C 106.9338 104.7037 107.83669 106.37803 108.55469 108.08203 C 109.29969 109.85303 109.84483 111.65675 110.04883 113.59375 C 110.11683 114.22675 110.12967 114.87319 110.26367 115.49219 C 110.49167 116.55619 111.43228 116.84186 112.23828 116.13086 C 112.32728 116.05186 112.41361 115.96133 112.47461 115.86133 C 113.68261 113.85133 114.82164 111.81473 115.68164 109.67773 C 116.54064 107.54473 117.1227 105.31216 117.2207 102.91016 C 117.3177 100.56816 117.23633 98.218141 117.23633 95.619141 C 117.64333 96.104141 118.00687 96.590391 118.42188 97.025391 C 119.27287 97.915391 120.31697 98.418594 121.54297 98.058594 C 122.75497 97.702594 122.98056 96.576672 123.22656 95.513672 C 123.66856 93.603672 123.54331 91.742563 122.69531 89.976562 C 124.22931 89.796563 125.73266 89.821391 127.09766 89.400391 C 128.43466 88.987391 129.63216 88.118641 131.16016 87.306641 C 131.54916 89.777641 132.07995 92.097359 132.25195 94.443359 C 132.45495 97.206459 132.25673 99.915744 131.80273 102.58984 C 131.34973 105.26284 130.63941 107.89953 129.81641 110.51953 C 129.32741 112.07853 129.11153 113.72217 128.76953 115.32617 C 128.92153 115.39417 129.07552 115.46325 129.22852 115.53125 C 129.45852 115.28925 129.76634 115.08487 129.90234 114.79688 C 130.93634 112.64988 131.88442 110.47172 132.73242 108.26172 C 133.58442 106.04172 134.3338 103.788 134.9668 101.5 C 135.5978 99.2176 136.11314 96.901275 136.49414 94.546875 C 136.82814 92.496875 136.79597 90.440844 136.54297 88.402344 C 136.29097 86.371744 135.81848 84.356553 135.27148 82.376953 C 134.51348 79.628853 133.73136 76.888437 132.94336 74.148438 C 132.15436 71.408437 131.35831 68.669888 130.57031 65.929688 C 130.16099 64.506397 129.76619 63.079324 129.36328 61.654297 L 123.79688 61.654297 C 124.13729 62.952355 124.45771 64.25576 124.81836 65.548828 C 125.49536 67.975028 126.20111 70.392947 126.91211 72.810547 C 127.62311 75.227947 128.34111 77.644053 129.03711 80.064453 C 129.96711 83.298453 129.98642 83.250344 127.10742 85.027344 C 125.58642 85.966344 123.99644 86.055234 122.39844 85.865234 C 121.86044 83.200234 121.40459 80.614547 120.80859 78.060547 C 120.17959 75.361147 119.50267 72.688819 118.63867 70.074219 C 117.77967 67.475019 116.73609 64.932716 115.37109 62.478516 C 115.22157 62.209573 115.12015 61.924572 114.97461 61.654297 z "
   style="clip-rule:evenodd;fill-rule:evenodd"
   id="path902" /><path
   d="M 109.59766 48.771484 L 106.59961 48.771484 C 106.76621 49.256642 106.89803 49.755681 107.07617 50.236328 C 108.18917 53.237028 109.51036 56.156472 110.81836 59.076172 C 111.19908 59.925067 111.49558 60.797419 111.84766 61.654297 L 114.97461 61.654297 C 113.81095 59.49339 112.72818 57.30466 111.80469 55.064453 C 110.95602 53.003413 110.26406 50.890998 109.59766 48.771484 z "
   style="clip-rule:evenodd;fill-rule:evenodd"
   id="path900" /><path
   d="M 55.554688 15.419922 L 55.554688 24.400391 L 57.982422 24.400391 C 57.860222 22.40514 57.567186 20.465741 56.951172 18.630859 C 56.581512 17.529673 56.070132 16.474163 55.554688 15.419922 z "
   style="clip-rule:evenodd;fill-rule:evenodd"
   id="path898" /><path
   d="M 55.554688 4.3710938 C 56.519063 4.3372187 57.481719 4.6635625 58.199219 5.4140625 C 59.223219 6.4850625 60.137703 7.9237031 60.470703 9.3457031 C 61.221503 12.554643 61.436828 15.711316 61.048828 18.791016 C 60.808801 20.696644 60.25003 22.559872 59.533203 24.400391 L 64.189453 24.400391 L 64.189453 4.3710938 L 55.554688 4.3710938 z "
   style="clip-rule:evenodd;fill-rule:evenodd"
   id="path966" /><path
   d="M 93.365234 0.20898438 C 90.980234 -0.42501563 88.63525 0.50142186 86.40625 1.3574219 C 84.20095 2.2041819 82.408325 3.4841713 80.890625 5.0507812 C 79.368425 6.6219914 78.123272 8.4804986 77.013672 10.480469 C 76.386672 11.608469 75.628906 12.665891 74.878906 13.837891 C 74.001506 11.316991 73.353725 9.79918 72.328125 8.625 C 71.297425 7.44507 69.884909 6.6113981 67.474609 5.4550781 C 64.756609 4.1510781 61.966109 2.9918125 59.162109 1.8828125 C 57.502009 1.2256725 55.858719 0.94230385 54.261719 1.0917969 C 52.667819 1.2409869 51.121391 1.821175 49.650391 2.890625 C 48.272391 3.891625 46.927016 5.0006719 45.791016 6.2636719 C 43.736816 8.5483019 41.953769 10.967166 40.417969 13.509766 C 38.858069 16.092466 37.554775 18.803206 36.484375 21.628906 C 35.430475 24.410906 34.601916 27.305681 33.978516 30.300781 C 33.353816 33.302281 32.964094 36.318056 32.746094 39.347656 C 32.527794 42.380256 32.481916 45.426422 32.541016 48.482422 C 32.542829 48.577297 32.539469 48.676602 32.541016 48.771484 L 38.353516 48.771484 C 38.338578 47.779685 38.171031 46.932228 38.210938 45.898438 C 38.321637 43.029237 38.6379 40.024844 39.125 37.027344 C 39.6055 34.070044 40.251703 31.119253 41.033203 28.314453 C 41.877703 25.283753 42.878994 22.422097 43.996094 19.904297 C 45.404594 16.729497 46.998659 14.101588 48.693359 12.367188 C 49.893859 14.033086 50.94615 15.760125 51.78125 17.578125 C 52.62055 19.405025 53.240606 21.322875 53.566406 23.359375 C 53.936406 25.669375 53.961641 28.032187 54.181641 30.367188 C 54.329641 31.941187 54.967063 32.500109 56.539062 32.662109 C 57.939063 32.806109 59.231969 32.612078 60.167969 31.705078 C 61.302969 32.433078 62.346936 33.063484 63.335938 33.771484 C 63.557937 33.931484 63.696594 34.372781 63.683594 34.675781 C 63.570994 37.304581 63.694141 39.894478 63.994141 42.455078 C 64.24339 44.582555 64.67902 46.679788 65.140625 48.771484 L 68.324219 48.771484 C 67.974336 47.18425 67.543409 45.608484 67.302734 44.005859 C 66.841334 40.932659 66.614506 37.826722 66.753906 34.669922 C 66.786906 33.913922 66.975672 33.468875 67.638672 33.046875 C 70.077672 31.491875 72.029828 29.410391 73.673828 27.025391 C 73.826828 27.061391 73.979813 27.097766 74.132812 27.134766 C 74.132813 29.716766 74.154859 32.299813 74.130859 34.882812 C 74.106859 37.256713 74.233856 39.610419 74.472656 41.949219 C 74.706242 44.236368 75.052803 46.507809 75.460938 48.771484 L 79.667969 48.771484 C 79.486716 47.886396 79.292233 47.003869 79.119141 46.117188 C 78.661941 43.775286 78.337166 41.421647 78.134766 39.060547 C 77.931766 36.692547 77.851266 34.318506 77.884766 31.941406 C 77.918166 29.570706 78.065253 27.197525 78.314453 24.828125 C 78.547353 22.610025 78.949731 20.397372 79.582031 18.263672 C 80.217431 16.119572 81.083741 14.054678 82.244141 12.142578 C 83.547641 9.9948382 85.129159 8.0952194 87.068359 6.7246094 C 88.974659 5.3772294 91.226797 4.5408581 93.904297 4.4863281 C 96.065297 4.4423281 97.9745 5.5916563 99.3125 7.3476562 C 100.673 9.1334562 101.71642 11.054131 102.35742 13.082031 C 103.00442 15.130931 103.24052 17.287844 102.97852 19.527344 C 102.69652 21.946444 102.66225 24.337038 102.78125 26.710938 C 102.90225 29.108138 103.17964 31.489288 103.51562 33.867188 C 103.84963 36.236688 104.24175 38.603369 104.59375 40.980469 C 104.99462 43.679711 105.73372 46.249989 106.59961 48.771484 L 109.59766 48.771484 C 109.44192 48.27616 109.22846 47.799016 109.08203 47.300781 C 108.31003 44.673581 107.66591 42.007694 107.12891 39.308594 C 106.59691 36.629194 106.17103 33.918594 105.83203 31.183594 C 105.66303 29.815594 105.80859 28.408812 105.80859 26.757812 C 107.37659 28.737813 108.72116 30.51875 110.16016 32.21875 C 110.87016 33.05675 111.65489 33.922936 112.58789 34.460938 C 114.26489 35.426938 115.69725 34.514219 115.78125 32.574219 C 115.81825 31.721219 115.78711 30.866687 115.78711 29.929688 C 116.45711 30.206686 116.94766 30.476186 117.47266 30.617188 C 119.26966 31.099187 119.99737 30.577328 120.10938 28.736328 C 120.20337 27.187328 120.39583 25.624984 120.29883 24.083984 C 120.10183 20.934884 119.41172 18.019331 118.13672 15.394531 C 116.86472 12.774731 115.01228 10.44529 112.48828 8.46875 C 110.61828 7.00362 108.62955 5.7993569 106.56055 4.7792969 C 104.46955 3.7482269 102.29613 2.9064219 100.07812 2.1699219 C 97.87173 1.4374219 95.622034 0.80894738 93.365234 0.20898438 z M 55.554688 4.3710938 L 64.189453 4.3710938 L 64.189453 24.400391 L 59.533203 24.400391 C 59.095473 25.524302 58.653956 26.647462 58.029297 27.744141 C 58.13761 26.58879 58.049647 25.498033 57.982422 24.400391 L 55.554688 24.400391 L 55.554688 15.419922 C 54.727628 13.728334 53.791041 12.071861 52.667969 10.474609 C 51.377969 8.6415698 51.433437 6.8802813 52.898438 5.4882812 C 53.624437 4.7982812 54.590311 4.4049688 55.554688 4.3710938 z M 102.43945 6.5820312 C 105.08545 7.1716114 107.70252 8.7109532 109.97852 10.814453 C 112.08252 12.758853 113.89587 15.186216 115.17188 17.791016 C 116.50887 20.522316 117.254 23.450156 117.125 26.222656 C 116.238 24.908656 115.44108 23.785953 114.70508 22.626953 C 113.49808 20.723953 112.16478 18.940075 110.67578 17.296875 C 109.18778 15.654475 107.54666 14.154006 105.72266 12.816406 C 105.41966 12.593406 105.14647 12.265734 104.98047 11.927734 C 104.09347 10.117734 103.24545 8.2870313 102.43945 6.5820312 z "
   style="clip-rule:evenodd;fill-rule:evenodd"
   id="path964" /><path
   d="M 29.2075 91.8659 C 32.4355 92.0529 35.5555 91.5979 38.4655 90.1189 C 40.0474 89.3142 41.3739 88.2836 42.4518 87.0362 C 43.5291 85.7894 44.3581 84.326 44.9455 82.6549 C 45.0375 82.3929 45.0995 82.1169 45.2225 81.8699 C 45.6845 80.9459 46.4085 80.4739 47.4575 80.7459 C 48.3985 80.9899 48.9525 81.9539 48.7055 83.0129 C 48.0655 85.7549 46.6665 88.1029 44.7305 90.1089 C 43.1765 91.7197 41.4266 92.95 39.5163 93.8332 C 37.5986 94.7198 35.5193 95.2564 33.3145 95.4769 C 31.0765 95.7019 28.7975 95.5759 26.5395 95.5119 C 25.2785 95.4769 24.4865 94.6189 24.5315 93.5929 C 24.5785 92.5399 25.4235 91.8659 26.7005 91.8649 C 27.5375 91.8659 28.3725 91.8659 29.2075 91.8659 C 29.2075 91.8659 29.2075 91.8659 29.2075 91.8659"
   id="path760"
   style="clip-rule:evenodd;fill-rule:evenodd" /><path
   d="M 36.7575 78.7259 C 39.8145 78.6399 40.4365 79.1959 40.6715 81.3109 C 40.8795 83.1819 40.6025 84.7679 38.6535 85.6729 C 37.1265 86.3819 35.7265 87.4139 34.1515 87.9599 C 32.5395 88.5199 30.9175 88.1269 29.6655 86.8169 C 28.5935 85.6949 28.4775 84.8339 29.2645 83.4869 C 31.1395 80.2809 34.0705 78.8979 36.7575 78.7259 C 36.7575 78.7259 36.7575 78.7259 36.7575 78.7259"
   id="path762"
   style="clip-rule:evenodd;fill-rule:evenodd" />
</svg>
